<svg height="109" viewbox="0 0 109 109" width="109" xmlns="http://www.w3.org/2000/svg">
	<g id="kvg:StrokePaths_0342e" style="fill:none;stroke:#000000;stroke-width:3;stroke-linecap:round;stroke-linejoin:round;" xmlns:kvg="http://kanjivg.tagaini.net">
		<g id="kvg:0342e" kvg:element="㐮">
			<g id="kvg:0342e-g1" kvg:element="㐮" kvg:original="襄" kvg:phon="襄V" kvg:position="right" kvg:variant="true">
				<g id="kvg:0342e-g2" kvg:element="六" kvg:variant="true">
					<g id="kvg:0342e-g3" kvg:element="亠" kvg:position="top">
						<path d="M52.9,15.2c1.45,1.2,1.88,2.58,1.88,4.12c0,1.33-0.124,3.76-0.124,5.94" id="kvg:0342e-s1" kvg:type="㇑a"></path>
						<path d="M21.3,28.8c3.42,0.562,7.11,0.207,10.6-0.149c12.5-1.29,34.5-3.83,48-4.73c3.05-0.207,6.99-0.425,9.92,0.493" id="kvg:0342e-s2" kvg:type="㇐"></path>
					</g>
					<g id="kvg:0342e-g4" kvg:element="八">
						<path d="M40.9,31.7c0.0416,0.298,0.0971,0.757-0.0971,1.18c-0.958,2.09-5.76,6.3-12.5,9.56" id="kvg:0342e-s3" kvg:type="㇒"></path>
						<path d="M68.8,31.1c6.03,1.55,15.6,6.36,17.1,8.75" id="kvg:0342e-s4" kvg:type="㇔"></path>
					</g>
				</g>
				<g id="kvg:0342e-g5" kvg:element="三" part="1">
					<g id="kvg:0342e-g6" kvg:element="一" kvg:position="top">
						<path d="M29.8,49.4c2.54,0.861,6.19,0.597,8.84,0.356c12-1.09,22.2-2.38,33.9-3.83c1.67-0.207,3.52-0.447,5.19-0.103" id="kvg:0342e-s5" kvg:type="㇐"></path>
					</g>
				</g>
				<path d="M42.8,43.6c1.22,1.01,1.68,2.73,1.68,4.3c0,1.17,0.416,11.8,0.736,23.5" id="kvg:0342e-s6" kvg:type="㇑a"></path>
				<path d="M66.4,39c0.875,1.15,0.888,2.85,0.639,4.59C65.3,55.1,64.9,60,63.6,69.7" id="kvg:0342e-s7" kvg:type="㇑a"></path>
				<g id="kvg:0342e-g7" kvg:element="三" kvg:position="bottom" part="2">
					<g id="kvg:0342e-g8" kvg:element="一">
						<path d="M30.9,61.1c2.93,0.987,6.53,0.585,9.58,0.321c9.26-0.826,23.8-2.79,32.5-3.55c1.57-0.138,3.28-0.39,4.84-0.0688" id="kvg:0342e-s8" kvg:type="㇐"></path>
					</g>
					<g id="kvg:0342e-g9" kvg:element="一">
						<path d="M19,74.2c3.01,1.01,7.71,0.528,10.8,0.0688c12.5-1.87,36.5-3.81,54-4.86c3.12-0.195,5.91-0.241,9.54,0.0574" id="kvg:0342e-s9" kvg:type="㇐"></path>
					</g>
				</g>
				<g id="kvg:0342e-g10" kvg:element="𧘇" kvg:position="bottom">
					<path d="M45.9,75c0.0833,0.631-0.014,1.68-0.515,2.52c-3.25,5.48-12.9,12.9-29,21.5" id="kvg:0342e-s10" kvg:type="㇒"></path>
					<path d="M38.9,88.9c1.01,0.838,1.25,2.07,1.25,3.51c0,6.38,0.0277,9.88,0.0416,11.7c0.0277,2.94,0.931,3.66,4.03,1.48c3.59-2.54,11.2-8.36,14.5-10.6" id="kvg:0342e-s11" kvg:type="㇙"></path>
					<path d="M76.2,73.6c0.0556,0.574-0.486,1.5-0.931,1.94c-2.75,2.73-4.24,4.05-10,8.55" id="kvg:0342e-s12" kvg:type="㇒"></path>
					<path d="M50.4,78.9c2.15,0.769,34,19.9,39.9,22.7c2.22,1.08,4.14,1.54,6.36,1.85" id="kvg:0342e-s13" kvg:type="㇏"></path>
				</g>
			</g>
		</g>
	</g>
	<g id="kvg:StrokeNumbers_0342e" style="font-size:8;fill:#808080" xmlns:kvg="http://kanjivg.tagaini.net">
		<text transform="matrix(1 0 0 1 20.1 25.8)">1</text>
		<text transform="matrix(1 0 0 1 28.1 38.4)">2</text>
		<text transform="matrix(1 0 0 1 58.5 35)">3</text>
		<text transform="matrix(1 0 0 1 22.1 52.2)">4</text>
		<text transform="matrix(1 0 0 1 30.9 47.6)">5</text>
		<text transform="matrix(1 0 0 1 51.7 44.2)">6</text>
		<text transform="matrix(1 0 0 1 19.7 61.4)">7</text>
		<text transform="matrix(1 0 0 1 16.9 71.7)">8</text>
		<text transform="matrix(1 0 0 1 26.7 83.2)">9</text>
		<text transform="matrix(1 0 0 1 26.7 102)">10</text>
		<text transform="matrix(1 0 0 1 58.5 79.7)">11</text>
		<text transform="matrix(1 0 0 1 47.2 90.1)">12</text>
	</g>
</svg>