<svg height="109" viewbox="0 0 109 109" width="109" xmlns="http://www.w3.org/2000/svg">
	<g id="kvg:StrokePaths_03452" style="fill:none;stroke:#000000;stroke-width:3;stroke-linecap:round;stroke-linejoin:round;" xmlns:kvg="http://kanjivg.tagaini.net">
		<g id="kvg:03452" kvg:element="㑒">
			<g id="kvg:03452-g1" kvg:element="㑒" kvg:original="僉" kvg:phon="倹right/僉V" kvg:position="right" partial="true">
				<g id="kvg:03452-g2" kvg:element="人" kvg:position="top">
					<path d="M50.1,13.2c0.302,1-0.108,2.26-0.713,3.41c-3.5,6.73-12.3,20.1-28.1,32.7" id="kvg:03452-s1" kvg:type="㇒"></path>
					<path d="M51.3,17.2c4.34,3.81,16.7,15,24.6,21.3c2.12,1.7,6.39,4.67,9.15,5.97" id="kvg:03452-s2" kvg:type="㇏"></path>
				</g>
				<g id="kvg:03452-g3" kvg:position="bottom">
					<g id="kvg:03452-g4" kvg:element="一">
						<path d="M37,42.6c2.27,0.28,4.51,0.02,6.16-0.22c4.61-0.68,11.8-2.45,18.1-3.16c1.43-0.16,3.77-0.33,5.4,0.03" id="kvg:03452-s3" kvg:type="㇐"></path>
					</g>
					<g id="kvg:03452-g5" kvg:element="口">
						<path d="M31,54.2c0.821,0.76,1.43,1.69,1.71,2.77c1.3,5.07,1.26,6.58,1.98,10.8c0.259,1.54,0.54,3.21,0.864,5.16" id="kvg:03452-s4" kvg:type="㇑"></path>
						<path d="M33.2,55.8c10.4-1.23,27.1-3.42,34.8-4.19c3.79-0.39,6.1,0.44,4.89,4.28c-1.11,3.56-2.28,6.93-3.64,10.9" id="kvg:03452-s5" kvg:type="㇕b"></path>
						<path d="M36,70.8c5.83-0.44,21.5-2.25,31.5-3.07c2.06-0.17,3.92-0.3,5.43-0.39" id="kvg:03452-s6" kvg:type="㇐b"></path>
					</g>
					<g id="kvg:03452-g6" kvg:element="人">
						<path d="M51.6,44.1c0.95,0.88,1.14,2.29,1.2,4.15C53.5,71.1,50.2,84.4,25.7,96.2" id="kvg:03452-s7" kvg:type="㇒"></path>
						<path d="M54,70.5c4.32,4.22,14,12.8,22.2,18.9c3.09,2.33,5.35,3.81,8.18,5.19" id="kvg:03452-s8" kvg:type="㇏"></path>
					</g>
				</g>
			</g>
		</g>
	</g>
	<g id="kvg:StrokeNumbers_03452" style="font-size:8;fill:#808080" xmlns:kvg="http://kanjivg.tagaini.net">
		<text transform="matrix(1 0 0 1 40.2 15.1)">1</text>
		<text transform="matrix(1 0 0 1 59.6 19.6)">2</text>
		<text transform="matrix(1 0 0 1 41.9 39.1)">3</text>
		<text transform="matrix(1 0 0 1 24 64.6)">4</text>
		<text transform="matrix(1 0 0 1 33.7 52.6)">5</text>
		<text transform="matrix(1 0 0 1 38.7 67.5)">6</text>
		<text transform="matrix(1 0 0 1 44.3 50.5)">7</text>
		<text transform="matrix(1 0 0 1 64.6 79.6)">8</text>
	</g>
</svg>