<svg height="109" viewbox="0 0 109 109" width="109" xmlns="http://www.w3.org/2000/svg">
	<g id="kvg:StrokePaths_03563" style="fill:none;stroke:#000000;stroke-width:3;stroke-linecap:round;stroke-linejoin:round;" xmlns:kvg="http://kanjivg.tagaini.net">
		<g id="kvg:03563" kvg:element="㕣">
			<g id="kvg:03563-g1" kvg:element="㕣" kvg:phon="㕣" kvg:position="right">
				<g id="kvg:03563-g2" kvg:element="八">
					<g id="kvg:03563-g3" kvg:position="left">
						<path d="M42.8,22.8c0.258,0.896,0.247,2.21-0.103,3.28c-2.36,7.25-7.13,18.4-15.2,26.7" id="kvg:03563-s1" kvg:type="㇒"></path>
					</g>
					<g id="kvg:03563-g4" kvg:position="right">
						<path d="M55.6,16.7C60.5,17.2,69.8,36.2,76.7,44.5c2.29,2.8,4.42,4.81,6.71,6.8" id="kvg:03563-s2" kvg:type="㇏"></path>
					</g>
				</g>
				<g id="kvg:03563-g5" kvg:element="口">
					<path d="M34.2,62.7c0.783,0.783,1.13,1.82,1.3,2.78c1.15,7.02,1.98,14.2,2.86,22.9c0.196,1.96,0.391,3.78,0.577,5.37" id="kvg:03563-s3" kvg:type="㇑"></path>
					<path d="M36.4,64.4c12.3-1.63,25.9-2.66,34.7-3.3c3.64-0.258,5.15,1.53,4.48,4.24c-1.73,6.95-2.94,13.5-4.68,22" id="kvg:03563-s4" kvg:type="㇕b"></path>
					<path d="M39.9,90.7c7.03-0.33,16.9-1.16,27.6-1.82c1.67-0.103,3.54-0.258,5.08-0.371" id="kvg:03563-s5" kvg:type="㇐b"></path>
				</g>
			</g>
		</g>
	</g>
	<g id="kvg:StrokeNumbers_03563" style="font-size:8;fill:#808080" xmlns:kvg="http://kanjivg.tagaini.net">
		<text transform="matrix(1 0 0 1 34 25.2)">1</text>
		<text transform="matrix(1 0 0 1 53.6 13.9)">2</text>
		<text transform="matrix(1 0 0 1 27.8 72.6)">3</text>
		<text transform="matrix(1 0 0 1 38.1 61.3)">4</text>
		<text transform="matrix(1 0 0 1 43.5 86.5)">5</text>
	</g>
</svg>