<svg height="109" viewbox="0 0 109 109" width="109" xmlns="http://www.w3.org/2000/svg">
	<g id="kvg:StrokePaths_04491" style="fill:none;stroke:#000000;stroke-width:3;stroke-linecap:round;stroke-linejoin:round;" xmlns:kvg="http://kanjivg.tagaini.net">
		<g id="kvg:04491" kvg:element="䒑">
			<g id="kvg:04491-g1" kvg:position="top">
				<g id="kvg:04491-g2" kvg:element="八" kvg:radical="nelson" kvg:variant="true">
					<path d="M32.6,20.5c4.08,2.85,10.6,11.1,11.6,15.6" id="kvg:04491-s1" kvg:type="㇔"></path>
					<path d="M72.5,16.1c0.0918,1.37-0.0344,2.15-0.597,3.42c-2.35,5.29-6.02,11.2-13,19.6" id="kvg:04491-s2" kvg:type="㇒"></path>
				</g>
				<g id="kvg:04491-g3" kvg:element="一" kvg:radical="tradit">
					<path d="M20.6,45.5c3.44,0.688,6.26,0.344,9.18,0c11.9-1.41,39.3-4.74,50.8-5.62c2.72-0.207,5.36-0.367,8.02,0.287" id="kvg:04491-s3" kvg:type="㇐"></path>
				</g>
			</g>
		</g>
	</g>
	<g id="kvg:StrokeNumbers_04491" style="font-size:8;fill:#808080" xmlns:kvg="http://kanjivg.tagaini.net">
		<text transform="matrix(1 0 0 1 25.5 21.2)">1</text>
		<text transform="matrix(1 0 0 1 63.3 15.5)">2</text>
		<text transform="matrix(1 0 0 1 11.7 44.9)">3</text>
	</g>
</svg>