<svg height="109" viewbox="0 0 109 109" width="109" xmlns="http://www.w3.org/2000/svg">
	<g id="kvg:StrokePaths_04e02" style="fill:none;stroke:#000000;stroke-width:3;stroke-linecap:round;stroke-linejoin:round;" xmlns:kvg="http://kanjivg.tagaini.net">
		<g id="kvg:04e02" kvg:element="丂">
			<g id="kvg:04e02-g1" kvg:position="bottom">
				<g id="kvg:04e02-g2" kvg:element="一">
					<path d="M13,27.8c2.6,0.747,6.85,0.773,9.43,0.4c19.7-2.82,43.3-6.29,65.4-7.47c3.85-0.194,7.6-0.0414,11.4,0.621" id="kvg:04e02-s1" kvg:type="㇐"></path>
				</g>
				<path d="M48,27.5c0.779,1.9,0.519,4.26-0.519,6.56c-1.56,3.47-4.55,9.15-6.23,12.4C40.1,48.7,41.5,52.3,43.6,52s24.9-7.46,27.3-8.29c3.89-1.38,5.93,1.08,5.19,6.22c-2.08,14.5-9.14,31.7-13,38.7c-5.45,10-11.7,2.42-14.5-0.691" id="kvg:04e02-s2" kvg:type="㇉"></path>
			</g>
		</g>
	</g>
	<g id="kvg:StrokeNumbers_04e02" style="font-size:8;fill:#808080" xmlns:kvg="http://kanjivg.tagaini.net">
		<text transform="matrix(1 0 0 1 5.71 29.2)">1</text>
		<text transform="matrix(1 0 0 1 37.9 38.9)">2</text>
	</g>
</svg>