<svg height="109" viewbox="0 0 109 109" width="109" xmlns="http://www.w3.org/2000/svg">
	<g id="kvg:StrokePaths_04e1a" style="fill:none;stroke:#000000;stroke-width:3;stroke-linecap:round;stroke-linejoin:round;" xmlns:kvg="http://kanjivg.tagaini.net">
		<g id="kvg:04e1a" kvg:element="业">
			<g id="kvg:04e1a-g1" kvg:element="业" kvg:position="bottom">
				<path d="M43.4,41.2c0.94,0.94,1.46,2.38,1.46,3.75c0,1.02-0.08,38.6-0.08,45.8" id="kvg:04e1a-s1" kvg:type="㇑a"></path>
				<path d="M61.6,39.2c0.88,0.88,1.21,2.38,1.21,3.75c0,1.02,0.03,39.8,0.03,46.2" id="kvg:04e1a-s2" kvg:type="㇑a"></path>
				<path d="M24.5,59.1c3.03,3.01,7.83,12.4,8.59,17.1" id="kvg:04e1a-s3" kvg:type="㇔"></path>
				<path d="M84.8,51.3c0.11,1.29-0.18,2.5-0.75,3.7c-2.5,5.29-6.51,11.7-17.3,22.6" id="kvg:04e1a-s4" kvg:type="㇒"></path>
				<path d="M14.8,93.2c3.27,1.17,7.35,0.8,10.7,0.45c12.8-1.32,44.9-3.96,61.5-4.72c3.12-0.14,6.45-0.03,9.5,0.62" id="kvg:04e1a-s5" kvg:type="㇐"></path>
			</g>
		</g>
	</g>
	<g id="kvg:StrokeNumbers_04e1a" style="font-size:8;fill:#808080" xmlns:kvg="http://kanjivg.tagaini.net">
		<text transform="matrix(1 0 0 1 37.5 49.6)">1</text>
		<text transform="matrix(1 0 0 1 55.5 46.5)">2</text>
		<text transform="matrix(1 0 0 1 17.2 57.5)">3</text>
		<text transform="matrix(1 0 0 1 77.5 50.5)">4</text>
		<text transform="matrix(1 0 0 1 12.5 90.1)">5</text>
	</g>
</svg>