<svg height="109" viewbox="0 0 109 109" width="109" xmlns="http://www.w3.org/2000/svg">
	<g id="kvg:StrokePaths_04e2c" style="fill:none;stroke:#000000;stroke-width:3;stroke-linecap:round;stroke-linejoin:round;" xmlns:kvg="http://kanjivg.tagaini.net">
		<g id="kvg:04e2c" kvg:element="丬">
			<g id="kvg:04e2c-g1" kvg:element="⺦" kvg:original="爿" kvg:position="left" kvg:variant="true">
				<path d="M50.7,17.8c0.981,0.981,1.47,2.72,1.47,4.84c0,0.799,0.0484,45,0.0484,64.3c0,5.22,0,8.64-0.0121,8.94" id="kvg:04e2c-s1" kvg:type="㇑"></path>
				<path d="M33,33.8c3.63,2.19,9.39,9.01,10.3,12.4" id="kvg:04e2c-s2" kvg:type="㇔"></path>
				<path d="M29.7,72.9c1.67,0.702,3.37,0.23,4.87-0.92c4.36-3.39,8.73-7.53,12.7-11.8" id="kvg:04e2c-s3" kvg:type="㇀"></path>
			</g>
		</g>
	</g>
	<g id="kvg:StrokeNumbers_04e2c" style="font-size:8;fill:#808080" xmlns:kvg="http://kanjivg.tagaini.net">
		<text transform="matrix(1 0 0 1 43.3 26.9)">1</text>
		<text transform="matrix(1 0 0 1 23.9 37.7)">2</text>
		<text transform="matrix(1 0 0 1 20 77.6)">3</text>
	</g>
</svg>