<svg height="109" viewbox="0 0 109 109" width="109" xmlns="http://www.w3.org/2000/svg">
	<g id="kvg:StrokePaths_04e47" style="fill:none;stroke:#000000;stroke-width:3;stroke-linecap:round;stroke-linejoin:round;" xmlns:kvg="http://kanjivg.tagaini.net">
		<g id="kvg:04e47" kvg:element="乇">
			<g id="kvg:04e47-g1" kvg:element="乇" kvg:phon="乇" kvg:position="bottom">
				<g id="kvg:04e47-g2" kvg:element="丿">
					<path d="M67.5,21.9c0,0.88-0.61,1.95-1.17,2.32c-8.48,5.56-19.6,9.93-33.6,14.2" id="kvg:04e47-s1" kvg:type="㇒"></path>
				</g>
				<g id="kvg:04e47-g3" kvg:element="七">
					<g id="kvg:04e47-g4" kvg:element="一">
						<path d="M18.8,56.1c3.96,0.85,7.66,0.38,11.6-0.39c13.1-2.6,27.9-5.61,43.8-7.51c3.69-0.44,7.45-0.91,11.1-0.1" id="kvg:04e47-s2" kvg:type="㇐"></path>
					</g>
					<path d="M49.5,36.1c0.96,0.96,1.15,2.65,1.15,4.01c0,4.91-0.15,22.8-0.15,29.5C50.5,81.1,52,83.6,72.2,83.6c18.8,0,20-2.25,20-12.1" id="kvg:04e47-s3" kvg:type="㇟"></path>
				</g>
			</g>
		</g>
	</g>
	<g id="kvg:StrokeNumbers_04e47" style="font-size:8;fill:#808080" xmlns:kvg="http://kanjivg.tagaini.net">
		<text transform="matrix(1 0 0 1 57.5 22.2)">1</text>
		<text transform="matrix(1 0 0 1 11.5 58.1)">2</text>
		<text transform="matrix(1 0 0 1 43 44.1)">3</text>
	</g>
</svg>