<svg height="109" viewbox="0 0 109 109" width="109" xmlns="http://www.w3.org/2000/svg">
	<g id="kvg:StrokePaths_05151" style="fill:none;stroke:#000000;stroke-width:3;stroke-linecap:round;stroke-linejoin:round;" xmlns:kvg="http://kanjivg.tagaini.net">
		<g id="kvg:05151" kvg:element="兑">
			<g id="kvg:05151-g1" kvg:element="兌" kvg:phon="兌" kvg:position="right">
				<g id="kvg:05151-g2" kvg:element="八" kvg:position="top" kvg:variant="true">
					<g id="kvg:05151-g3" kvg:position="left">
						<path d="M34.7,20.5c3.4,2.33,8.78,9.59,9.64,13.2" id="kvg:05151-s1" kvg:type="㇔"></path>
					</g>
					<g id="kvg:05151-g4" kvg:position="right">
						<path d="M71.6,14.9c0.119,1.13-0.0396,2.23-0.474,3.3c-2.34,4.31-6.15,10.1-11.8,16.4" id="kvg:05151-s2" kvg:type="㇒"></path>
					</g>
				</g>
				<g id="kvg:05151-g5" kvg:element="兄" kvg:position="bottom">
					<g id="kvg:05151-g6" kvg:element="口" kvg:position="top">
						<path d="M32.3,41c0.818,1.09,1.25,2.29,1.33,3.58c0.738,3.63,1.72,9.53,2.54,14.8c0.198,1.3,0.409,2.55,0.619,3.74" id="kvg:05151-s3" kvg:type="㇑"></path>
						<path d="M34.5,42.5c11.9-1.3,25.6-2.84,36-3.71c3.64-0.305,6.19,1.05,5.36,4.27c-1.16,4.46-2.67,9.04-4.19,14.8" id="kvg:05151-s4" kvg:type="㇕b"></path>
						<path d="M38,61.4c6.31-0.338,20-1.53,30.3-2.43c1.75-0.153,4.73-0.283,6.22-0.382" id="kvg:05151-s5" kvg:type="㇐b"></path>
					</g>
					<g id="kvg:05151-g7" kvg:element="儿" kvg:original="八" kvg:position="bottom">
						<g id="kvg:05151-g8" kvg:element="丿">
							<path d="M48.2,64.3c0.0791,0.85,0.158,2.2-0.145,3.43c-1.79,7.23-11.4,24.1-26.2,32.8" id="kvg:05151-s6" kvg:type="㇒"></path>
						</g>
						<path d="M60.5,62.8c1.13,0.937,1.58,2.47,1.58,3.92c0,5.4,0,13.4,0,20.1c0,10.7,1.98,11.6,15.2,11.6c14.7,0,15.8-0.687,15.8-9.44" id="kvg:05151-s7" kvg:type="㇟"></path>
					</g>
				</g>
			</g>
		</g>
	</g>
	<g id="kvg:StrokeNumbers_05151" style="font-size:8;fill:#808080" xmlns:kvg="http://kanjivg.tagaini.net">
		<text transform="matrix(1 0 0 1 27.5 16.9)">1</text>
		<text transform="matrix(1 0 0 1 60.3 13.2)">2</text>
		<text transform="matrix(1 0 0 1 26.1 54)">3</text>
		<text transform="matrix(1 0 0 1 34.9 39.8)">4</text>
		<text transform="matrix(1 0 0 1 40.9 58.3)">5</text>
		<text transform="matrix(1 0 0 1 36.6 72.1)">6</text>
		<text transform="matrix(1 0 0 1 48.5 82.3)">7</text>
	</g>
</svg>