<svg height="109" viewbox="0 0 109 109" width="109" xmlns="http://www.w3.org/2000/svg">
	<g id="kvg:StrokePaths_053d5" style="fill:none;stroke:#000000;stroke-width:3;stroke-linecap:round;stroke-linejoin:round;" xmlns:kvg="http://kanjivg.tagaini.net">
		<g id="kvg:053d5" kvg:element="叕">
			<g id="kvg:053d5-g1" kvg:position="right">
				<g id="kvg:053d5-g2" kvg:position="top">
					<g id="kvg:053d5-g3" kvg:element="又" kvg:position="left">
						<path d="M26.3,14c0.275,0.0344,1.77,0.298,2.55,0.218c3.52-0.379,12.8-3.52,16.5-4.49c2.54-0.665,3.25,0.757,2.6,2.57C44.4,22.2,40.3,36.1,25.3,50.1" id="kvg:053d5-s1" kvg:type="㇇"></path>
						<path d="M29,24.6C35.8,29.1,43.4,37.4,46.7,44.5" id="kvg:053d5-s2" kvg:type="㇔/㇏"></path>
					</g>
					<g id="kvg:053d5-g4" kvg:element="又" kvg:position="right">
						<path d="M56.7,12.6c0.275,0.0344,1.77,0.298,2.55,0.218c3.52-0.379,14-4.1,17.7-5.06c2.54-0.665,3.25,0.757,2.6,2.57c-3.55,9.9-11.4,27.5-26.1,37.2" id="kvg:053d5-s3" kvg:type="㇇"></path>
						<path d="M57.9,23.4c8.7,4.84,18.4,13.8,22.6,21.4" id="kvg:053d5-s4" kvg:type="㇔/㇏"></path>
					</g>
				</g>
				<g id="kvg:053d5-g5" kvg:position="bottom">
					<g id="kvg:053d5-g6" kvg:element="又" kvg:position="left">
						<path d="M25.4,61.7c0.275,0.0344,1.77,0.298,2.55,0.218c3.52-0.379,13.4-2.95,17.1-3.91c2.54-0.665,3.25,0.757,2.6,2.57c-3.55,9.9-10.6,25.4-26.1,37.2" id="kvg:053d5-s5" kvg:type="㇇"></path>
						<path d="M25.8,70.5c7.49,4.91,15.8,14,19.5,21.6" id="kvg:053d5-s6" kvg:type="㇔/㇏"></path>
					</g>
					<g id="kvg:053d5-g7" kvg:element="又" kvg:position="right">
						<path d="M55.3,60.6c0.436,0.0459,2.79,0.402,4.04,0.287c5.58-0.516,12.9-2.97,18.7-4.27c4.02-0.883,5.15,1.01,4.13,3.43c-5.62,13.2-13.9,30.2-37.1,43.2" id="kvg:053d5-s7" kvg:type="㇇"></path>
						<path d="M53.7,68.2c4.34,5.51,24,26.4,29.9,31.5c1.74,1.5,3.16,2.23,4.85,2.67" id="kvg:053d5-s8" kvg:type="㇏"></path>
					</g>
				</g>
			</g>
		</g>
	</g>
	<g id="kvg:StrokeNumbers_053d5" style="font-size:8;fill:#808080" xmlns:kvg="http://kanjivg.tagaini.net">
		<text transform="matrix(1 0 0 1 23.6 10.5)">1</text>
		<text transform="matrix(1 0 0 1 32.8 25.5)">2</text>
		<text transform="matrix(1 0 0 1 53.7 9.5)">3</text>
		<text transform="matrix(1 0 0 1 62.6 23.2)">4</text>
		<text transform="matrix(1 0 0 1 22.5 58.7)">5</text>
		<text transform="matrix(1 0 0 1 29.4 72.5)">6</text>
		<text transform="matrix(1 0 0 1 51.2 57.6)">7</text>
		<text transform="matrix(1 0 0 1 58 71.3)">8</text>
	</g>
</svg>