<svg height="109" viewbox="0 0 109 109" width="109" xmlns="http://www.w3.org/2000/svg">
	<g id="kvg:StrokePaths_053da" style="fill:none;stroke:#000000;stroke-width:3;stroke-linecap:round;stroke-linejoin:round;" xmlns:kvg="http://kanjivg.tagaini.net">
		<g id="kvg:053da" kvg:element="叚">
			<g id="kvg:053da-g1" kvg:element="叚" kvg:phon="叚" kvg:position="right">
				<path d="M17.4,18.2c2.33,0.382,6.03,0.327,7.41,0.0981c5.59-0.97,10.5-1.83,16.5-2.58c4.3-0.534,5.93,0.273,5.08,3.54c-1.31,5.11-3.53,14-4.28,18.6" id="kvg:053da-s1" kvg:type="㇕c"></path>
				<path d="M21.8,41.5c5.35-0.458,11.7-1.69,18.3-2.49c1.97-0.24,3.76-0.447,5.27-0.567" id="kvg:053da-s2" kvg:type="㇐b"></path>
				<path d="M18.4,19c1.14,0.861,1.45,1.97,1.61,3.42c0,14.8,0,51.7-0.218,68.1c-0.0436,2.82-0.087,4.99-0.131,6.27" id="kvg:053da-s3" kvg:type="㇑"></path>
				<path d="M21.5,58.4c5.54-0.469,10.9-1.5,17.4-2.3c1.71-0.207,2.87-0.196,4.55-0.218" id="kvg:053da-s4" kvg:type="㇐b"></path>
				<path d="M21.5,76.4c5.54-0.469,12.8-1.5,19.4-2.3c2.1-0.251,2.87-0.338,4.55-0.218" id="kvg:053da-s5" kvg:type="㇐b"></path>
				<path d="M56.8,15.9c2.09,0.273,4.5,0.436,6.09,0.316c7.69-0.61,15.4-2.22,22.6-3.04c2.16-0.24,3.48,1.13,3.17,2.25c-1.3,4.63-3.86,12.1-5.43,17.7" id="kvg:053da-s6" kvg:type="㇕c"></path>
				<path d="M55.8,36.9c2.25,0.273,4.3,0.153,6.53-0.0872c5.7-0.621,13.1-1.65,18.6-2.34c2.25-0.283,4.21-0.512,5.61-0.632" id="kvg:053da-s7" kvg:type="㇐"></path>
				<g id="kvg:053da-g2" kvg:element="又">
					<path d="M52.6,53c1.71,0.316,4.09,0.523,7.5,0.0436s20-3.83,22.2-4.31s4.4,1.21,3.55,2.98C75.8,72.5,57,89.2,38,97" id="kvg:053da-s8" kvg:type="㇇"></path>
					<path d="M48.4,61.3c4.39,0.698,20.2,13.4,37.7,27.2c4.08,3.18,8.25,4.96,11.8,6.56" id="kvg:053da-s9" kvg:type="㇏"></path>
				</g>
			</g>
		</g>
	</g>
	<g id="kvg:StrokeNumbers_053da" style="font-size:8;fill:#808080" xmlns:kvg="http://kanjivg.tagaini.net">
		<text transform="matrix(1 0 0 1 21.1 14.5)">1</text>
		<text transform="matrix(1 0 0 1 25.4 36.3)">2</text>
		<text transform="matrix(1 0 0 1 8.8 25.9)">3</text>
		<text transform="matrix(1 0 0 1 25.1 54.5)">4</text>
		<text transform="matrix(1 0 0 1 25.1 72.4)">5</text>
		<text transform="matrix(1 0 0 1 53.4 12.1)">6</text>
		<text transform="matrix(1 0 0 1 53.8 33.3)">7</text>
		<text transform="matrix(1 0 0 1 53.4 49.6)">8</text>
		<text transform="matrix(1 0 0 1 56.7 64.9)">9</text>
	</g>
</svg>