<svg height="109" viewbox="0 0 109 109" width="109" xmlns="http://www.w3.org/2000/svg">
	<g id="kvg:StrokePaths_05485" style="fill:none;stroke:#000000;stroke-width:3;stroke-linecap:round;stroke-linejoin:round;" xmlns:kvg="http://kanjivg.tagaini.net">
		<g id="kvg:05485" kvg:element="咅">
			<g id="kvg:05485-g1" kvg:element="咅" kvg:phon="倍right" kvg:position="right">
				<g id="kvg:05485-g2" kvg:element="立" kvg:position="top">
					<g id="kvg:05485-g3" kvg:element="亠" kvg:position="top">
						<path d="M50.2,15c1.12,1.02,2.1,2.45,2.1,4.36s0,6.81,0,12" id="kvg:05485-s1" kvg:type="㇑a"></path>
						<path d="M28.5,33.2c1.81,0.36,3.94,0.534,5.73,0.36c11.7-1.12,28.1-3.3,39.6-4.11c3.01-0.207,4.82,0.174,6.34,0.349" id="kvg:05485-s2" kvg:type="㇐"></path>
					</g>
					<g id="kvg:05485-g4" kvg:position="bottom">
						<path d="M37.5,40.7c4.84,5.23,7.05,10.6,7.49,14" id="kvg:05485-s3" kvg:type="㇔"></path>
						<path d="M70.1,36.2c0.468,0.959,0.468,1.77,0.191,2.68c-1.14,3.77-5.62,13.4-7.22,16.4" id="kvg:05485-s4" kvg:type="㇒"></path>
						<path d="M21.9,61.9c2.4,0.425,5.21,0.425,7.58,0.153c19.6-2.26,34.4-4.02,53-4.63c3.98-0.131,6.38,0.207,8.38,0.414" id="kvg:05485-s5" kvg:type="㇐"></path>
					</g>
				</g>
				<g id="kvg:05485-g5" kvg:element="口" kvg:position="bottom">
					<path d="M35.4,75.4c0.815,0.741,1.05,1.48,1.24,2.68c0.9,5.52,1.96,13.2,3.01,20.3c0.18,1.23,0.36,2.42,0.54,3.54" id="kvg:05485-s6" kvg:type="㇑"></path>
					<path d="M38,76.9c9.1-1.2,22.4-2.76,33.6-3.55c5.59-0.403,6.74,1.89,5.84,4.77c-1.54,4.87-3,11.6-4.59,17.3" id="kvg:05485-s7" kvg:type="㇕b"></path>
					<path d="M41,99c6.05-0.545,20.7-1.59,31.1-2.2c1.56-0.0872,3-0.164,4.29-0.218" id="kvg:05485-s8" kvg:type="㇐b"></path>
				</g>
			</g>
		</g>
	</g>
	<g id="kvg:StrokeNumbers_05485" style="font-size:8;fill:#808080" xmlns:kvg="http://kanjivg.tagaini.net">
		<text transform="matrix(1 0 0 1 40.3 14.7)">1</text>
		<text transform="matrix(1 0 0 1 28.3 29.6)">2</text>
		<text transform="matrix(1 0 0 1 29.5 45.2)">3</text>
		<text transform="matrix(1 0 0 1 60.6 39.8)">4</text>
		<text transform="matrix(1 0 0 1 21 58.3)">5</text>
		<text transform="matrix(1 0 0 1 28.3 85.2)">6</text>
		<text transform="matrix(1 0 0 1 38.2 73.6)">7</text>
		<text transform="matrix(1 0 0 1 43.8 95.4)">8</text>
	</g>
</svg>