<svg height="109" viewbox="0 0 109 109" width="109" xmlns="http://www.w3.org/2000/svg">
	<g id="kvg:StrokePaths_05725" style="fill:none;stroke:#000000;stroke-width:3;stroke-linecap:round;stroke-linejoin:round;" xmlns:kvg="http://kanjivg.tagaini.net">
		<g id="kvg:05725" kvg:element="圥">
			<g id="kvg:05725-g1" kvg:position="right">
				<g id="kvg:05725-g2" kvg:element="夌" kvg:position="top">
					<g id="kvg:05725-g3" kvg:element="土">
						<path d="M27.6,42.1c2.98,1.16,6.66,0.494,9.72,0.131c9.5-1.1,23.9-3.23,34.3-4.08c3.01-0.247,6.19-0.683,9.17,0.0145" id="kvg:05725-s1" kvg:type="㇐"></path>
						<path d="M50.8,23.8c1.56,1.56,2.25,3.02,2.25,5.39c0,7.44-0.0436,18.7-0.0436,30" id="kvg:05725-s2" kvg:type="㇑a"></path>
						<path d="M16.1,63.7c4.53,1.16,8.92,0.494,12.5,0.0291c17.3-2.22,41.8-5.25,58.1-6.66c4.11-0.363,8.15-1,12.1,0.334" id="kvg:05725-s3" kvg:type="㇐"></path>
					</g>
					<g id="kvg:05725-g4" kvg:element="八" kvg:original="儿">
						<g id="kvg:05725-g5" kvg:element="丿" kvg:position="left">
							<path d="M41.3,67.2c0.16,1.47-0.0727,2.85-0.727,4.16c-2.41,5.83-7.83,14.7-19.4,21.5" id="kvg:05725-s4" kvg:type="㇒"></path>
						</g>
						<g id="kvg:05725-g6" kvg:position="right">
							<path d="M63.4,63c1.29,1.29,1.54,2.37,1.54,4.48c0,2.44-0.0436,5.36-0.0436,8.25c0,4.72,1.63,7.18,14.7,7.18c7.89,0,13.5-1.6,14.6-2.09" id="kvg:05725-s5" kvg:type="㇄"></path>
						</g>
					</g>
				</g>
			</g>
		</g>
	</g>
	<g id="kvg:StrokeNumbers_05725" style="font-size:8;fill:#808080" xmlns:kvg="http://kanjivg.tagaini.net">
		<text transform="matrix(1 0 0 1 17.9 42.5)">1</text>
		<text transform="matrix(1 0 0 1 38.1 23.6)">2</text>
		<text transform="matrix(1 0 0 1 12.1 59.9)">3</text>
		<text transform="matrix(1 0 0 1 28 77.8)">4</text>
		<text transform="matrix(1 0 0 1 54.1 73.3)">5</text>
	</g>
</svg>