<svg height="109" viewbox="0 0 109 109" width="109" xmlns="http://www.w3.org/2000/svg">
	<g id="kvg:StrokePaths_058f4" style="fill:none;stroke:#000000;stroke-width:3;stroke-linecap:round;stroke-linejoin:round;" xmlns:kvg="http://kanjivg.tagaini.net">
		<g id="kvg:058f4" kvg:element="壴">
			<g id="kvg:058f4-g1" kvg:element="吉" kvg:position="top">
				<g id="kvg:058f4-g2" kvg:element="士" kvg:original="土" kvg:position="top" kvg:radical="nelson" kvg:variant="true">
					<path d="M30.4,32.3c2.71,0.557,5.66,0.327,8.18-0.0121c9.54-1.24,23-3.04,33.2-3.8c2.6-0.194,5.28-0.557,7.86-0.0121" id="kvg:058f4-s1" kvg:type="㇐"></path>
					<path d="M52.8,16.7c0.972,1.2,1.51,2.57,1.51,4.42c0,3.74-0.158,15.1-0.158,21.7" id="kvg:058f4-s2" kvg:type="㇑a"></path>
					<path d="M37.2,45.7c2.14,0.388,4.04,0.424,5.84,0.0969c7.59-1.37,14.6-2.3,24.4-3.11c1.91-0.157,3.89-0.46,5.8-0.109" id="kvg:058f4-s3" kvg:type="㇐"></path>
				</g>
				<g id="kvg:058f4-g3" kvg:element="口" kvg:position="bottom">
					<path d="M35.3,55.6c0.883,0.63,1.41,1.89,1.57,3.17c0.918,3.14,1.74,7.79,2.41,12c0.196,1.2,0.373,2.36,0.549,3.45" id="kvg:058f4-s4" kvg:type="㇑"></path>
					<path d="M37.7,57c8.18-1.19,22.9-2.89,29.6-3.65c4.05-0.448,5.15,1.67,4.36,4.58c-0.891,3.25-1.41,5.27-3.37,10.4" id="kvg:058f4-s5" kvg:type="㇕b"></path>
					<path d="M40.5,72c4.82-0.436,17.8-2.12,26.1-2.93c1.51-0.145,2.87-0.266,3.99-0.351" id="kvg:058f4-s6" kvg:type="㇐b"></path>
				</g>
			</g>
			<g id="kvg:058f4-g4" kvg:position="bottom">
				<path d="M34.2,77.7c2.45,2.06,6.32,8.48,6.93,11.7" id="kvg:058f4-s7" kvg:type="㇔"></path>
				<path d="M71.1,73.8c0.0196,0.363,0.0392,0.92-0.0392,1.44c-0.392,2.56-2.83,7.68-5.62,11.7" id="kvg:058f4-s8" kvg:type="㇒"></path>
				<path d="M14.3,94.4c3.92,0.666,7.06,0.557,10.2,0.218c13.9-1.55,45.6-5.16,62-6.3c2.89-0.194,6.12-0.315,8.99,0.436" id="kvg:058f4-s9" kvg:type="㇐"></path>
			</g>
		</g>
	</g>
	<g id="kvg:StrokeNumbers_058f4" style="font-size:8;fill:#808080" xmlns:kvg="http://kanjivg.tagaini.net">
		<text transform="matrix(1 0 0 1 23.8 34.4)">1</text>
		<text transform="matrix(1 0 0 1 44 18)">2</text>
		<text transform="matrix(1 0 0 1 30.2 47.6)">3</text>
		<text transform="matrix(1 0 0 1 29.2 60.9)">4</text>
		<text transform="matrix(1 0 0 1 40 54.2)">5</text>
		<text transform="matrix(1 0 0 1 43 68.2)">6</text>
		<text transform="matrix(1 0 0 1 27.2 81.1)">7</text>
		<text transform="matrix(1 0 0 1 62.6 80.3)">8</text>
		<text transform="matrix(1 0 0 1 6.65 95.4)">9</text>
	</g>
</svg>