<svg height="109" viewbox="0 0 109 109" width="109" xmlns="http://www.w3.org/2000/svg">
	<g id="kvg:StrokePaths_05917" style="fill:none;stroke:#000000;stroke-width:3;stroke-linecap:round;stroke-linejoin:round;" xmlns:kvg="http://kanjivg.tagaini.net">
		<g id="kvg:05917" kvg:element="夗">
			<g id="kvg:05917-g1" kvg:element="夗" kvg:position="bottom">
				<g id="kvg:05917-g2" kvg:element="夕" kvg:position="left">
					<path d="M36.4,16.1c0.142,1.21-0.12,2.43-0.447,3.6C33.6,27.7,26.3,41.6,17.6,50.8" id="kvg:05917-s1" kvg:type="㇒"></path>
					<path d="M35.9,25.8c1.22,0.251,2.42,0.218,3.61-0.0763c2.74-0.48,6.55-1.29,9.84-2.05c2.78-0.643,3.54,1.08,2.74,3.51C45.6,46.6,33.8,67.2,14,80.8" id="kvg:05917-s2" kvg:type="㇇"></path>
					<path d="M27.4,44.3c3.29,1.65,7.95,6.22,8.76,8.79" id="kvg:05917-s3" kvg:type="㇔"></path>
				</g>
				<g id="kvg:05917-g3" kvg:element="卩" kvg:position="right">
					<path d="M60.7,23.1c1.09,0.818,2.68,0.818,4.05,0.621c4.52-0.621,15.3-2.15,17.1-2.62c2.74-0.698,4.5,1.23,4.39,4.05c-0.185,4.79-3.66,17.3-7.25,24.9c-2.62,5.55-5.77,0.676-6.27,0.403" id="kvg:05917-s4" kvg:type="㇆"></path>
					<path d="M61.4,23.8c1.06,1.06,1.07,1.96,1.07,3.22c0,15.4-0.0981,26.5-0.0981,34.3c0,14.2,1.09,15.4,17,15.4c17.5,0,18.4-1.32,18.4-12.8" id="kvg:05917-s5" kvg:type="㇟/㇑"></path>
				</g>
			</g>
		</g>
	</g>
	<g id="kvg:StrokeNumbers_05917" style="font-size:8;fill:#808080" xmlns:kvg="http://kanjivg.tagaini.net">
		<text transform="matrix(1 0 0 1 27.9 17.1)">1</text>
		<text transform="matrix(1 0 0 1 41 21.4)">2</text>
		<text transform="matrix(1 0 0 1 31.2 44.3)">3</text>
		<text transform="matrix(1 0 0 1 64.7 20.3)">4</text>
		<text transform="matrix(1 0 0 1 53.8 37.8)">5</text>
	</g>
</svg>