<svg height="109" viewbox="0 0 109 109" width="109" xmlns="http://www.w3.org/2000/svg">
	<g id="kvg:StrokePaths_05c70" style="fill:none;stroke:#000000;stroke-width:3;stroke-linecap:round;stroke-linejoin:round;" xmlns:kvg="http://kanjivg.tagaini.net">
		<g id="kvg:05c70" kvg:element="屰">
			<g id="kvg:05c70-g1" kvg:element="屰" kvg:phon="1+4+2+屮" kvg:position="nyoc">
				<path d="M31.5,18.1c3.67,2.43,8.73,8.11,10.4,13.8" id="kvg:05c70-s1" kvg:type="㇔"></path>
				<path d="M68.4,15.2c0.0688,0.975-0.149,2.02-0.551,2.9c-2.01,4.46-5.55,9.75-11.4,16.4" id="kvg:05c70-s2" kvg:type="㇒"></path>
				<path d="M25,40.6c3.16,0.562,5.62,0.367,8.19-0.0688c10.7-1.81,30.1-4.41,39.7-5.55c2.44-0.287,5.05-0.562,7.43,0.0229" id="kvg:05c70-s3" kvg:type="㇐"></path>
				<g id="kvg:05c70-g2" kvg:element="屮">
					<g id="kvg:05c70-g3" kvg:element="凵">
						<path d="M32.2,53.4c0.861,0.861,1.12,2.51,0.861,4.16c-0.769,4.77-1.39,11.3-1.59,13.6c-0.161,1.77,0.275,3.02,2.05,2.58c12.1-2.95,25.9-5.53,38.2-6.28" id="kvg:05c70-s4" kvg:type="㇗a"></path>
						<path d="M73.3,45.8c0.929,0.929,1.18,2.11,1.15,3.28c-0.0918,2.7-0.631,10.4-1.15,16.9c-0.195,2.43-0.379,4.69-0.539,6.45" id="kvg:05c70-s5" kvg:type="㇑"></path>
					</g>
					<g id="kvg:05c70-g4" kvg:element="丿">
						<path d="M52.3,40.9C53.3,41.9,54,43.6,54,45.2c0,31.4-2.01,39.9-12.1,50.7" id="kvg:05c70-s6" kvg:type="㇒"></path>
					</g>
				</g>
			</g>
		</g>
	</g>
	<g id="kvg:StrokeNumbers_05c70" style="font-size:8;fill:#808080" xmlns:kvg="http://kanjivg.tagaini.net">
		<text transform="matrix(1 0 0 1 24.7 18.9)">1</text>
		<text transform="matrix(1 0 0 1 58 15.5)">2</text>
		<text transform="matrix(1 0 0 1 16.7 43)">3</text>
		<text transform="matrix(1 0 0 1 23.6 54.5)">4</text>
		<text transform="matrix(1 0 0 1 64.9 51.8)">5</text>
		<text transform="matrix(1 0 0 1 44.5 50.1)">6</text>
	</g>
</svg>