<svg height="109" viewbox="0 0 109 109" width="109" xmlns="http://www.w3.org/2000/svg">
	<g id="kvg:StrokePaths_08080" style="fill:none;stroke:#000000;stroke-width:3;stroke-linecap:round;stroke-linejoin:round;" xmlns:kvg="http://kanjivg.tagaini.net">
		<g id="kvg:08080" kvg:element="肀">
			<g id="kvg:08080-g1" kvg:element="⺕" kvg:original="彑" kvg:variant="true">
				<path d="M27.2,25.5c2.5,0.25,3.2,0.66,5.5,0.5c10.5-0.75,32-3.75,42-4.25c3.25-0.16,5.47,1.22,5,3.75c-0.75,4-2.25,9.75-4,21" id="kvg:08080-s1" kvg:type="㇕c"></path>
				<path d="M15,38.8c2.25,0.5,4.01,0.73,6.5,0.5c21.8-2,48.2-5.5,65.5-6.25c2.76-0.12,5,0.5,6.25,0.75" id="kvg:08080-s2" kvg:type="㇐"></path>
				<path d="M28.2,51.8c1.25,0.25,3.51,0.39,5,0.25C47,50.8,61,49.5,73.5,48.2c1.99-0.2,3.25,0,4.75,0.25" id="kvg:08080-s3" kvg:type="㇐"></path>
			</g>
			<g id="kvg:08080-g2" kvg:element="丨">
				<path d="M52.1,10.5c1.09,0.5,1.74,2.25,1.96,3.25c0.22,1,0,79.8-0.22,86" id="kvg:08080-s4" kvg:type="㇑"></path>
			</g>
		</g>
	</g>
	<g id="kvg:StrokeNumbers_08080" style="font-size:8;fill:#808080" xmlns:kvg="http://kanjivg.tagaini.net">
		<text transform="matrix(1 0 0 1 20.2 26.2)">1</text>
		<text transform="matrix(1 0 0 1 7.25 40.2)">2</text>
		<text transform="matrix(1 0 0 1 20 53.2)">3</text>
		<text transform="matrix(1 0 0 1 43.2 11.2)">4</text>
	</g>
</svg>