<svg height="109" viewbox="0 0 109 109" width="109" xmlns="http://www.w3.org/2000/svg">
	<g id="kvg:StrokePaths_096ba" style="fill:none;stroke:#000000;stroke-width:3;stroke-linecap:round;stroke-linejoin:round;" xmlns:kvg="http://kanjivg.tagaini.net">
		<g id="kvg:096ba" kvg:element="隺">
			<g id="kvg:096ba-g1" kvg:element="寉" kvg:original="隺" kvg:phon="寉" kvg:position="right" kvg:variant="true">
				<g id="kvg:096ba-g2" kvg:element="宀" kvg:position="top" partial="true">
					<g id="kvg:096ba-g3" kvg:element="冖">
						<path d="M28.3,30.1c0,3.79-3.51,14.2-5.12,16.8" id="kvg:096ba-s1" kvg:type="㇔"></path>
						<path d="M29.9,32.4c13.1-1.33,40.8-4.35,49.5-4.74c13.6-0.6,3.76,6.81-0.515,10" id="kvg:096ba-s2" kvg:type="㇖b"></path>
					</g>
				</g>
				<g id="kvg:096ba-g4" kvg:element="隹" kvg:position="bottom">
					<g id="kvg:096ba-g5" kvg:element="亻" kvg:original="人" kvg:variant="true">
						<path d="M54.1,12.5c0.606,1.22,0.606,2.73,0.172,4.33C50.1,32.2,40,52.9,22.6,68.8" id="kvg:096ba-s3" kvg:type="㇒"></path>
						<path d="M34.4,58.9c0.95,0.785,1.32,2.15,1.32,3.37c0,8.93-0.0132,26.5-0.0264,37.2c0,3.68,0,6.54,0,7.9" id="kvg:096ba-s4" kvg:type="㇑"></path>
					</g>
					<path d="M64.7,40.3c0.0791,0.687-0.0132,1.58-0.251,2.17c-1.52,3.74-3.42,6.63-6.89,11.2" id="kvg:096ba-s5" kvg:type="㇒"></path>
					<path d="M35.9,56.9c8.01-0.512,28.8-1.99,39.5-2.88c3.05-0.251,5.28-0.447,6.16-0.567" id="kvg:096ba-s6" kvg:type="㇐b"></path>
					<path d="M57.4,58.1c1.19,0.981,2.12,2.31,2.12,4c0,9.61,0.0791,27.9,0.0791,35.5" id="kvg:096ba-s7" kvg:type="㇑a"></path>
					<path d="M37.6,71.3c7.04-0.632,26.4-1.86,36-2.56c2.5-0.185,4.33-0.327,5.12-0.414" id="kvg:096ba-s8" kvg:type="㇐b"></path>
					<path d="M37.1,84.7c7.49-0.534,27.4-1.85,37.1-2.55c2.44-0.174,4.25-0.305,5.05-0.382" id="kvg:096ba-s9" kvg:type="㇐b"></path>
					<path d="M37,99.6c8.94-0.283,30.7-1.05,43.2-1.74c3.51-0.196,6.04-0.36,6.92-0.469" id="kvg:096ba-s10" kvg:type="㇐b"></path>
				</g>
			</g>
		</g>
	</g>
	<g id="kvg:StrokeNumbers_096ba" style="font-size:8;fill:#808080" xmlns:kvg="http://kanjivg.tagaini.net">
		<text transform="matrix(1 0 0 1 20 27.8)">1</text>
		<text transform="matrix(1 0 0 1 33.2 28.9)">2</text>
		<text transform="matrix(1 0 0 1 43.6 12.5)">3</text>
		<text transform="matrix(1 0 0 1 26.2 73.7)">4</text>
		<text transform="matrix(1 0 0 1 49.9 39.8)">5</text>
		<text transform="matrix(1 0 0 1 44.1 52.5)">6</text>
		<text transform="matrix(1 0 0 1 63.5 63.8)">7</text>
		<text transform="matrix(1 0 0 1 41 67)">8</text>
		<text transform="matrix(1 0 0 1 41 81.2)">9</text>
		<text transform="matrix(1 0 0 1 41 96.6)">10</text>
	</g>
</svg>