<svg height="109" viewbox="0 0 109 109" width="109" xmlns="http://www.w3.org/2000/svg">
	<g id="kvg:StrokePaths_2099d" style="fill:none;stroke:#000000;stroke-width:3;stroke-linecap:round;stroke-linejoin:round;" xmlns:kvg="http://kanjivg.tagaini.net">
		<g id="kvg:2099d" kvg:element="𠦝">
			<g id="kvg:2099d-g1" kvg:element="𠦝" kvg:position="left">
				<g id="kvg:2099d-g2" kvg:element="十" kvg:position="top">
					<path d="M32.3,31.5c2.37,0.383,5.48,0.351,7.1,0.124c9.27-1.27,23.2-2.95,31.2-3.48c2.02-0.134,5.47-0.702,7.44-0.0723" id="kvg:2099d-s1" kvg:type="㇐"></path>
					<path d="M53.7,15.6c1.39,1.03,2.22,2.58,2.22,3.83c0,0.702,0.252,16.8,0.152,21.2" id="kvg:2099d-s2" kvg:type="㇑a"></path>
				</g>
				<g id="kvg:2099d-g3" kvg:element="早" kvg:position="bottom">
					<g id="kvg:2099d-g4" kvg:element="日">
						<path d="M33.4,43.2c1.55,0.836,2.54,2.21,2.77,3.43c0.909,4.53,3.94,19.5,3.94,19.9c0,0.413,0.164,1.45,0.328,2.27" id="kvg:2099d-s3" kvg:type="㇑"></path>
						<path d="M37.1,44.1c10.3-1.36,30.3-3.56,36.6-3.95c2.6-0.166,4.33,1.3,3.97,3.83C77.2,48.7,75.3,57.7,74.1,62.8c-0.228,0.918-0.618,2.68-0.618,3.3" id="kvg:2099d-s4" kvg:type="㇕a"></path>
						<path d="M39.8,55.5c8.21-0.909,29-3.36,34.9-3.77" id="kvg:2099d-s5" kvg:type="㇐a"></path>
						<path d="M41.9,66.4c8.66-0.775,21.5-2.32,30.4-3.04" id="kvg:2099d-s6" kvg:type="㇐a"></path>
					</g>
					<g id="kvg:2099d-g5" kvg:element="十">
						<path d="M23.7,81.1c2.67,0.775,6.62,0.805,8.82,0.517C50.1,79.2,64.6,77,77.4,76.2c2.28-0.134,5.82-0.196,6.95,0.0619" id="kvg:2099d-s7" kvg:type="㇐"></path>
						<path d="M54.7,67.5c1.4,1.14,1.9,2.58,1.9,4.08c0,5.73-0.0127,16.7-0.101,25.7c-0.0252,2.14-0.0378,3.8-0.0631,4.64" id="kvg:2099d-s8" kvg:type="㇑"></path>
					</g>
				</g>
			</g>
		</g>
	</g>
	<g id="kvg:StrokeNumbers_2099d" style="font-size:8;fill:#808080" xmlns:kvg="http://kanjivg.tagaini.net">
		<text transform="matrix(1 0 0 1 24.2 31.9)">1</text>
		<text transform="matrix(1 0 0 1 44.1 16.4)">2</text>
		<text transform="matrix(1 0 0 1 26.7 52.5)">3</text>
		<text transform="matrix(1 0 0 1 36.5 40.8)">4</text>
		<text transform="matrix(1 0 0 1 44.1 52.5)">5</text>
		<text transform="matrix(1 0 0 1 44.1 64)">6</text>
		<text transform="matrix(1 0 0 1 15.4 81.1)">7</text>
		<text transform="matrix(1 0 0 1 45.9 76.4)">8</text>
	</g>
</svg>