<svg height="109" viewbox="0 0 109 109" width="109" xmlns="http://www.w3.org/2000/svg">
	<g id="kvg:StrokePaths_26c29" style="fill:none;stroke:#000000;stroke-width:3;stroke-linecap:round;stroke-linejoin:round;" xmlns:kvg="http://kanjivg.tagaini.net">
		<g id="kvg:26c29" kvg:element="𦰩">
			<g id="kvg:26c29-g1" kvg:phon="𦰩" kvg:position="right">
				<g id="kvg:26c29-g2" kvg:element="艹" kvg:original="艸" kvg:position="top" kvg:variant="true">
					<path d="M30.6,23.3c2,0.54,5.08,0.53,7.07,0.27C49.5,22,65.8,20.3,77.7,19.6c3.32-0.2,5.57,0.23,7.24,0.5" id="kvg:26c29-s1" kvg:type="㇐"></path>
					<path d="M43.9,13.2c1.28,0.76,1.96,1.77,2.17,2.86c1.24,6.52,1.74,10.3,2.13,12.7" id="kvg:26c29-s2" kvg:type="㇑a"></path>
					<path d="M65.9,9.75c0.62,1.12,1,2.52,0.63,4.18c-1.13,5.19-1.38,6.69-2.62,12.9" id="kvg:26c29-s3" kvg:type="㇑a"></path>
				</g>
				<g id="kvg:26c29-g3" kvg:position="bottom">
					<g id="kvg:26c29-g4" kvg:element="口">
						<path d="M36.5,33.7c0.77,0.77,1.54,1.65,1.73,2.54c0.82,3.88,1.52,7.8,2.23,11.8c0.18,1.01,0.36,2.02,0.54,3.02" id="kvg:26c29-s4" kvg:type="㇑"></path>
						<path d="M39.1,35.3c9.5-1.3,26.9-3.37,33.9-4.12c2.88-0.31,4.83-0.11,3.87,3.11c-0.97,3.28-1.83,6.85-3.21,11.1" id="kvg:26c29-s5" kvg:type="㇕b"></path>
						<path d="M42.2,49.6c5.06-0.4,19.5-1.97,29.3-3.03c1.43-0.15,2.77-0.3,3.96-0.43" id="kvg:26c29-s6" kvg:type="㇐b"></path>
					</g>
					<g id="kvg:26c29-g5" kvg:element="夫">
						<path d="M38.3,59.5c1.39,0.45,3.94,0.58,5.33,0.45c6.04-0.55,21-2.17,27.9-2.69c2.31-0.17,3.71,0.21,4.87,0.44" id="kvg:26c29-s7" kvg:type="㇐"></path>
						<g id="kvg:26c29-g6" kvg:element="大">
							<path d="M31.8,72.2c1.62,0.37,4.58,0.45,6.2,0.37c8.01-0.38,27.7-2.99,41.2-3.49c2.69-0.1,4.31,0.18,5.66,0.36" id="kvg:26c29-s8" kvg:type="㇐"></path>
							<path d="M56.1,34.8c0.48,0.95,0.91,2.34,0.91,4.18c0,44-7.39,48.3-27.8,57.5" id="kvg:26c29-s9" kvg:type="㇒"></path>
							<path d="M55.5,72c8,5.75,18.2,15.1,25.7,19.4c2.42,1.38,4.26,2.24,5.89,2.74" id="kvg:26c29-s10" kvg:type="㇏"></path>
						</g>
					</g>
				</g>
			</g>
		</g>
	</g>
	<g id="kvg:StrokeNumbers_26c29" style="font-size:8;fill:#808080" xmlns:kvg="http://kanjivg.tagaini.net">
		<text transform="matrix(1 0 0 1 30 20.5)">1</text>
		<text transform="matrix(1 0 0 1 36 12.5)">2</text>
		<text transform="matrix(1 0 0 1 57 8.5)">3</text>
		<text transform="matrix(1 0 0 1 31 42.5)">4</text>
		<text transform="matrix(1 0 0 1 40.2 31.5)">5</text>
		<text transform="matrix(1 0 0 1 44 46.6)">6</text>
		<text transform="matrix(1 0 0 1 29 59.1)">7</text>
		<text transform="matrix(1 0 0 1 29.8 69.2)">8</text>
		<text transform="matrix(1 0 0 1 47 41.5)">9</text>
		<text transform="matrix(1 0 0 1 67 78.5)">10</text>
	</g>
</svg>