<svg height="109" viewbox="0 0 109 109" width="109" xmlns="http://www.w3.org/2000/svg">
	<g id="kvg:StrokePaths_27607" style="fill:none;stroke:#000000;stroke-width:3;stroke-linecap:round;stroke-linejoin:round;" xmlns:kvg="http://kanjivg.tagaini.net">
		<g id="kvg:27607" kvg:element="𧘇">
			<g id="kvg:27607-g1" kvg:position="bottom">
				<path d="M50.9,24.7c0,1.21-0.153,2.45-0.741,3.7C46.4,36.4,32.7,52.1,15.1,63.7" id="kvg:27607-s1" kvg:type="㇒"></path>
				<path d="M40.9,46.3c0.959,0.959,1.36,2.31,1.36,3.82c0,12.9,0.196,34,0.196,36.2c0,3.06,1.1,3.29,3.61,1.14c4.77-4.08,14.9-12.4,16.9-13.9" id="kvg:27607-s2" kvg:type="㇙"></path>
				<path d="M83.9,30.1c0.273,1.21-0.0436,2.14-0.818,3.12c-3.82,4.77-8.72,8.99-19.8,16.6" id="kvg:27607-s3" kvg:type="㇒"></path>
				<path d="M50.4,43.1c4.07,0.687,27.8,23,39.9,31.2c3.59,2.45,6.87,4.44,11.1,5.82" id="kvg:27607-s4" kvg:type="㇏"></path>
			</g>
		</g>
	</g>
	<g id="kvg:StrokeNumbers_27607" style="font-size:8;fill:#808080" xmlns:kvg="http://kanjivg.tagaini.net">
		<text transform="matrix(1 0 0 1 40.5 32.1)">1</text>
		<text transform="matrix(1 0 0 1 34.4 58.9)">2</text>
		<text transform="matrix(1 0 0 1 86.3 32.9)">3</text>
		<text transform="matrix(1 0 0 1 52.4 41.6)">4</text>
	</g>
</svg>