<svg height="109" viewbox="0 0 109 109" width="109" xmlns="http://www.w3.org/2000/svg">
	<g id="kvg:StrokePaths_apron" style="fill:none;stroke:#000000;stroke-width:3;stroke-linecap:round;stroke-linejoin:round;" xmlns:kvg="http://kanjivg.tagaini.net">
		<g id="kvg:apron" kvg:element="apron">
			<g id="kvg:apron-g1" kvg:position="top">
				<g id="kvg:apron-g2" kvg:element="冖">
					<path d="M20.5,25.3c-0.1,4.38-2.45,15.8-3.29,18.4" id="kvg:apron-s1" kvg:type="㇔"></path>
					<path d="M21.2,28.2c14.8-2.13,48.2-7,66-7c12.1,0,3.81,5.25-0.69,9" id="kvg:apron-s2" kvg:type="㇖b"></path>
				</g>
			</g>
			<g id="kvg:apron-g3" kvg:element="巾" kvg:position="bottom" kvg:radical="tradit">
				<path d="M33.3,42.6c0.84,0.84,1.15,2,1.15,3.45c0,3.28,0.07,13.9,0,21c-0.02,2.45-0.05,4.46-0.08,5.54" id="kvg:apron-s3" kvg:type="㇑"></path>
				<path d="M35,44.2c4.54-0.7,37.2-4.83,39.8-5.01c2.7-0.19,3.7,1.4,3.7,4.51c0,9.42,0.24,15.8-1.4,23.9c-1.12,5.51-4.71,0.75-6.22-1.13" id="kvg:apron-s4" kvg:type="㇆a"></path>
				<path d="M54.2,30.4c0.83,0.83,1.14,2.08,1.14,3.7c0,0.55-0.11,29.6-0.11,43.6c0,2.38-0.05,6.02-0.07,6.88" id="kvg:apron-s5" kvg:type="㇑"></path>
			</g>
		</g>
	</g>
	<g id="kvg:StrokeNumbers_apron" style="font-size:8;fill:#808080" xmlns:kvg="http://kanjivg.tagaini.net">
		<text transform="matrix(1 0 0 1 13.5 28.8)">1</text>
		<text transform="matrix(1 0 0 1 24.5 24.8)">2</text>
		<text transform="matrix(1 0 0 1 25.5 49.8)">3</text>
		<text transform="matrix(1 0 0 1 35.5 40.4)">4</text>
		<text transform="matrix(1 0 0 1 44.2 33.8)">5</text>
	</g>
</svg>