<svg height="109" viewbox="0 0 109 109" width="109" xmlns="http://www.w3.org/2000/svg">
	<g id="kvg:StrokePaths_banner" style="fill:none;stroke:#000000;stroke-width:3;stroke-linecap:round;stroke-linejoin:round;" xmlns:kvg="http://kanjivg.tagaini.net">
		<g id="kvg:banner" kvg:element="banner">
			<g id="kvg:banner-g1" kvg:element="方" kvg:position="left" kvg:radical="general">
				<g id="kvg:banner-g2" kvg:element="亠" kvg:position="top">
					<path d="M33.1,16.9c1.35,1.36,1.61,3,1.61,5.35c0,4.85-0.0981,8.27-0.0981,13.2" id="kvg:banner-s1" kvg:type="㇑a"></path>
					<path d="M14.2,38.6c2.39,0.153,4.57,0.392,6.95,0.0872c7.52-0.948,20.5-3.01,25.1-3.56C47.7,34.9,48.5,34.9,50.1,34.9" id="kvg:banner-s2" kvg:type="㇐"></path>
				</g>
				<g id="kvg:banner-g3" kvg:position="bottom">
					<path d="M34,52.3c3.63,1.09,3.9,0.818,8.13,2.3c2.08,0.73,2.76,1.86,2.64,4.75c-0.316,7.63-8.96,34.8-14.3,39.1C26.2,102,23.4,99.2,21.8,96.5" id="kvg:banner-s3" kvg:type="㇆a"></path>
					<path d="M35.2,41.1c0.251,1.77,0,2.77-0.403,4.23C31.6,56.8,26.2,72.1,11.6,85.3" id="kvg:banner-s4" kvg:type="㇒"></path>
				</g>
			</g>
			<g id="kvg:banner-g4" kvg:position="right">
				<g id="kvg:banner-g5" kvg:element="𠂉">
					<path d="M67.9,17.2c0.0981,1.54,0.0763,2.74-0.534,4.16c-3.3,7.7-7.52,15.9-15.1,25.5" id="kvg:banner-s5" kvg:type="㇒"></path>
					<path d="M65.4,32.7c2.18,0.131,4.08,0.0872,6.15-0.305C80.7,30.7,86.9,29.8,94.8,28.6c1.99-0.305,3.73-0.382,5.72,0.0218" id="kvg:banner-s6" kvg:type="㇐"></path>
				</g>
			</g>
		</g>
	</g>
	<g id="kvg:StrokeNumbers_banner" style="font-size:8;fill:#808080" xmlns:kvg="http://kanjivg.tagaini.net">
		<text transform="matrix(1 0 0 1 24.5 18.1)">1</text>
		<text transform="matrix(1 0 0 1 6 38.7)">2</text>
		<text transform="matrix(1 0 0 1 38.7 50.7)">3</text>
		<text transform="matrix(1 0 0 1 25.6 48.5)">4</text>
		<text transform="matrix(1 0 0 1 58.3 16.9)">5</text>
		<text transform="matrix(1 0 0 1 72.8 28.9)">6</text>
	</g>
</svg>