<svg height="109" viewbox="0 0 109 109" width="109" xmlns="http://www.w3.org/2000/svg">
	<g id="kvg:StrokePaths_cabbage" style="fill:none;stroke:#000000;stroke-width:3;stroke-linecap:round;stroke-linejoin:round;" xmlns:kvg="http://kanjivg.tagaini.net">
		<g id="kvg:cabbage" kvg:element="cabbage">
			<g id="kvg:cabbage-g1" kvg:element="菫" kvg:phon="菫V" kvg:position="left" kvg:variant="true">
				<g id="kvg:cabbage-g2" kvg:element="艹" kvg:original="艸" kvg:position="top" kvg:variant="true">
					<path d="M28,25.5c1.91,0.551,4.84,0.447,6.28,0.31c11.1-1.1,30.5-2.91,48-4c2.44-0.149,4.94-0.229,7.28,0.493" id="kvg:cabbage-s1" kvg:type="㇐"></path>
					<path d="M44.4,11.7c1.07,0.883,1.69,1.85,1.86,3.14c1.01,8.3,2.42,17.1,2.77,19.9" id="kvg:cabbage-s2" kvg:type="㇑a"></path>
					<path d="M72,9.84c0.86,1.3,1.07,2.79,0.723,4.14c-1.79,6.96-2.99,12.1-5.19,20.6" id="kvg:cabbage-s3" kvg:type="㇑a"></path>
				</g>
				<g id="kvg:cabbage-g3" kvg:position="bottom">
					<path d="M32.5,41.3c1.03,0.849,1.83,1.53,1.97,2.68c0.971,4.75,1.93,9.35,2.86,14.1c0.237,1.23,0.472,2.41,0.694,3.49" id="kvg:cabbage-s4" kvg:type="㇑"></path>
					<path d="M35.8,43c11.7-1.27,32.7-2.91,41.2-3.57c3.27-0.241,6.02,0.803,4.84,4.15c-1.32,3.79-2.56,6.36-4.46,10.7" id="kvg:cabbage-s5" kvg:type="㇕b"></path>
					<path d="M38.9,58.8c6.57-0.447,24.5-2.13,36-2.98c2.18-0.161,4.14-0.298,5.73-0.379" id="kvg:cabbage-s6" kvg:type="㇐b"></path>
					<path d="M56.6,43.8c1.39,1.15,2.04,2.58,2.04,4.02c0,1.17,0.0416,35,0.0416,44.7" id="kvg:cabbage-s7" kvg:type="㇑a"></path>
					<g id="kvg:cabbage-g4" kvg:element="三">
						<g id="kvg:cabbage-g5" kvg:element="一" kvg:position="top">
							<path d="M38.1,70.6c1.79,0.516,4.3,0.184,6.09,0.0574c6.85-0.505,18-1.7,27.1-2.94c2.3-0.321,4.86-0.482,7.11-0.379" id="kvg:cabbage-s8" kvg:type="㇐"></path>
						</g>
						<g id="kvg:cabbage-g6" kvg:position="bottom">
							<g id="kvg:cabbage-g7" kvg:element="一">
								<path d="M37.7,82.6c2.08,0.218,4.74,0.252,6.8,0.0574c8.57-0.838,16.9-2.15,27.1-3.66c1.69-0.252,3.64-0.528,5.35-0.229" id="kvg:cabbage-s9" kvg:type="㇐"></path>
							</g>
							<g id="kvg:cabbage-g8" kvg:element="一">
								<path d="M32.8,97.7c0.694,1.2,2.25,2.2,4.79,1.57c9.48-2.4,28.5-6.96,37.8-9.26" id="kvg:cabbage-s10" kvg:type="㇀/㇐"></path>
							</g>
						</g>
					</g>
				</g>
			</g>
		</g>
	</g>
	<g id="kvg:StrokeNumbers_cabbage" style="font-size:8;fill:#808080" xmlns:kvg="http://kanjivg.tagaini.net">
		<text transform="matrix(1 0 0 1 19.3 26.8)">1</text>
		<text transform="matrix(1 0 0 1 31.9 12.3)">2</text>
		<text transform="matrix(1 0 0 1 59.7 11.1)">3</text>
		<text transform="matrix(1 0 0 1 23.8 49)">4</text>
		<text transform="matrix(1 0 0 1 36 39.8)">5</text>
		<text transform="matrix(1 0 0 1 41.6 54.7)">6</text>
		<text transform="matrix(1 0 0 1 50 51.3)">7</text>
		<text transform="matrix(1 0 0 1 27.7 72)">8</text>
		<text transform="matrix(1 0 0 1 27.7 85.1)">9</text>
		<text transform="matrix(1 0 0 1 16.6 102)">10</text>
	</g>
</svg>