<svg height="109" viewbox="0 0 109 109" width="109" xmlns="http://www.w3.org/2000/svg">
	<g id="kvg:StrokePaths_hairpin" style="fill:none;stroke:#000000;stroke-width:3;stroke-linecap:round;stroke-linejoin:round;" xmlns:kvg="http://kanjivg.tagaini.net">
		<g id="kvg:hairpin" kvg:element="hairpin">
			<path d="M16.9,31.5c3.68,0.807,8.12,0.567,11.3,0.12c12.7-1.77,32.9-4.1,43.2-4.98c3.42-0.294,7.25-0.741,10.6,0.0872" id="kvg:hairpin-s1" kvg:type="㇐"></path>
			<path d="M26.9,35.2c1.22,1.22,1.52,2.73,1.52,5.45c0,12.9,0.0545,32.6,0.0545,34.8s1.8,3.42,4.08,1.79s12.5-10.8,16.1-13.7" id="kvg:hairpin-s2" kvg:type="㇙"></path>
			<path d="M67,34.5c0.0981,1.02-0.153,1.97-0.785,2.81c-2.09,2.76-5.19,5.25-10.9,8.99" id="kvg:hairpin-s3" kvg:type="㇒"></path>
			<path d="M36.5,38.5c8.26,2.29,27.9,21.4,39.6,29.7c3.35,2.35,6.62,4.81,12.5,6.85" id="kvg:hairpin-s4" kvg:type="㇏"></path>
		</g>
	</g>
	<g id="kvg:StrokeNumbers_hairpin" style="font-size:8;fill:#808080" xmlns:kvg="http://kanjivg.tagaini.net">
		<text transform="matrix(1 0 0 1 18.5 28.8)">1</text>
		<text transform="matrix(1 0 0 1 20.4 43.9)">2</text>
		<text transform="matrix(1 0 0 1 56.4 38.6)">3</text>
		<text transform="matrix(1 0 0 1 35.7 49.4)">4</text>
	</g>
</svg>