<svg height="109" viewbox="0 0 109 109" width="109" xmlns="http://www.w3.org/2000/svg">
	<g id="kvg:StrokePaths_mending" style="fill:none;stroke:#000000;stroke-width:3;stroke-linecap:round;stroke-linejoin:round;" xmlns:kvg="http://kanjivg.tagaini.net">
		<g id="kvg:mending" kvg:element="mending">
			<g id="kvg:mending-g1" kvg:element="疋" kvg:phon="正" kvg:position="bottom" kvg:variant="true">
				<path d="M29.4,24.9c2.96,0.48,5.84,0.371,8.85,0c7.13-0.894,26.2-3,30.9-3.35c3.72-0.273,5.62-0.273,8.35,0.414" id="kvg:mending-s1" kvg:type="㇐"></path>
				<g id="kvg:mending-g2" kvg:element="龰">
					<g id="kvg:mending-g3" kvg:element="卜" kvg:original="ト">
						<path d="M50.4,24.9c1,1,1.28,2.68,1.28,3.67c0,3.26,0.305,33.2,0.305,39.7" id="kvg:mending-s2" kvg:type="㇑a"></path>
						<path d="M52.3,46.8c6.69-0.807,13.5-1.62,21.2-2.61c1.84-0.24,3.41-0.24,4.58,0" id="kvg:mending-s3" kvg:type="㇐b"></path>
					</g>
					<g id="kvg:mending-g4" kvg:element="人">
						<path d="M32.4,41.1c0.0654,0.937,0.131,2.42-0.12,3.77c-1.53,7.95-9.69,23.8-21.7,34.5" id="kvg:mending-s4" kvg:type="㇒"></path>
						<path d="M27.6,58.8c7.76,3.23,39.8,17.5,51.9,22.4c3.75,1.52,7.47,2.59,11.5,3.03" id="kvg:mending-s5" kvg:type="㇏"></path>
					</g>
				</g>
			</g>
		</g>
	</g>
	<g id="kvg:StrokeNumbers_mending" style="font-size:8;fill:#808080" xmlns:kvg="http://kanjivg.tagaini.net">
		<text transform="matrix(1 0 0 1 26.3 20.9)">1</text>
		<text transform="matrix(1 0 0 1 43.4 36.6)">2</text>
		<text transform="matrix(1 0 0 1 57.3 43.1)">3</text>
		<text transform="matrix(1 0 0 1 23 43.1)">4</text>
		<text transform="matrix(1 0 0 1 36.1 60.5)">5</text>
	</g>
</svg>