<svg height="109" viewbox="0 0 109 109" width="109" xmlns="http://www.w3.org/2000/svg">
	<g id="kvg:StrokePaths_quiver" style="fill:none;stroke:#000000;stroke-width:3;stroke-linecap:round;stroke-linejoin:round;" xmlns:kvg="http://kanjivg.tagaini.net">
		<g id="kvg:quiver" kvg:element="quiver">
			<g id="kvg:quiver-g1" kvg:element="一" kvg:radical="nelson">
				<path d="M19.2,25.9c1.61,0.49,4,0.49,5.63,0.29c4.77-0.6,7.5-1.35,14.1-2.29c1.55-0.22,2.5-0.11,3.29,0.03" id="kvg:quiver-s1" kvg:type="㇐"></path>
			</g>
			<g id="kvg:quiver-g2" kvg:element="弋" kvg:radical="tradit" part="1">
				<path d="M11.8,45.2c3.38,0.93,7.18,0.57,10.5,0.01c15.1-2.58,38.5-6.33,54.5-8.03c2.85-0.3,5.7-0.23,8.5,0.37" id="kvg:quiver-s2" kvg:type="㇐"></path>
			</g>
			<g id="kvg:quiver-g3" kvg:element="弋" kvg:radical="tradit" part="2">
				<path d="M50.2,12.8c1.19,1.19,1.92,2.48,2.25,6.25c2.25,25.8,8.25,57.8,30.2,73.8c7.05,5.13,6.75,0.75,5.75-7" id="kvg:quiver-s3" kvg:type="㇂"></path>
				<g id="kvg:quiver-g4" kvg:element="丶">
					<path d="M69.5,17.9c3.75,1.83,9.75,6,11.5,9.12" id="kvg:quiver-s4" kvg:type="㇔"></path>
				</g>
			</g>
		</g>
	</g>
	<g id="kvg:StrokeNumbers_quiver" style="font-size:8;fill:#808080" xmlns:kvg="http://kanjivg.tagaini.net">
		<text transform="matrix(1 0 0 1 12.5 27.5)">1</text>
		<text transform="matrix(1 0 0 1 4.5 46.5)">2</text>
		<text transform="matrix(1 0 0 1 41.5 12.5)">3</text>
		<text transform="matrix(1 0 0 1 62.5 17.5)">4</text>
	</g>
</svg>