<svg height="109" viewbox="0 0 109 109" width="109" xmlns="http://www.w3.org/2000/svg">
	<g id="kvg:StrokePaths_schoolhouse" style="fill:none;stroke:#000000;stroke-width:3;stroke-linecap:round;stroke-linejoin:round;" xmlns:kvg="http://kanjivg.tagaini.net">
		<g id="kvg:schoolhouse" kvg:element="schoolhouse">
			<g id="kvg:schoolhouse-g1" kvg:position="top">
				<g id="kvg:schoolhouse-g2" kvg:element="⺍" kvg:original="つ">
					<path d="M28.6,21.2c4.03,3.23,8.34,8.88,8.92,10.5" id="kvg:schoolhouse-s1" kvg:type="㇔"></path>
					<path d="M48.5,16.1c1.88,2.31,6.4,8.37,7.15,12.1" id="kvg:schoolhouse-s2" kvg:type="㇔"></path>
					<path d="M79.4,14c0.45,0.88,0.33,1.99-0.22,3c-1.08,2-5.33,8.5-8.54,13" id="kvg:schoolhouse-s3" kvg:type="㇒"></path>
				</g>
				<g id="kvg:schoolhouse-g3" kvg:element="冖">
					<path d="M19.9,39.4c0,3.25-3.52,15.5-4.88,17.6" id="kvg:schoolhouse-s4" kvg:type="㇔"></path>
					<path d="M20.4,42.8c21.5-2.62,45.5-4.38,66.6-5.5c9.35-0.5,6.48,5.12,0.06,10" id="kvg:schoolhouse-s5" kvg:type="㇖b"></path>
				</g>
			</g>
		</g>
	</g>
	<g id="kvg:StrokeNumbers_schoolhouse" style="font-size:8;fill:#808080" xmlns:kvg="http://kanjivg.tagaini.net">
		<text transform="matrix(1 0 0 1 20 19.6)">1</text>
		<text transform="matrix(1 0 0 1 38.2 13.6)">2</text>
		<text transform="matrix(1 0 0 1 81.5 10.5)">3</text>
		<text transform="matrix(1 0 0 1 9.75 42.1)">4</text>
		<text transform="matrix(1 0 0 1 26.2 37.6)">5</text>
	</g>
</svg>