<svg height="109" viewbox="0 0 109 109" width="109" xmlns="http://www.w3.org/2000/svg">
	<g id="kvg:StrokePaths_siesta" style="fill:none;stroke:#000000;stroke-width:3;stroke-linecap:round;stroke-linejoin:round;" xmlns:kvg="http://kanjivg.tagaini.net">
		<g id="kvg:siesta" kvg:element="siesta">
			<g id="kvg:siesta-g1" kvg:element="曷" kvg:phon="曷" kvg:position="right" kvg:variant="true">
				<g id="kvg:siesta-g2" kvg:element="日" kvg:position="top">
					<path d="M29.7,15.1c1.08,0.903,1.1,1.93,1.25,3.23s1.93,15.4,2.57,20.6c0.174,1.51,0.449,3.01,0.611,3.89" id="kvg:siesta-s1" kvg:type="㇑"></path>
					<path d="M32.1,16.2c4.27-0.509,22-2.6,30.5-3.38c5.15-0.478,8.59-0.208,7.81,4.83c-0.984,6.39-2.27,12.7-3.48,19.3c-0.274,1.47-0.548,2.96-0.81,4.46" id="kvg:siesta-s2" kvg:type="㇕a"></path>
					<path d="M33.8,28.5C42,27.5,59.8,25.6,67.7,25.4" id="kvg:siesta-s3" kvg:type="㇐a"></path>
					<path d="M35.2,40.9c10-0.758,19.7-1.8,29.8-2.41" id="kvg:siesta-s4" kvg:type="㇐a"></path>
				</g>
				<g id="kvg:siesta-g3" kvg:element="匂" kvg:position="bottom">
					<g id="kvg:siesta-g4" kvg:element="勹">
						<g id="kvg:siesta-g5" kvg:element="丿">
							<path d="M39.6,44.1c0.0623,0.644,0.287,1.71-0.125,2.61c-3.01,6.64-8.94,14.1-20.4,22.6" id="kvg:siesta-s5" kvg:type="㇒"></path>
						</g>
						<path d="M39.3,53.3c3.01,0.55,6.11,0.394,8.46,0.0727c6.59-0.893,21.1-2.76,28.1-3.56c7.15-0.82,8.58,0.799,8.03,5.85c-0.91,8.17-4.18,24.8-10.5,37.5c-3.62,7.31-6.54,9.35-12,4.42" id="kvg:siesta-s6" kvg:type="㇆"></path>
					</g>
					<g id="kvg:siesta-g6" kvg:element="人">
						<g id="kvg:siesta-g7" kvg:element="匕">
							<path d="M59.8,62.9c0,1.06-0.598,1.84-1.69,2.61c-3.95,2.79-12.2,6.15-23.3,8.89" id="kvg:siesta-s7" kvg:type="㇒"></path>
							<path d="M30.5,64.7c1.02,0.851,1.4,2.15,1.4,3.3c0,2.77-0.0748,4.59-0.0748,9.35c0,6.35,2.02,7.86,15.5,7.86c13.4,0,15-1.25,15-7.07" id="kvg:siesta-s8" kvg:type="㇟"></path>
						</g>
					</g>
				</g>
			</g>
		</g>
	</g>
	<g id="kvg:StrokeNumbers_siesta" style="font-size:8;fill:#808080" xmlns:kvg="http://kanjivg.tagaini.net">
		<text transform="matrix(1 0 0 1 21.9 22.3)">1</text>
		<text transform="matrix(1 0 0 1 33.4 12.6)">2</text>
		<text transform="matrix(1 0 0 1 37.1 25)">3</text>
		<text transform="matrix(1 0 0 1 37.1 38.9)">4</text>
		<text transform="matrix(1 0 0 1 28.1 52.4)">5</text>
		<text transform="matrix(1 0 0 1 46.7 50.3)">6</text>
		<text transform="matrix(1 0 0 1 45.5 63.6)">7</text>
		<text transform="matrix(1 0 0 1 20.6 77.3)">8</text>
	</g>
</svg>