<svg height="109" viewbox="0 0 109 109" width="109" xmlns="http://www.w3.org/2000/svg">
	<g id="kvg:StrokePaths_silage" style="fill:none;stroke:#000000;stroke-width:3;stroke-linecap:round;stroke-linejoin:round;" xmlns:kvg="http://kanjivg.tagaini.net">
		<g id="kvg:silage" kvg:element="silage">
			<g id="kvg:silage-g1" kvg:element="千" part="1">
				<g id="kvg:silage-g2" kvg:element="十" part="1">
					<path d="M20.8,35.4c3,0.512,5.37,0.403,7.92,0.109c11.1-1.26,39.1-4.77,50-5.32c2.32-0.12,4.67-0.164,6.95,0.392" id="kvg:silage-s1" kvg:type="㇐"></path>
				</g>
			</g>
			<path d="M12.1,55.7c2.66,1.08,6.35,0.752,9.15,0.414c15.8-1.94,42.7-4.91,58.2-6.11c3.12-0.24,6.77-0.491,9.81,0.251" id="kvg:silage-s2" kvg:type="㇐"></path>
			<path d="M29,44.8c0.959,0.959,1.61,2.38,1.74,3.37C32.1,58.4,33.2,66.8,33.6,70.1" id="kvg:silage-s3" kvg:type="㇑a"></path>
			<path d="M75.3,39.9c0.392,1.22,0.382,2.19,0.0654,3.74C73.5,52.7,73,55.4,71,65.8" id="kvg:silage-s4" kvg:type="㇑a"></path>
			<g id="kvg:silage-g3" kvg:element="土" kvg:radical="tradit">
				<path d="M24.6,75.8c3.27,0.654,6.67,0.338,9.67-0.0545c11.3-1.47,30.6-3.38,41.1-3.97c3.02-0.174,6.16-0.153,9.13,0.578" id="kvg:silage-s5" kvg:type="㇐"></path>
				<g id="kvg:silage-g4" kvg:element="千" part="2">
					<g id="kvg:silage-g5" kvg:element="十" part="2">
						<path d="M50.8,21.6c1.22,1.22,1.64,2.86,1.64,4.36c0,1.12,0,55.9,0,66.8" id="kvg:silage-s6" kvg:type="㇑a"></path>
					</g>
				</g>
			</g>
		</g>
	</g>
	<g id="kvg:StrokeNumbers_silage" style="font-size:8;fill:#808080" xmlns:kvg="http://kanjivg.tagaini.net">
		<text transform="matrix(1 0 0 1 12.9 37)">1</text>
		<text transform="matrix(1 0 0 1 4.2 57.6)">2</text>
		<text transform="matrix(1 0 0 1 19.5 48.9)">3</text>
		<text transform="matrix(1 0 0 1 65.2 42.3)">4</text>
		<text transform="matrix(1 0 0 1 16.2 77.2)">5</text>
		<text transform="matrix(1 0 0 1 42.3 29.3)">6</text>
	</g>
</svg>