<svg height="109" viewbox="0 0 109 109" width="109" xmlns="http://www.w3.org/2000/svg">
	<g id="kvg:StrokePaths_staple_gun" style="fill:none;stroke:#000000;stroke-width:3;stroke-linecap:round;stroke-linejoin:round;" xmlns:kvg="http://kanjivg.tagaini.net">
		<g id="kvg:staple_gun" kvg:element="staple_gun">
			<g id="kvg:staple_gun-g1" kvg:phon="耑V" kvg:position="left">
				<path d="M66.9,11.7c0.12,1.14,0.0218,2.22-0.687,3.18C61.9,20.6,56.7,25.8,49.3,31.3" id="kvg:staple_gun-s1" kvg:type="㇒"></path>
				<path d="M46.2,31.5c0.959,0.959,1.32,2.45,1.32,3.82c0,4.93-0.0654,39.8-0.0872,60.6c0,2.22,0,4.28,0,6.13" id="kvg:staple_gun-s2" kvg:type="㇑"></path>
				<path d="M48.8,45.7c7.36-0.818,18-2.59,19.3-2.73c1.53-0.142,2.73-0.273,4.09,0" id="kvg:staple_gun-s3" kvg:type="㇐b"></path>
				<path d="M48.5,64.2c7.36-0.818,19.1-2.87,20.4-3c1.53-0.142,2.73-0.273,4.09,0" id="kvg:staple_gun-s4" kvg:type="㇐b"></path>
				<path d="M35.4,87.9c1.09,1.18,2.59,1.06,4.6,0.262c1.19-0.469,22.8-8.55,27.8-10.8" id="kvg:staple_gun-s5" kvg:type="㇀"></path>
			</g>
		</g>
	</g>
	<g id="kvg:StrokeNumbers_staple_gun" style="font-size:8;fill:#808080" xmlns:kvg="http://kanjivg.tagaini.net">
		<text transform="matrix(1 0 0 1 57.5 11)">1</text>
		<text transform="matrix(1 0 0 1 37.9 42)">2</text>
		<text transform="matrix(1 0 0 1 52.6 40.4)">3</text>
		<text transform="matrix(1 0 0 1 52.6 59.9)">4</text>
		<text transform="matrix(1 0 0 1 28.1 96)">5</text>
	</g>
</svg>