<svg height="109" viewbox="0 0 109 109" width="109" xmlns="http://www.w3.org/2000/svg">
	<g id="kvg:StrokePaths_staples" style="fill:none;stroke:#000000;stroke-width:3;stroke-linecap:round;stroke-linejoin:round;" xmlns:kvg="http://kanjivg.tagaini.net">
		<g id="kvg:staples" kvg:element="staples">
			<g id="kvg:staples-g1" kvg:position="left">
				<g id="kvg:staples-g2" kvg:element="丿">
					<path d="M68.8,17c0,1.6-0.769,3-1.76,3.96c-5.1,5.01-12.6,9.35-25.9,15.6" id="kvg:staples-s1" kvg:type="㇒"></path>
				</g>
				<g id="kvg:staples-g3" kvg:element="丨" kvg:radical="nelson">
					<path d="M37.4,38.2c1.13,1.13,1.87,3.05,1.87,4.81c0,3.9-0.18,30.2-0.256,44.6c-0.0128,3.35-0.0256,6.07-0.0256,7.69" id="kvg:staples-s2" kvg:type="㇑"></path>
				</g>
				<path d="M40.1,62.8c11.5-2.08,22.6-4.81,25-5.13c1.94-0.256,3.69-0.321,5.45,0" id="kvg:staples-s3" kvg:type="㇐b"></path>
				<path d="M39.8,91.7c11.4-2.41,24.9-5.13,27.6-5.45c1.68-0.192,3.69-0.321,5.39,0.0385" id="kvg:staples-s4" kvg:type="㇐b"></path>
			</g>
		</g>
	</g>
	<g id="kvg:StrokeNumbers_staples" style="font-size:8;fill:#808080" xmlns:kvg="http://kanjivg.tagaini.net">
		<text transform="matrix(1 0 0 1 58.7 14.7)">1</text>
		<text transform="matrix(1 0 0 1 29.2 49.4)">2</text>
		<text transform="matrix(1 0 0 1 46.2 57.1)">3</text>
		<text transform="matrix(1 0 0 1 46.2 85.3)">4</text>
	</g>
</svg>