<svg height="109" viewbox="0 0 109 109" width="109" xmlns="http://www.w3.org/2000/svg">
	<g id="kvg:StrokePaths_tool" style="fill:none;stroke:#000000;stroke-width:3;stroke-linecap:round;stroke-linejoin:round;" xmlns:kvg="http://kanjivg.tagaini.net">
		<g id="kvg:tool" kvg:element="tool">
			<g id="kvg:tool-g1" kvg:position="bottom">
				<path d="M14.3,44.3c3.63,0.965,7.05,0.727,10.4,0.446c19-1.61,45.8-3.37,64-4.19c3.19-0.145,6.33,0.0519,9.47,0.727" id="kvg:tool-s1" kvg:type="㇐"></path>
				<g id="kvg:tool-g2" kvg:element="八" kvg:radical="nelson">
					<g id="kvg:tool-g3" kvg:position="left">
						<path d="M42.8,53.8c0.145,1.18,0.0311,2.19-0.664,3.17c-3.49,4.86-10.4,11.3-20.6,17.4" id="kvg:tool-s2" kvg:type="㇒"></path>
					</g>
					<g id="kvg:tool-g4" kvg:position="right">
						<path d="M69.8,53.2c6.79,3.74,17.6,15.4,19.2,21.2" id="kvg:tool-s3" kvg:type="㇔/㇏"></path>
					</g>
				</g>
			</g>
		</g>
	</g>
	<g id="kvg:StrokeNumbers_tool" style="font-size:8;fill:#808080" xmlns:kvg="http://kanjivg.tagaini.net">
		<text transform="matrix(1 0 0 1 6.75 44.9)">1</text>
		<text transform="matrix(1 0 0 1 33.5 56.4)">2</text>
		<text transform="matrix(1 0 0 1 63.1 54.9)">3</text>
	</g>
</svg>