<?xml version="1.0" standalone="no"?>
<!DOCTYPE svg PUBLIC "-//W3C//DTD SVG 20010904//EN"
 "http://www.w3.org/TR/2001/REC-SVG-20010904/DTD/svg10.dtd">
<svg version="1.0" xmlns="http://www.w3.org/2000/svg"
viewBox="-25 -25 190.000000 170.000000"

 preserveAspectRatio="xMidYMid meet">

<g transform="translate(0.000000,130.000000) scale(0.100000,-0.100000)"
fill="#000000" stroke="none">
<path d="M180 858 c0 -73 -3 -143 -6 -155 -6 -22 -3 -23 47 -23 l54 0 -3 110
-3 110 190 0 191 0 0 -45 0 -45 -155 0 -155 0 0 -175 0 -175 49 0 49 0 -2 133
-1 132 108 2 107 2 0 -185 0 -184 50 0 50 0 0 185 0 186 108 -3 107 -3 3 -76
c4 -108 -13 -122 -117 -98 -24 5 -46 8 -48 5 -2 -2 7 -27 21 -55 l26 -51 79 0
c63 0 84 4 102 19 23 19 24 25 27 180 l3 161 -155 0 -156 0 0 45 0 45 190 0
190 0 0 -110 0 -110 51 0 52 0 -7 31 c-3 17 -6 87 -6 155 l0 124 -520 0 -520
0 0 -132z"/>
</g>
</svg>
