<svg height="40" viewBox="0 0 40 40" width="40" xmlns="http://www.w3.org/2000/svg"><path d="m32.988281 13.347656c0 .09375-.410156.214844-1.234375.351563-1.023437.191406-1.550781.289062-1.570312.316406-.195313.046875-.976563.4375-2.359375 1.15625-.117188-.042969-.183594-.128906-.210938-.246094 1.246094-1.304687 1.867188-2.070312 1.867188-2.273437 0-.074219-.09375-.210938-.28125-.390625-.726563 0-1.089844 0-1.089844 0l-8.636719.703125c.703125.421875 1.054688.722656 1.054688.910156-.375.46875-.5625.949219-.5625 1.4375 0 0 .015625.222656.035156.671875 1.078125-.097656 2.675781-.269531 4.808594-.527344.070312 0 .226562-.050781.492187-.144531.257813-.089844.390625-.140625.421875-.140625.140625 0 .4375.203125.914063.613281.46875.417969.703125.683594.703125.824219 0 .125-.0625.292969-.179688.511719-.117187.222656-.175781.394531-.175781.507812v4.25c0 .070313.015625.179688.050781.3125.039063.140625.054688.25.054688.320313 0 .253906-.183594.679687-.5625 1.28125-.371094.597656-.679688.894531-.914063.894531-.1875 0-.363281-.152344-.523437-.457031-.117188-.234375-.234375-.46875-.351563-.699219-.210937-.308594-1.085937-1.046875-2.628906-2.214844l.136719-.207031c1.546875.511719 2.421875.769531 2.632812.769531.402344 0 .59375-.207031.59375-.632812v-4.277344c-.253906-.285156-.4375-.425781-.519531-.425781-.074219 0-1.738281.15625-4.988281.453125v10.039062c0 .351563-.042969.75-.140625 1.199219-.117188.582031-.28125.875-.496094.875-.203125 0-.40625-.433594-.589844-1.300781-.164062-.773438-.25-1.335938-.25-1.683594v-8.890625l-4.488281.488281c-.074219.75-.128906 1.589844-.175781 2.53125-.027344.84375-.054688 1.679688-.074219 2.496094-.113281 1.40625-.363281 2.113281-.734375 2.113281-.167969 0-.363281-.304687-.597656-.910156-.234375-.542969-.351563-.921875-.351563-1.125 0-.050781.042969-.203125.136719-.457031.097656-.257813.140625-.421875.140625-.492188.09375-.5625.144531-1.75.144531-3.550781 0-.625-.054687-1.152344-.175781-1.574219-.113281-.210937-.230469-.457031-.347656-.734375l.140625-.285156c.328125.113281.863281.46875 1.609375 1.058594l4.773437-.5625v-2.28125c0-.117188-.070312-.296875-.207031-.546875-.140625-.25-.253906-.375-.355469-.375-.65625 0-3.050781.378906-7.191406 1.132812-.355469.042969-.816406.078125-1.410156.101563-.183594.773437-.371094 1.546875-.5625 2.316406-.320313 1.125-.71875 1.6875-1.1875 1.6875-.382813 0-.5625-.824219-.5625-2.457031.816406-.75 1.265625-2.0625 1.335937-3.933594h.277344c.207031.46875.378906.933594.496094 1.402344h.347656c.421875 0 .996094-.058594 1.722656-.171875.976563-.164063 1.554688-.261719 1.714844-.28125 1.292969-.167969 6.765625-.714844 16.425781-1.65625.09375 0 .265625-.042969.511719-.136719.25-.09375.394531-.140625.4375-.140625.191406 0 .6875.359375 1.496094 1.074219.8125.710937 1.210937 1.171875 1.210937 1.382812zm0 0"/></svg>