<?xml version="1.0" standalone="no"?>
<!DOCTYPE svg PUBLIC "-//W3C//DTD SVG 20010904//EN"
 "http://www.w3.org/TR/2001/REC-SVG-20010904/DTD/svg10.dtd">
<svg version="1.0" xmlns="http://www.w3.org/2000/svg"
 viewBox="-30 -30 210.000000 190.000000"
 preserveAspectRatio="xMidYMid meet">

<g transform="translate(0.000000,142.000000) scale(0.100000,-0.100000)"
fill="#000000" stroke="none">
<path d="M770 1111 c0 -89 -4 -152 -10 -156 -5 -3 -10 -24 -10 -45 0 -79 -49
-257 -84 -305 -12 -17 -17 -14 -59 44 -45 60 -107 179 -107 204 -1 35 -17 40
-59 16 -36 -20 -41 -27 -36 -48 12 -47 96 -207 140 -266 l45 -59 -23 -24 c-59
-64 -190 -135 -307 -167 -36 -10 -67 -19 -68 -21 -8 -6 51 -94 62 -94 20 0
148 46 196 70 66 33 129 78 177 123 l42 40 82 -53 c133 -86 289 -148 431 -174
37 -7 38 -6 63 43 l25 51 -22 5 c-13 3 -52 12 -88 20 -130 29 -273 89 -370
155 l-61 41 24 42 c66 115 95 274 98 538 l1 164 -41 3 -41 3 0 -150z"/>
</g>
</svg>
