<svg height="40" viewBox="0 0 40 40" width="40" xmlns="http://www.w3.org/2000/svg"><path d="m32.777344 31.761719c0 .207031-.257813.3125-.773438.3125l-5.335937.109375c-1.265625-1.007813-4.1875-3.558594-8.777344-7.65625-1.078125 1.878906-2.5625 3.515625-4.472656 4.90625-1.90625 1.382812-3.929688 2.296875-6.054688 2.75l-.140625-.25c2.757813-1.007813 5.007813-2.390625 6.742188-4.15625.390625-.390625.929687-1.027344 1.609375-1.898438.796875-.984375 1.253906-1.640625 1.367187-1.96875-.460937-.535156-1.191406-1.347656-2.171875-2.425781-.863281-.941406-1.625-1.671875-2.28125-2.1875-.257812-.214844-.707031-.328125-1.332031-.347656l-.074219-.179688c.210938-.210937.515625-.3125.914063-.3125.398437 0 1.328125.625 2.773437 1.890625.089844.074219 1.015625.902344 2.773438 2.492188.347656-.539063.710937-1.6875 1.085937-3.46875.371094-1.6875.5625-2.929688.5625-3.730469 0 0 0-1.957031 0-5.890625 0-.28125-.191406-.605469-.5625-.96875-.375-.359375-.710937-.597656-1.015625-.714844.046875-.164062.140625-.25.277344-.25.488281 0 1.144531.164063 1.96875.492188.910156.378906 1.363281.769531 1.363281 1.195312 0 .09375-.078125.226563-.238281.402344-.167969.171875-.261719.3125-.285156.40625 0 1.074219-.042969 2.792969-.136719 5.15625-.214844 3.015625-.933594 5.738281-2.183594 8.144531 2.976563 2.296875 5.246094 3.929688 6.8125 4.914063 2.835938 1.800781 5.359375 2.878906 7.585938 3.234375zm0 0"/></svg>