<svg height="40" viewBox="0 0 40 40" width="40" xmlns="http://www.w3.org/2000/svg"><path d="m31.828125 12.207031c-.421875.261719-1.765625.589844-4.03125.984375-2.140625.371094-3.480469.5625-4.042969.5625-.367187 0-.75-.101562-1.125-.3125-.628906.8125-1.25 1.632813-1.859375 2.453125-.820312 1.074219-1.53125 1.886719-2.140625 2.421875l-.25-.207031c.242188-.234375.949219-1.339844 2.148438-3.296875 1.351562-2.277344 2.03125-3.703125 2.03125-4.285156 0-.164063-.3125-.609375-.949219-1.339844.074219-.0625.109375-.136719.109375-.207031.5625 0 1.125.234375 1.6875.679687.5625.464844.839844.886719.839844 1.289063-.183594.09375-.398438.328125-.632813.695312-.226562.382813-.441406.742188-.628906 1.089844.042969.125.3125.183594.808594.183594.234375 0 .660156-.058594 1.296875-.183594.910156-.160156 2.269531-.453125 4.070312-.875.046875-.019531.167969-.089844.351563-.191406.1875-.109375.328125-.15625.421875-.15625.253906 0 .597656.035156 1.019531.097656.542969.121094.832031.238281.875.359375zm-12.390625 1.476563c0 .304687-.113281.457031-.347656.457031h-1.335938c-.164062 0-.757812.125-1.769531.371094-1.019531.242187-1.636719.398437-1.847656.472656 1.144531.890625 1.722656 1.453125 1.722656 1.6875 0 .042969-.074219.207031-.214844.5-.132812.300781-.222656.511719-.242187.652344.28125 0 .898437.09375 1.859375.285156.144531.019531.363281.230469.664062.628906.308594.398438.453125.648438.453125.742188 0 .019531-.054687.113281-.171875.273437-.117187.167969-.179687.292969-.210937.386719-.4375 1.949219-.914063 3.65625-1.402344 5.128906-.253906.75-.699219 1.742188-1.332031 2.980469-.964844 1.855469-1.710938 2.769531-2.246094 2.769531-.140625 0-.238281-.113281-.300781-.347656-.058594-.234375-.121094-.453125-.1875-.660156-.167969-.449219-.773438-1.105469-1.835938-1.96875 0-.164063.0625-.246094.179688-.246094 0 0 .332031.15625 1 .472656.671875.320313 1.085937.476563 1.242187.476563.683594 0 1.542969-1.464844 2.570313-4.386719.890625-2.578125 1.332031-4.097656 1.332031-4.566406 0-.351563-.246094-.640625-.734375-.875-.378906-.148438-.75-.289063-1.125-.421875-1.191406 2.289062-2.066406 3.859375-2.628906 4.703125-1.199219 1.800781-2.570313 3.296875-4.117188 4.488281-.0625-.0625-.148437-.097656-.238281-.097656 1.355469-1.335938 2.371094-2.574219 3.046875-3.730469.5-.8125 1.09375-1.972656 1.796875-3.46875.910156-1.96875 1.371094-3.246094 1.371094-3.828125 0-.421875-.328125-.871094-.984375-1.332031l-2.183594.703125c-1.003906-.1875-1.769531-.632813-2.3125-1.335938 0-.023437.011719-.054687.035156-.109375.027344-.039062.03125-.078125.03125-.097656 1.058594.253906 1.679688.386719 1.859375.386719.074219 0 .65625-.140625 1.761719-.414063 1.097656-.265625 1.753906-.441406 1.96875-.535156v-3.09375c0-.390625-.410156-.855469-1.234375-1.371094.09375-.160156.261719-.238281.496094-.238281.273437 0 .707031.125 1.273437.363281.578125.246094.859375.496094.859375.757813 0 .023437-.054687.171875-.171875.4375-.117187.269531-.175781.425781-.175781.472656v2.285156c.019531.042969.074219.0625.140625.0625.308594 0 .785156-.113281 1.441406-.347656.042969 0 .125-.035156.242188-.125.125-.078125.203125-.113281.25-.113281.328125 0 .671875.054687 1.019531.171875.488281.140625.734375.335937.734375.59375zm0 0"/></svg>