<?xml version="1.0" standalone="no"?>
<!DOCTYPE svg PUBLIC "-//W3C//DTD SVG 20010904//EN"
 "http://www.w3.org/TR/2001/REC-SVG-20010904/DTD/svg10.dtd">
<svg version="1.0" xmlns="http://www.w3.org/2000/svg"
 viewBox="-25 -20 200.000000 180.000000"
 preserveAspectRatio="xMidYMid meet">

<g transform="translate(0.000000,150.000000) scale(0.100000,-0.100000)"
fill="#000000" stroke="none">
<path d="M815 1255 c-10 -81 -55 -162 -129 -234 l-65 -62 31 -50 31 -50 47 46
c25 25 61 71 80 103 19 31 39 60 45 64 5 4 106 8 223 8 l212 0 0 45 0 45 -201
0 c-171 0 -200 2 -196 14 17 43 27 99 20 106 -4 4 -27 10 -49 14 l-42 6 -7
-55z"/>
<path d="M425 1213 l0 -78 -88 0 -87 0 0 -51 0 -50 62 4 61 5 -6 -138 c-12
-252 -55 -446 -121 -543 l-33 -49 45 -47 c24 -26 45 -46 47 -44 1 2 14 26 29
55 43 86 74 192 91 313 9 63 18 130 21 148 l5 32 64 0 65 0 0 -37 c-1 -73 -20
-289 -30 -340 -16 -73 -29 -82 -92 -55 -29 12 -53 20 -54 19 -2 -2 4 -27 14
-56 18 -59 36 -71 103 -71 53 0 92 38 113 111 17 61 34 228 37 365 2 81 -1 95
-22 123 -22 30 -24 31 -106 31 l-83 0 0 91 0 91 110 -4 110 -3 0 50 0 50 -80
-3 -80 -4 0 81 0 81 -48 0 -48 0 1 -77z"/>
</g>
</svg>
