<svg height="40" viewBox="0 0 40 40" width="40" xmlns="http://www.w3.org/2000/svg"><path d="m27.355469 21.402344c-.402344.5625-.601563.960937-.601563 1.191406v7.089844c0 .234375-.179687.679687-.546875 1.335937-.363281.65625-.632812.996094-.820312 1.023438-1.734375-1.59375-2.804688-2.417969-3.195313-2.460938l.136719-.285156c1.058594.167969 1.703125.25 1.933594.25.632812 0 .945312-.34375.945312-1.019531v-6.667969c-.347656-.378906-.554687-.5625-.628906-.5625-.449219 0-1.089844.09375-1.933594.277344-.628906.140625-1.269531.285156-1.925781.425781-1.894531.347656-3.371094.660156-4.425781.949219-.820313.207031-1.226563.363281-1.226563.457031l.417969 6c.027344.253906-.03125.597656-.175781 1.015625-.140625.496094-.3125.734375-.527344.734375-.253906 0-.464844-.253906-.625-.769531-.144531-.398438-.214844-.761719-.214844-1.089844 0-.253906.015625-.644531.054688-1.171875.035156-.527344.050781-.921875.050781-1.175781 0-1.523438-.09375-2.726563-.277344-3.617188-.070312-.304687-.445312-.75-1.125-1.332031.164063-.074219.296875-.105469.417969-.105469.207031 0 .511719.058594.894531.1875.386719.136719.671875.199219.859375.199219.214844 0 .914063-.144531 2.109375-.421875.511719-.113281 1.277344-.292969 2.28125-.527344l3.15625-.769531c1.59375-.378906 2.578125-.5625 2.949219-.5625.1875 0 .578125.1875 1.160156.578125.585938.386719.882813.660156.882813.824219zm0 0"/></svg>