<?xml version="1.0" standalone="no"?>
<!DOCTYPE svg PUBLIC "-//W3C//DTD SVG 20010904//EN"
 "http://www.w3.org/TR/2001/REC-SVG-20010904/DTD/svg10.dtd">
<svg version="1.0" xmlns="http://www.w3.org/2000/svg"
 viewBox="-15 -15 180.000000 160.000000"
 preserveAspectRatio="xMidYMid meet">

<g transform="translate(0.000000,136.000000) scale(0.100000,-0.100000)"
fill="#000000" stroke="none">
<path d="M1100 1084 c-152 -38 -503 -68 -672 -56 -43 2 -78 2 -78 -1 0 -4 10
-27 22 -52 l22 -45 96 0 c140 0 711 58 727 74 6 6 -47 96 -55 95 -4 -1 -32 -7
-62 -15z"/>
<path d="M1052 897 c-18 -35 -50 -85 -73 -110 -37 -42 -45 -47 -84 -47 -40 0
-43 2 -49 33 -3 17 -19 60 -36 95 -32 69 -35 70 -103 35 -26 -13 -27 -16 -14
-31 21 -25 67 -107 67 -120 0 -8 -26 -12 -80 -12 -55 0 -80 4 -80 12 0 18 -71
158 -81 158 -7 0 -75 -29 -88 -37 -2 -1 7 -17 21 -35 14 -18 33 -48 42 -65
l17 -33 -111 0 -110 0 0 -107 c0 -60 -3 -118 -6 -130 -6 -22 -3 -23 45 -23
l51 0 0 85 0 85 411 0 410 0 -3 -85 -3 -85 48 0 47 0 0 130 0 130 -115 0 c-63
0 -115 2 -115 4 0 3 25 38 55 78 30 40 55 75 55 78 0 4 -63 50 -81 58 -3 1
-20 -26 -37 -61z"/>
</g>
</svg>
