<svg height="40" viewBox="0 0 40 40" width="40" xmlns="http://www.w3.org/2000/svg"><path d="m23.121094 5.121094c-2.265625.5625-5.6875 1.359375-10.246094 2.382812v-.3125c1.359375-.378906 2.730469-.757812 4.105469-1.160156 1.546875-.464844 2.84375-1.019531 3.894531-1.644531-.09375-.382813-.3125-.65625-.660156-.84375l.097656-.214844h.347656c.449219 0 .949219.1875 1.496094.5625.546875.378906.871094.785156.964844 1.230469zm-3.085938 4.53125c0 .347656-.128906.523437-.382812.523437-.328125 0-1.089844-1.046875-2.28125-3.125l.097656-.207031c1.714844.699219 2.566406 1.628906 2.566406 2.808594zm10.183594 2.03125c-.097656.117187-.265625.191406-.5.210937-.347656.042969-.546875.078125-.59375.105469-.886719.328125-2.046875.957031-3.472656 1.894531l-.109375-.210937c1.566406-1.476563 2.351562-2.367188 2.351562-2.664063 0-.144531-.132812-.285156-.421875-.421875-.601562.0625-1.515625.171875-2.734375.3125-2.898437.308594-5.613281.636719-8.144531.984375-2.8125.398438-4.207031.601563-4.183594.601563-.023437 0-.410156-.09375-1.15625-.289063-.113281.585938-.179687 1.203125-.207031 1.859375-.046875.914063-.074219 1.398438-.074219 1.445313-.097656.535156-.359375.921875-.789062 1.160156-.265625-.421875-.402344-1.078125-.402344-1.96875 0-.167969.082031-.46875.25-.910156.160156-.445313.238281-.871094.238281-1.273438 0-.507812-.125-.972656-.378906-1.394531.066406-.074219.140625-.105469.207031-.105469-.046875 0 .121094.140625.511719.417969.386719.28125.738281.421875 1.066406.421875 0 0 1.109375-.140625 3.335938-.421875-.859375-1.105469-1.683594-2.3125-2.453125-3.644531l.171875-.109375c1.894531.910156 2.84375 2.003906 2.84375 3.265625 0 .160156-.027344.289062-.101563.382812.15625-.019531 1.167969-.109375 3.015625-.242187 1.242188-.121094 2.210938-.292969 2.914063-.527344.1875-.046875.75-.636719 1.679687-1.761719.851563-1.003906 1.421875-1.71875 1.726563-2.132812-.070313-.09375-.328125-.320313-.777344-.671875.074219-.15625.167969-.246094.285156-.246094.5625 0 1.101563.167969 1.609375.496094.523438.328125.859375.765625 1.023438 1.296875-.605469.125-1.4375.53125-2.496094 1.234375-.769531.5625-1.542969 1.113281-2.308594 1.65625.023438.019531.0625.035156.136719.035156.308594 0 1.167969-.097656 2.597656-.28125 1.429688-.171875 2.265625-.300781 2.523438-.375.050781-.027344.144531-.082031.296875-.171875.15625-.082031.253906-.128906.300781-.128906.234375 0 .660156.289062 1.28125.890625.621094.597656.9375 1.023437.9375 1.28125zm0 0"/></svg>