<svg height="40" viewBox="0 0 40 40" width="40" xmlns="http://www.w3.org/2000/svg"><path d="m16.035156 24.261719c-.28125.191406-.910156.613281-1.894531 1.269531-.371094.253906-1.042969.675781-1.996094 1.261719l-1.195312.664062c-.890625.476563-2.460938 1.289063-4.703125 2.453125-.054688.03125-.199219.179688-.460938.464844-.253906.28125-.429687.421875-.523437.421875-.351563 0-.664063-.378906-.949219-1.125-.234375-.609375-.347656-1.09375-.347656-1.441406v-1.054688l.3125-.132812c.613281.789062 1.019531 1.1875 1.234375 1.1875.226562 0 .800781-.214844 1.71875-.625l-.109375-11.242188c0-1.023437-.453125-1.859375-1.371094-2.484375.074219-.242187.144531-.359375.207031-.359375.214844 0 .984375.289063 2.324219.84375.253906 0 .933594-.53125 2.03125-1.59375 1.105469-1.066406 1.652344-1.734375 1.652344-2.019531 0-.328125-.339844-.734375-1.015625-1.222656.039062-.214844.175781-.324219.382812-.324219.375 0 1.105469.300781 2.199219.894531 1.082031.601563 1.628906 1.054688 1.628906 1.351563 0 .171875-.128906.285156-.382812.359375-.84375.234375-1.828125.675781-2.953125 1.328125-1.84375 1.078125-2.851563 1.65625-3.023438 1.71875.382813.378906.5625.617187.5625.738281 0 .113281-.078125.265625-.238281.457031-.167969.1875-.308594.292969-.421875.3125v10.8125c2.753906-1.117187 5.128906-2.207031 7.125-3.265625.09375.054688.15625.167969.207031.351563zm0 0"/></svg>