<svg height="40" viewBox="0 0 40 40" width="40" xmlns="http://www.w3.org/2000/svg"><path d="m30.953125 9.421875c0 .230469-.328125.339844-.984375.3125l-3.753906-.140625c-.074219.488281-.179688 1.238281-.3125 2.25-.171875 1.097656-.449219 1.644531-.851563 1.644531-.039062 0-.160156-.039062-.332031-.140625-.175781-.09375-.285156-.132812-.328125-.132812-.214844.019531-.90625.09375-2.074219.207031-2.273437.234375-4.554687.542969-6.84375.910156-.117187 0-.316406.0625-.597656.179688-.277344.113281-.46875.175781-.5625.175781-.214844 0-.636719-.183594-1.261719-.546875-.632812-.359375-.945312-.621094-.945312-.792969 0-.15625.054687-.253906.171875-.273437.816406.378906 1.472656.578125 1.96875.578125.140625 0 1.238281-.148438 3.296875-.4375 2.269531-.308594 4.609375-.640625 7.019531-1.015625.160156-1.804688.246094-2.621094.246094-2.429688-.046875-.019531-.121094-.035156-.214844-.035156-2.363281 0-6.175781.441406-11.441406 1.332031-.117188.023438-.351563.09375-.699219.214844-.347656.113281-.621094.171875-.808594.171875-.328125 0-.84375-.261719-1.546875-.785156-.703125-.527344-1.050781-.945313-1.050781-1.246094 0-.074219.035156-.15625.105469-.25 1.078125.613281 2.007812.910156 2.8125.910156.019531 0 .875-.078125 2.5625-.25 1.375-.132812 4.835937-.5 10.390625-1.082031.019531-.46875.078125-1.167969.171875-2.097656-.234375-.171875-.402344-.25-.496094-.25-1.402344 0-3.753906.253906-7.050781.769531-.699219.097656-1.351563.21875-1.933594.390625-1.046875.277344-1.550781.421875-1.511719.421875-.675781 0-1.53125-.621094-2.554687-1.859375.019531-.09375.078125-.191406.175781-.285156 1.167969.519531 1.894531.773437 2.171875.773437 1.027344 0 2.480469-.132812 4.355469-.390625 1.46875-.1875 2.9375-.382812 4.382812-.59375l2.5625-.316406c.148438 0 .464844.15625.984375.453125.515625.308594.773438.519531.773438.636719 0 .09375-.0625.195312-.1875.3125-.132813.117187-.214844.203125-.234375.25-.140625.421875-.214844.96875-.214844 1.644531.03125.03125.074219.035156.144531.035156.257813 0 .65625-.085937 1.214844-.257812.546875-.179688.925781-.265625 1.136719-.265625.191406 0 .59375.179687 1.210937.546875.621094.359375.933594.613281.933594.753906zm0 0"/></svg>