<?xml version="1.0" standalone="no"?>
<!DOCTYPE svg PUBLIC "-//W3C//DTD SVG 20010904//EN"
 "http://www.w3.org/TR/2001/REC-SVG-20010904/DTD/svg10.dtd">
<svg version="1.0" xmlns="http://www.w3.org/2000/svg"
 viewBox="0 0 352.000000 262.000000"
 preserveAspectRatio="xMidYMid meet">

<g transform="translate(0.000000,262.000000) scale(0.100000,-0.100000)"
fill="#000000" stroke="none">
<path d="M1675 2461 c-3 -6 -1 -60 5 -121 7 -61 9 -118 6 -126 -5 -13 -74 -14
-496 -12 l-490 3 0 -119 0 -118 30 6 c22 4 706 9 943 6 16 0 17 -11 15 -127
l-3 -128 -590 0 c-324 1 -611 4 -638 8 l-47 7 0 -118 0 -117 640 3 641 3 -3
-133 -3 -133 -495 -2 -495 -2 0 -107 0 -106 495 -2 495 -1 0 -135 0 -135 -455
0 c-250 0 -490 4 -533 9 l-78 8 3 -117 3 -118 530 -1 530 -1 0 -140 0 -140
-575 0 c-316 0 -600 2 -630 5 l-55 5 -3 -124 -3 -123 33 6 c18 4 299 10 625
13 l591 5 14 -21 c12 -19 22 -21 124 -21 105 0 112 1 117 21 l6 21 598 -5
c329 -4 615 -9 636 -13 l38 -6 -3 123 c-3 118 -4 124 -23 120 -11 -2 -298 -6
-637 -8 l-618 -4 0 146 0 146 545 -3 545 -3 0 119 0 118 -77 -8 c-43 -5 -287
-9 -543 -9 l-465 0 -3 138 -3 138 502 -1 502 -1 -2 242 -2 242 170 -5 171 -5
0 115 0 114 -171 -7 -171 -7 4 241 3 241 -500 0 -500 -1 0 133 0 133 -122 3
c-72 1 -124 -1 -128 -7z m1015 -595 c0 -63 -3 -121 -6 -130 -5 -14 -49 -16
-385 -16 l-379 0 0 130 0 130 385 0 385 0 0 -114z m-5 -491 l0 -130 -382 -3
-383 -2 0 135 0 135 383 -2 382 -3 0 -130z"/>
</g>
</svg>
