<svg height="40" viewBox="0 0 40 40" width="40" xmlns="http://www.w3.org/2000/svg"><path d="m9.652344 25.402344c.8125 1.28125 1.5 1.925781 2.054687 1.925781.324219 0 .539063-.214844.640625-.644531 1.460938-.257813 2.917969-.46875 4.375-.640625.148438 1.84375.664063 3.128906 1.542969 3.859375.921875.769531 3.191406 1.15625 6.8125 1.15625 4.027344 0 6.296875-.132813 6.8125-.386719.515625-.28125.769531-.535156.769531-.769531 0-.414063-.210937-.839844-.640625-1.289063-.257812-.28125-.597656-1.476562-1.03125-3.597656h-.253906c-.621094 2.222656-1.09375 3.425781-1.417969 3.597656-1.046875.511719-3.101562.773438-6.164062.773438-2.015625 0-3.34375-.261719-3.984375-.773438-.433594-.363281-.648438-1.304687-.648438-2.828125 1.90625-.28125 3.792969-.453125 5.65625-.515625.386719.257813.773438.386719 1.15625.386719.324219 0 .578125-.128906.773438-.386719.75-1.414062 1.519531-3.210937 2.316406-5.398437.425781-.367188.640625-.664063.640625-.898438 0-.34375-.941406-.988281-2.828125-1.929687-1.796875.554687-4.328125 1.03125-7.582031 1.414062l.128906-1.925781c.683594-.128906 1.496094-.21875 2.4375-.261719h1.160156c.46875.34375.855469.515625 1.15625.515625.449219 0 .875-.34375 1.289063-1.03125.554687-1.238281 1.113281-2.609375 1.664062-4.109375.34375-.453125.515625-.707031.515625-.769531 0-.453125-.898437-1.09375-2.695312-1.933594-.515625.261719-.984375.433594-1.417969.515625-1.796875.367188-3.425781.667969-4.886719.902344l-1.410156.253906c-1.949219.386719-3.75.601563-5.402344.648438-.34375-.089844-.679687-.132813-1.023437-.132813l-.132813.257813c.195313.238281.40625.707031.648438 1.414062.640625 2.183594 1.066406 3.558594 1.28125 4.117188.601562.679687 1.070312 1.023437 1.414062 1.023437.257813 0 .46875-.210937.640625-.640625l2.703125-.515625v1.929688c-3.046875.40625-5.398437.664062-7.070312.769531-.75-.191406-1.4375-.316406-2.058594-.386719l-.253906.261719c.171875.191406.34375.488281.507812.894531.648438 1.953125 1.246094 3.667969 1.804688 5.148438zm6.425781-13.632813c.34375.40625.515625.882813.515625 1.417969-1.175781.253906-2.464844.46875-3.859375.640625-.167969-.511719-.386719-1.027344-.640625-1.542969 1.285156-.082031 2.613281-.253906 3.984375-.515625zm-2.957031 2.960938c1.265625-.152344 2.46875-.324219 3.601562-.515625v1.671875l-3.085937.515625c-.152344-.558594-.320313-1.117188-.515625-1.671875zm10.539062-4.117188.386719.386719c-.359375 1.480469-.746094 2.847656-1.15625 4.113281l-.769531-.253906c-1.070313.253906-2.183594.46875-3.339844.640625v-1.671875c.941406-.171875 1.886719-.296875 2.828125-.386719.425781-.039062.640625-.210937.640625-.515625 0-.40625-.515625-.703125-1.542969-.894531-.40625.253906-1.050781.46875-1.925781.640625-.066406-.46875-.238281-.902344-.515625-1.285156 1.863281-.367188 3.660156-.621094 5.394531-.773438zm-12.207031 12.214844c.316406.28125.75.496094 1.28125.640625 1.246094-.253906 2.574219-.511719 3.988281-.769531v2.316406c-1.585937.253906-3.210937.46875-4.882812.640625-.605469-1.628906-1.15625-3.296875-1.671875-5.015625 2.179687-.214844 4.367187-.46875 6.554687-.769531v1.800781c-1.671875.34375-3.382812.640625-5.144531.902344zm11.050781-2.574219c-.941406.515625-2.269531.902344-3.984375 1.164063l.132813-1.804688c2.269531-.300781 4.5-.640625 6.679687-1.03125.34375 0 .515625.21875.515625.648438-.363281 1.628906-.789062 3.210937-1.285156 4.753906l-1.027344-.125c-1.539062.277344-3.210937.578125-5.015625.894531v-2.3125c2.015625-.34375 3.859375-.554687 5.527344-.640625.433594-.046875.644531-.21875.644531-.515625 0-.453125-.726562-.789062-2.1875-1.03125zm0 0"/></svg>