<svg height="40" viewBox="0 0 40 40" width="40" xmlns="http://www.w3.org/2000/svg"><path d="m31.722656 19.207031c0 .257813-.335937.386719-1.019531.386719-3.90625-.074219-5.90625-.097656-6-.097656-.441406 0-2.339844.15625-5.6875.484375-.140625.46875-.371094 1.144531-.699219 2.035156-.847656 2.128906-2.179687 4.214844-4.003906 6.25-1.9375 2.152344-3.894531 3.625-5.863281 4.425781l-.171875-.25c2.175781-1.097656 4.160156-2.820312 5.945312-5.160156 1.796875-2.339844 2.949219-4.707031 3.460938-7.125-.09375-.019531-.140625-.035156-.140625-.035156-1.078125 0-2.625.285156-4.636719.84375-.121094.023437-.746094.21875-1.890625.597656-.378906 0-.839844-.207031-1.390625-.636719-.546875-.421875-.964844-.828125-1.238281-1.226562l.273437-.203125c.914063.507812 1.648438.765625 2.210938.765625.070312 0 .726562-.101563 1.96875-.28125 2.128906-.355469 3.828125-.621094 5.085937-.777344.449219-1.183594.667969-2.128906.667969-2.839844-.019531-.019531-.058594-.035156-.105469-.035156-.5625 0-1.421875.144531-2.578125.4375-1.160156.296875-2.054687.582031-2.6875.859375-.328125-.0625-.8125-.296875-1.46875-.699219-.726562-.421875-1.101562-.75-1.125-.984375l.101563-.273437c1.316406.421875 1.976562.625 2 .625.070312 0 .671875-.089844 1.796875-.261719 1.117187-.175781 2.515625-.378906 4.175781-.613281.207031-.65625.296875-1.609375.277344-2.882813-.023438 0-.058594 0-.105469 0-1.191406 0-2.574219.214844-4.140625.636719-.964844.253906-1.40625.386719-1.332031.386719-.289063 0-.765625-.214844-1.460938-.640625-.691406-.433594-1.164062-.777344-1.421875-1.039063l.109375-.289062c.023438 0 .386719.140625 1.089844.40625.464844.175781.839844.265625 1.121094.265625 1.800781 0 3.847656-.195313 6.140625-.5625.113281-.773438.175781-1.765625.175781-2.984375 0-.210938-.359375-.59375-1.089844-1.15625l.140625-.25h.53125c.296875 0 .746094.164062 1.335938.492187.582031.324219.878906.632813.910156.914063-.308594.582031-.53125 1.53125-.671875 2.84375.140625.023437.214844.03125.214844.03125.328125 0 1.375-.089844 3.15625-.277344 1.78125-.191406 2.738281-.308594 2.878906-.347656.253906-.101563.527344-.289063.808594-.5625.46875.039062 1.050781.160156 1.753906.347656.917969.234375 1.371094.480469 1.371094.734375 0 .285156-.183594.449219-.5625.488281-.679688.03125-1.710938.054688-3.085938.074219-2.488281.074219-4.644531.175781-6.5.3125l-.421875 2.878906c1.058594-.039062 2.09375-.09375 3.132813-.132812 1.492187-.074219 2.453125-.195313 2.867187-.351563.195313-.070312.460938-.25.8125-.535156.351563.03125.914063.183594 1.683594.464844.890625.300781 1.332031.546875 1.332031.734375 0 .210937-.242187.328125-.734375.347656-.65625.019531-1.640625.050781-2.945312.074219-2.414063.070312-4.5.191406-6.25.347656-.136719.636719-.351563 1.582031-.632813 2.84375 1.40625-.074219 2.808594-.152344 4.214844-.246094 1.84375-.09375 3.214844-.253906 4.105469-.488281.070312-.019531.238281-.09375.507812-.214844.273438-.113281.421875-.171875.476563-.171875.394531 0 1.003906.136719 1.820312.421875.933594.296875 1.40625.601563 1.40625.875zm0 0"/></svg>