<?xml version="1.0" standalone="no"?>
<!DOCTYPE svg PUBLIC "-//W3C//DTD SVG 20010904//EN"
 "http://www.w3.org/TR/2001/REC-SVG-20010904/DTD/svg10.dtd">
<svg version="1.0" xmlns="http://www.w3.org/2000/svg"
 viewBox="-22 -18 180.000000 160.000000"
 preserveAspectRatio="xMidYMid meet">

<g transform="translate(0.000000,144.000000) scale(0.100000,-0.100000)"
fill="#000000" stroke="none">
<path d="M588 1218 c-48 -91 -161 -193 -253 -228 -28 -11 -32 -36 -10 -66 8
-10 15 -27 15 -36 0 -27 16 -22 86 28 52 37 64 42 64 27 0 -17 13 -18 205 -18
185 0 205 2 207 17 2 14 15 9 71 -30 57 -39 70 -44 77 -32 5 8 21 34 35 58 22
35 24 42 9 42 -64 0 -267 167 -313 258 l-21 42 -70 0 -69 0 -33 -62z m138 -75
c16 -21 46 -57 68 -80 l39 -43 -137 0 c-75 0 -136 4 -136 8 0 5 12 19 26 33
14 13 42 45 62 72 20 26 39 47 43 47 4 0 19 -17 35 -37z"/>
<path d="M351 530 l-2 -320 48 0 49 0 -1 113 0 112 68 3 67 3 0 -72 0 -71 -56
7 c-46 5 -55 4 -48 -7 52 -89 52 -88 103 -88 33 0 56 6 72 19 l24 19 3 301 3
301 -164 0 -165 0 -1 -320z m229 200 l0 -40 -70 0 -70 0 0 33 c0 19 3 37 7 40
3 4 35 7 70 7 l63 0 0 -40z m0 -170 l0 -41 -67 3 -68 3 -3 38 -3 37 70 0 71 0
0 -40z"/>
<path d="M940 574 l0 -277 -70 5 c-38 3 -70 3 -69 -1 0 -3 13 -26 28 -51 l28
-45 71 0 c113 0 106 -19 110 340 l3 305 -50 0 -51 0 0 -276z"/>
<path d="M750 605 l0 -225 50 0 50 0 0 225 0 225 -50 0 -50 0 0 -225z"/>
</g>
</svg>
