<svg height="40" viewBox="0 0 40 40" width="40" xmlns="http://www.w3.org/2000/svg"><path d="m34.144531 16.136719c0 .285156-.34375.421875-1.019531.421875-.816406 0-2.042969-.015625-3.667969-.054688-1.625-.035156-2.851562-.046875-3.664062-.046875-1.402344 0-3.898438.230469-7.476563.699219-1.945312 3.605469-3.570312 6.199219-4.878906 7.796875-.730469.859375-1.933594 2.125-3.621094 3.78125-2.03125 1.996094-3.25 2.988281-3.648437 2.988281-.042969 0-.152344-.054687-.3125-.179687 5.238281-5.09375 8.859375-9.8125 10.84375-14.136719l-.03125-.109375c-.210938.046875-.671875.128906-1.371094.246094-.46875.066406-1.5.304687-3.09375.710937-1.589844.417969-2.535156.621094-2.84375.621094-.464844 0-1.058594-.292969-1.769531-.878906-.714844-.585938-1.09375-1.109375-1.136719-1.574219.15625-.097656.253906-.140625.277344-.140625-.417969 0-.167969.167969.753906.503906.925781.339844 1.542969.511719 1.839844.511719 2.203125 0 4.800781-.339844 7.796875-1.015625.050781-.09375.128906-.269531.25-.53125 1.28125-3.113281 1.929687-5.003906 1.929687-5.6875 0-.609375-.4375-1.09375-1.304687-1.472656.050781-.214844.164062-.3125.359375-.3125.53125 0 1.175781.171875 1.921875.519531.867187.402344 1.296875.832031 1.296875 1.300781 0 .167969-.136719.351563-.414063.558594-.328125.285156-.519531.464844-.5625.535156-.347656.605469-.691406 1.414063-1.019531 2.421875-.511719 1.570313-.796875 2.398438-.839844 2.484375.976563-.113281 2.773438-.289062 5.367188-.523437.984375-.0625 2.726562-.210938 5.226562-.421875.121094-.023438.324219-.117188.601563-.292969.285156-.183594.457031-.269531.523437-.269531.445313 0 1.136719.179687 2.070313.53125 1.082031.394531 1.617187.738281 1.617187 1.015625zm0 0"/></svg>