<svg height="40" viewBox="0 0 40 40" width="40" xmlns="http://www.w3.org/2000/svg"><path d="m29.375 10.253906c0 .28125-.371094.421875-1.113281.421875-.042969 0-1.355469-.066406-3.953125-.175781-.203125.722656-.417969 1.433594-.625 2.128906-.390625 1.085938-.757813 1.632813-1.078125 1.632813-.203125 0-.320313-.09375-.335938-.277344-.019531-.175781-.039062-.363281-.066406-.550781l.578125-2.757813c-1.96875 0-3.734375.148438-5.292969.453125 0 .246094.046875.710938.140625 1.402344.085938.574219.132813 1.042969.132813 1.40625 0 .578125-.164063.863281-.496094.863281-.417969 0-.722656-.484375-.941406-1.429687-.121094-.664063-.226563-1.324219-.3125-1.980469l-.132813-.136719c-1.640625.308594-2.46875.453125-2.46875.453125-.351562 0-.847656-.269531-1.484375-.789062-.5-.449219-.890625-.867188-1.160156-1.277344l.3125-.175781c.75.597656 1.453125.894531 2.109375.894531 1.730469 0 2.597656-.082031 2.597656-.269531 0-2.183594-.625-3.617188-1.882812-4.304688l.09375-.316406h.269531c.328125 0 .859375.214844 1.59375.628906.730469.421875 1.203125.75 1.40625.992188v2.914062c.066406.027344.140625.039063.222656.039063 0 0 1.84375-.132813 5.515625-.402344.367188-.652344.542969-1.417969.542969-2.28125 0-.296875-.199219-.640625-.578125-1.035156-.390625-.390625-.738281-.640625-1.035156-.761719l.128906-.222656h.269531c.421875 0 1.074219.222656 1.960938.671875.875.441406 1.320312.851562 1.320312 1.207031 0 .027344-.160156.375-.476562 1.035156-.3125.664063-.484375 1.03125-.511719 1.117188.058594.066406.15625.09375.308594.09375.8125 0 1.359375-.0625 1.664062-.179688.507813-.1875.699219-.269531.578125-.269531.246094 0 .664063.152344 1.277344.457031.613281.308594.921875.570313.921875.78125zm.625 22.929688c0 .296875-.328125.4375-.988281.40625-4.71875-.265625-7.078125-.40625-7.078125-.40625-2.636719 0-5.292969.316406-7.984375.9375-.09375.039062-.261719.128906-.511719.300781-.261719.15625-.410156.238281-.472656.238281-.449219 0-1-.304687-1.664063-.9375-.566406-.539062-.992187-1.070312-1.300781-1.613281l.269531-.140625c.933594.785156 1.855469 1.109375 2.789063.988281l6.050781-.625v-3.007812c-.484375 0-1.21875.113281-2.222656.335937-1 .230469-1.710938.34375-2.125.34375-.335938 0-.757813-.296875-1.261719-.90625-.417969-.472656-.734375-.921875-.9375-1.335937l.269531-.09375c.773438.566406 1.554688.859375 2.328125.859375 0 0 1.3125-.078125 3.949219-.226563v-2.832031c-.09375-.027344-.1875-.035156-.269531-.035156-1.109375 0-2.167969.097656-3.183594.304687-.09375 0-.222656.039063-.402344.109375-.1875.078125-.316406.117188-.410156.117188-.296875 0-.722656-.257813-1.296875-.757813-.390625-.390625-.78125-.765625-1.160156-1.128906l.128906-.3125c1.015625.566406 1.949219.855469 2.777344.855469 0 0 1.273437-.074219 3.816406-.226563v-2.960937c-.09375-.027344-.1875-.046875-.269531-.046875.082031 0-1.28125.113281-4.125.316406-.246094.566406-.417969.859375-.542969.859375-.660156 0-1.136719-.753906-1.433594-2.246094-.175781-.988281-.351562-1.972656-.539062-2.960937-.121094-.449219-.5-.945313-1.164063-1.480469l.21875-.308594c.152344.027344.574219.183594 1.261719.492188.6875.300781 1.0625.445312 1.121094.445312-.03125 0 .757812-.09375 2.375-.269531 2.066406-.144531 5.140625-.441406 9.238281-.902344.121094 0 .332031-.046875.652344-.148437.316406-.109375.554687-.15625.734375-.15625.1875 0 .609375.269531 1.285156.800781.671875.535156 1.003906.910156 1.003906 1.125 0 .152344-.070312.28125-.222656.402344-.265625.210937-.40625.328125-.40625.363281 0 .027344-.308594.746094-.941406 2.152344-.449219 1.097656-.914063 1.65625-1.386719 1.65625-.175781 0-.339844-.121094-.46875-.359375-.140625-.234375-.269531-.355469-.378906-.355469-1.773438 0-3.28125.175781-4.539063.535156v2.777344c0 .058594.046875.09375.140625.09375 1.042969 0 2.023438-.121094 2.914063-.363281.054687 0 .207031-.054688.445312-.179688.246094-.117187.390625-.175781.449219-.175781.246094 0 .660156.113281 1.277344.339844.613281.222656 1 .410156 1.144531.554687v.320313c-.6875.109375-1.75.210937-3.1875.285156-1.433594.078125-2.496094.207031-3.183594.386719v2.644531c.0625.027344.121094.046875.1875.046875 1.246094 0 2.273438-.113281 3.042969-.316406.09375 0 .253906-.074219.496094-.226563.242187-.148437.390625-.222656.445312-.222656.214844 0 .6875.199219 1.433594.578125.75.390625 1.128906.660156 1.128906.808594 0 .300781-.289062.445312-.859375.445312-.117187 0-.296875-.015625-.535156-.0625-.234375-.046875-.421875-.066406-.53125-.066406h-4.808594v3.175781c.0625.039063.167969.046875.320313.046875 2.023437 0 3.570312-.101562 4.617187-.304687.09375 0 .289063-.074219.605469-.226563.316406-.15625.503906-.234375.558594-.234375.269531 0 .894531.234375 1.863281.703125.96875.464844 1.453125.796875 1.453125 1.007813zm-3.496094-16.304688c-.144531-.472656-.320312-.707031-.535156-.707031l-5.917969.613281c.570313.6875.851563 1.089844.851563 1.210938 0 .707031-.105469 1.484375-.320313 2.320312h.496094c.390625 0 1.019531-.117187 1.90625-.363281.886719-.234375 1.453125-.355469 1.722656-.355469-.023437 0 .292969.085938.945313.273438zm-7.394531 3.570313v-2.601563c0-.117187-.09375-.316406-.269531-.585937-.183594-.273438-.335938-.382813-.449219-.355469l-4.667969.496094.625 3.410156zm0 0"/></svg>