<?xml version="1.0" standalone="no"?>
<!DOCTYPE svg PUBLIC "-//W3C//DTD SVG 20010904//EN"
 "http://www.w3.org/TR/2001/REC-SVG-20010904/DTD/svg10.dtd">
<svg version="1.0" xmlns="http://www.w3.org/2000/svg"
 viewBox="-15 -20 180.000000 160.000000"
 preserveAspectRatio="xMidYMid meet">

<g transform="translate(0.000000,130.000000) scale(0.100000,-0.100000)"
fill="#000000" stroke="none">
<path d="M520 1170 l0 -50 -80 0 -80 0 0 -40 0 -40 80 0 80 0 0 -35 c0 -35 0
-35 45 -35 45 0 45 0 45 35 l0 35 85 0 85 0 0 -35 c0 -35 0 -35 45 -35 45 0
45 0 45 36 l0 35 85 -3 85 -3 0 45 0 45 -82 0 -83 0 2 48 1 47 -49 0 -49 0 0
-50 0 -51 -82 3 -83 3 2 48 1 47 -49 0 -49 0 0 -50z"/>
<path d="M400 800 l0 -150 45 0 c38 0 45 3 45 20 0 18 7 20 80 20 l80 0 0 -41
0 -40 -130 3 -130 3 0 -47 0 -48 130 0 130 0 0 -41 0 -42 -115 5 -115 4 0 -46
0 -46 115 4 115 5 0 -47 0 -46 -145 0 -145 0 0 -47 0 -48 340 0 340 0 0 48 0
47 -150 0 -150 0 0 46 0 46 115 -4 115 -3 0 46 0 45 -115 -4 -115 -5 0 42 0
41 135 0 135 0 0 48 0 47 -135 -3 -135 -4 0 41 0 41 80 0 c73 0 80 -2 80 -20
0 -17 7 -20 45 -20 l45 0 0 150 0 150 -295 0 -295 0 0 -150z m250 20 l0 -51
-77 3 -78 3 -3 33 c-6 58 0 62 83 62 l75 0 0 -50z m250 0 l0 -50 -80 0 -80 0
0 50 0 50 80 0 80 0 0 -50z"/>
</g>
</svg>
