<svg height="40" viewBox="0 0 40 40" width="40" xmlns="http://www.w3.org/2000/svg"><path d="m31.9375 18.222656c0 .261719-.183594.386719-.53125.386719-.234375 0-.582031-.027344-1.050781-.089844-.464844-.054687-.820313-.082031-1.046875-.082031-.710938 0-1.742188.058594-3.09375.171875-.167969.730469-.292969 1.472656-.386719 2.25-.046875.628906-.097656 1.25-.140625 1.863281-.144531.933594-.402344 1.402344-.769531 1.402344-.234375 0-.484375-.277344-.742188-.839844-.257812.042969-1.640625.203125-4.140625.492188-.210937.226562-.363281.347656-.457031.347656-.542969 0-.816406-.703125-.839844-2.109375v-2.628906c-.519531.023437-1.296875.132812-2.332031.332031-.050781 0-.183594.050781-.410156.144531-.226563.105469-.355469.152344-.40625.152344-.1875 0-.835938-.347656-1.9375-1.058594-.328125 2.34375-.710938 4.136719-1.132813 5.375-.265625.777344-.882812 2.058594-1.875 3.859375-1.128906 2.0625-1.894531 3.09375-2.296875 3.09375-.046875 0-.140625-.035156-.285156-.101562 2.953125-4.195313 4.425781-9.679688 4.425781-16.464844 0-.609375-.304687-1.125-.910156-1.546875v-.347656h.5625c.160156 0 .421875.0625.785156.191406.367188.125.636719.191406.824219.191406l7.339844-.632812v-2.699219c0-.347656-.449219-.621094-1.339844-.808594v-.351562h.910156c.308594 0 .78125.125 1.421875.390625.652344.253906.976563.507812.976563.769531l-.5.875v1.609375c.097656.03125.207031.035156.320312.035156 2.246094 0 3.824219-.097656 4.734375-.3125.074219-.019531.265625-.128906.585938-.332031.3125-.199219.53125-.300781.644531-.300781.328125 0 .871094.117187 1.613281.351562.84375.28125 1.265625.539063 1.265625.773438 0 .304687-.59375.476562-1.789062.53125-.6875 0-1.371094 0-2.078125 0l-14.105469.910156c0 2.363281-.019531 3.792969-.074219 4.28125.542969.285156 1.234375.421875 2.074219.421875.441406 0 1.441406-.109375 2.988281-.316406v-1.75c0-.308594-.398437-.695313-1.195312-1.164063v-.25c1.875.289063 2.804687.742188 2.804687 1.375 0 .023438-.054687.242188-.171875.648438-.117187.410156-.175781.75-.175781 1.035156.019531.019531.074219.035156.140625.035156.1875 0 1.753906-.148437 4.703125-.457031 0-.183594.035156-.484375.109375-.894531.0625-.414063.097656-.71875.097656-.929688 0-.191406-.144531-.421875-.4375-.703125-.289062-.28125-.546875-.457031-.753906-.53125.046875-.203125.222656-.3125.53125-.3125.296875 0 .769531.125 1.421875.371094.640625.246094.964844.5.964844.753906 0 .023438-.070313.167969-.199219.421875-.125.257813-.191406.390625-.191406.421875-.042969.277344-.132813.679688-.246094 1.1875.074219.054688.152344.074219.246094.074219 1.050781 0 1.789062-.078125 2.210937-.246094.054688-.023437.164063-.085937.335938-.191406.175781-.109375.3125-.160156.398437-.160156.351563 0 .851563.109375 1.480469.316406.746094.261719 1.125.515625 1.125.769531zm-7.058594.496094-4.878906.488281v3.828125l4.5625-.644531zm0 0"/></svg>