<?xml version="1.0" standalone="no"?>
<!DOCTYPE svg PUBLIC "-//W3C//DTD SVG 20010904//EN"
 "http://www.w3.org/TR/2001/REC-SVG-20010904/DTD/svg10.dtd">
<svg version="1.0" xmlns="http://www.w3.org/2000/svg"
 viewBox="-25 -25 210.000000 190.000000"
 preserveAspectRatio="xMidYMid meet">

<g transform="translate(0.000000,144.000000) scale(0.100000,-0.100000)"
fill="#000000" stroke="none">
<path d="M797 1230 l6 -50 -251 0 c-138 0 -253 -3 -255 -7 -3 -5 0 -73 5 -153
8 -104 7 -192 -1 -310 -13 -192 -29 -283 -66 -373 l-26 -65 39 -62 c22 -34 42
-58 46 -52 13 21 74 292 86 377 6 50 15 144 18 210 l7 120 113 3 112 3 0 -91
0 -90 228 2 227 3 3 89 3 89 109 -5 110 -6 0 49 0 49 -110 0 -110 0 0 55 0 55
-50 0 -50 0 0 -55 0 -55 -130 0 -130 0 0 55 0 55 -50 0 -50 0 0 -55 0 -55
-115 0 -115 0 0 44 c0 24 -3 51 -6 60 -6 14 39 16 465 16 l471 0 0 50 0 50
-220 0 -220 0 0 50 0 50 -50 0 -49 0 6 -50z m193 -405 l0 -45 -130 0 -130 0 0
45 0 45 130 0 130 0 0 -45z"/>
</g>
</svg>
