<?xml version="1.0" standalone="no"?>
<!DOCTYPE svg PUBLIC "-//W3C//DTD SVG 20010904//EN"
 "http://www.w3.org/TR/2001/REC-SVG-20010904/DTD/svg10.dtd">
<svg version="1.0" xmlns="http://www.w3.org/2000/svg"
 viewBox="-20 -30 180.000000 164.000000"
 preserveAspectRatio="xMidYMid meet">

<g transform="translate(0.000000,124.000000) scale(0.100000,-0.100000)"
fill="#000000" stroke="none">
<path d="M460 939 l0 -51 -125 4 -126 4 3 -40 3 -40 123 3 122 2 0 -36 0 -36
-102 2 -103 2 0 -38 0 -38 103 2 102 2 0 -36 0 -36 -147 2 -148 1 0 -28 0 -29
533 -3 532 -2 0 32 0 33 -155 -3 -155 -3 0 36 0 36 115 -3 115 -3 0 40 0 40
-115 -3 -115 -3 0 36 0 37 135 -4 135 -3 0 40 0 40 -137 -4 -136 -3 6 51 6 51
-49 0 -50 0 0 -50 0 -51 -137 3 -138 3 2 48 1 47 -49 0 -49 0 0 -51z m370
-154 l0 -35 -140 0 -140 0 0 35 0 35 140 0 140 0 0 -35z m0 -140 l0 -35 -140
0 -140 0 0 35 0 35 140 0 140 0 0 -35z"/>
</g>
</svg>
