<svg height="40" viewBox="0 0 40 40" width="40" xmlns="http://www.w3.org/2000/svg"><path d="m32.792969 23.984375c0 .277344-.390625.421875-1.1875.421875.160156 0-2.734375-.046875-8.699219-.144531-.910156-.023438-2.910156.171875-5.996094.5625-2.289062.304687-4.117187.617187-5.5.945312-.113281.023438-.316406.109375-.609375.25-.289062.136719-.546875.210938-.757812.210938-.371094 0-1.320313-.640625-2.835938-1.933594.042969-.09375.117188-.191406.210938-.3125 1.125.582031 1.878906.875 2.28125.875-.046875 0 .359375-.050781 1.226562-.160156.867188-.101563 2.152344-.28125 3.867188-.539063.769531-.140625 1.140625-.253906 1.117187-.347656l-.144531-2.53125-.0625-.074219-2.597656.636719c-.609375 0-1.40625-.46875-2.390625-1.402344l.457031-.144531c.308594.207031.722656.316406 1.261719.316406 1.007812 0 2.125-.164062 3.332031-.492187-.019531-.542969-.097656-1.34375-.238281-2.421875l-2.632813.488281c-.796875-.253906-1.503906-.859375-2.109375-1.824219l.25-.140625c.765625.492188 1.261719.742188 1.46875.742188.914063 0 1.898438-.121094 2.949219-.351563-.074219-.613281-.113281-.960937-.140625-1.054687-.074219-.28125-.265625-.5625-.59375-.839844.019531-.121094.09375-.175781.207031-.175781.585938 0 1.09375.179687 1.527344.539062.4375.367188.699219.839844.792969 1.421875l5.929687-.628906c0-.074219 0-.222656 0-.457031 0-.328125-.085937-.585938-.269531-.773438-.175781-.179687-.371094-.375-.566406-.5625l.097656-.3125h.378906c.351563 0 .796875.101563 1.359375.3125.640625.234375.96875.496094.96875.773438 0 .210937-.085937.539062-.25.984375.375 0 .871094-.039063 1.496094-.101563.074219-.03125.160156-.085937.277344-.179687.117187-.089844.195312-.140625.25-.140625.222656 0 .597656.109375 1.109375.320312.507812.203125.765625.414063.765625.625 0 .308594-.199219.460938-.601563.460938-1.328125 0-2.476562.046875-3.429687.140625-.054688.488281-.121094 1.222656-.214844 2.207031.042969.019531.105469.035156.175781.035156h.074219c.582031-.019531 1.046875-.078125 1.394531-.175781.214844-.074219.449219-.152344.703125-.246094.210938 0 .585938.117188 1.109375.351563.523438.238281.789063.4375.789063.597656 0 .207031-.617188.363281-1.84375.457031-.792969.070313-1.578125.132813-2.367188.179688-.09375 1.28125-.144531 2.203125-.144531 2.734375.03125.09375.109375.144531.25.144531.207031 0 .515625-.03125.921875-.074219.410156-.046875.707031-.070312.890625-.070312h1.578125c.253906 0 .589844-.058594 1.011719-.179688.421875-.113281.664062-.171875.738281-.171875.390625 0 .953125.132813 1.675781.386719.859375.28125 1.289063.5625 1.289063.84375zm-9.617188-4.625v-2.390625l-6.003906.605469v2.375zm0 3.816406v-2.84375c-.347656.007813-.523437.015625-.523437.015625l-5.480469.546875v2.882813zm0 0"/></svg>