<svg height="40" viewBox="0 0 40 40" width="40" xmlns="http://www.w3.org/2000/svg"><path d="m27.613281 11.082031c-.347656.585938-.582031 1.183594-.695312 1.792969-.871094 4.300781-1.429688 7.015625-1.683594 8.144531-.910156 3.859375-1.777344 6.433594-2.566406 7.726563-.214844.316406-.527344.707031-.949219 1.148437-.65625.679688-1.160156 1.023438-1.511719 1.023438-.179687 0-.328125-.078125-.414062-.25-.515625-.839844-1.808594-2.1875-3.867188-4.03125l.179688-.289063c2.082031 1.03125 3.445312 1.546875 4.101562 1.546875.871094 0 1.570313-.695312 2.109375-2.101562.1875-.585938.460938-1.453125.808594-2.601563.675781-2.101562 1.511719-6.195312 2.496094-12.285156l-.886719-.5625c-2.03125.308594-4.765625.847656-8.207031 1.621094-.121094.019531-.402344.117187-.859375.273437-.464844.171875-.710938.25-.761719.25-.203125 0-.675781-.328125-1.421875-.984375-.734375-.65625-1.097656-1.085937-1.097656-1.296875l.132812-.285156c1.199219.75 1.933594 1.125 2.210938 1.125-.023438 0 .613281-.105469 1.894531-.316406 1.714844-.230469 4.238281-.640625 7.589844-1.226563.207031-.09375.535156-.234375.984375-.421875.207031 0 .660156.292969 1.367187.875.699219.585938 1.046875.964844 1.046875 1.125zm0 0"/></svg>