<?xml version="1.0" standalone="no"?>
<!DOCTYPE svg PUBLIC "-//W3C//DTD SVG 20010904//EN"
 "http://www.w3.org/TR/2001/REC-SVG-20010904/DTD/svg10.dtd">
<svg version="1.0" xmlns="http://www.w3.org/2000/svg"
 viewBox="-30 -20 180.000000 160.000000"
 preserveAspectRatio="xMidYMid meet">

<g transform="translate(0.000000,142.000000) scale(0.100000,-0.100000)"
fill="#000000" stroke="none">
<path d="M877 1229 c-67 -27 -288 -66 -450 -80 l-137 -12 22 -36 c12 -20 24
-40 28 -44 7 -9 175 6 335 29 85 12 322 62 334 71 4 3 -69 87 -78 89 -3 1 -28
-7 -54 -17z"/>
<path d="M881 1055 c-13 -30 -41 -74 -61 -98 l-38 -43 33 -27 c19 -15 36 -27
38 -27 9 0 85 108 120 171 37 67 37 67 15 73 -13 3 -36 6 -53 6 -27 0 -33 -6
-54 -55z"/>
<path d="M581 1049 l-44 -20 35 -37 c38 -39 68 -91 68 -117 0 -20 6 -19 57 8
l43 22 -40 60 c-22 33 -48 70 -57 81 l-18 22 -44 -19z"/>
<path d="M381 1029 l-43 -19 36 -43 c20 -24 43 -60 51 -81 12 -29 20 -36 33
-31 9 4 29 12 45 17 15 5 27 13 27 16 0 11 -34 65 -73 115 l-34 45 -42 -19z"/>
<path d="M310 800 l0 -45 152 0 153 0 3 -37 3 -38 -165 0 -166 0 0 -45 0 -45
165 0 165 0 0 -80 0 -81 -87 3 -88 3 2 68 1 67 -49 0 -49 0 0 -135 0 -135 50
0 c43 0 50 3 50 20 0 19 7 20 215 20 208 0 215 -1 215 -20 0 -17 7 -20 50 -20
l50 0 0 135 0 135 -49 0 -49 0 1 -67 2 -68 -87 -3 -88 -3 0 81 0 80 170 0 170
0 0 45 0 45 -170 0 -170 0 0 41 0 41 155 -4 155 -3 0 45 0 45 -355 0 -355 0 0
-45z"/>
</g>
</svg>
