<svg height="40" viewBox="0 0 40 40" width="40" xmlns="http://www.w3.org/2000/svg"><path d="m26.863281 13.027344c-.019531.046875-.0625.09375-.109375.148437-1.007812.875-2.503906 2.25-4.488281 4.105469l-.265625-.152344c.328125-.375.894531-1.140625 1.703125-2.289062.875-1.289063 1.3125-2.03125 1.3125-2.226563 0-.128906-.171875-.570312-.519531-1.328125h.253906c.183594 0 .574219.246094 1.191406.742188.621094.492187.921875.820312.921875 1zm-1.617187-3.84375c0 .21875-1 .632812-3.015625 1.234375-5.359375 1.640625-8.511719 2.453125-9.464844 2.453125h-.308594c.308594-.25 1.167969-.605469 2.605469-1.058594 3.171875-.980469 5.769531-1.996094 7.808594-3.046875-.023438-.328125-.28125-.621094-.761719-.871094l.078125-.226562c.433594.101562.996094.300781 1.703125.601562.902344.375 1.355469.683594 1.355469.914063zm-5.164063 6.328125c0 .679687-.203125 1.019531-.613281 1.019531-.21875 0-.421875-.214844-.597656-.644531-.09375-.296875-.214844-.609375-.339844-.9375-.027344-.078125-.25-.496094-.683594-1.246094-.398437-.652344-.601562-1.003906-.601562-1.058594 0-.09375.03125-.175781.078125-.226562 1.082031.65625 1.707031 1.054687 1.890625 1.210937.578125.5.867187 1.132813.867187 1.882813zm-3.847656 1.132812c0 .679688-.203125 1.023438-.609375 1.023438-.046875 0-.171875-.15625-.375-.453125-.480469-.789063-1.246094-1.875-2.296875-3.289063l.261719-.265625c.628906.433594 1.257812.851563 1.882812 1.246094.757813.605469 1.136719 1.183594 1.136719 1.738281zm12.175781 6.902344c0 .222656-.273437.339844-.832031.339844 0 0-.875-.039063-2.640625-.117188-.777344-.023437-2.160156.0625-4.140625.265625-.203125 1.28125-.308594 3.101563-.308594 5.46875l5.359375-.148437v-1.960938c0-.179687-.234375-.46875-.710937-.867187v-.375c1.582031.445312 2.375.898437 2.375 1.351562 0 .027344-.046875.152344-.136719.375-.082031.230469-.128906.375-.128906.453125-.046875.757813-.105469 1.507813-.152344 2.265625-.125 1.152344-.371094 1.734375-.71875 1.734375-.402344 0-.574219-.742187-.527344-2.226562-.125-.023438-.351562-.039063-.679687-.039063-2.609375 0-6.246094.417969-10.898438 1.246094-.101562.203125-.25.480469-.457031.828125h-.21875c-.222656-.328125-.34375-.75-.34375-1.28125 0-.046875.15625-.46875.46875-1.261719.324219-.789062.480469-1.34375.480469-1.640625 0-.347656-.195313-.757812-.574219-1.203125.28125.046875.667969.257813 1.152344.617188.492187.367187.738281.675781.738281.925781-.480469.90625-.816406 1.597656-1.019531 2.078125l4.972656-.753906v-5.398438c-.019531-.023437-.066406-.039062-.144531-.039062-.355469 0-1.089844.09375-2.203125.28125-1.121094.195312-1.871094.351562-2.246094.476562-.074219.027344-.230469.09375-.457031.203125-.21875.121094-.375.171875-.445313.171875-.476562 0-.960937-.144531-1.457031-.4375-.488281-.28125-.800781-.640625-.925781-1.070312.054687-.105469.125-.152344.226562-.152344.054688 0 .28125.089844.683594.269531.394531.171875.667969.257813.792969.257813l6.175781-.828125v-2.414063c0-.097656-.066406-.242187-.21875-.429687-.15625-.1875-.265625-.308594-.34375-.359375l-3.46875.53125c-.527344.066406-1.214844-.390625-2.066406-1.398438v-.226562c1.148437.398437 1.804687.601562 1.957031.601562.625 0 1.753906-.109375 3.375-.316406 1.621094-.214844 2.734375-.402344 3.339844-.550781.097656-.023438.320312-.140625.65625-.359375.335937-.210938.523437-.324219.546875-.324219.253906 0 .675781.097656 1.265625.285156.59375.195313.882812.359375.882812.507813 0 .226562-.769531.472656-2.296875.722656-.929687.144531-1.863281.285156-2.796875.417969.03125.046875.1875.1875.496094.410156.203125.171875.296875.359375.296875.566406 0 .226563-.058594.585938-.167969 1.074219-.113281.488281-.171875.875-.171875 1.152344.058594.019531.121094.035156.1875.035156 1.289063 0 2.636719-.160156 4.039063-.496094.078125 0 .234375-.0625.46875-.1875.242187-.125.398437-.1875.476562-.1875.277344 0 .761719.136719 1.449219.402344.691406.261719 1.035156.511719 1.035156.734375zm0 0"/></svg>