<svg height="40" viewBox="0 0 40 40" width="40" xmlns="http://www.w3.org/2000/svg"><path d="m29.792969 20.417969c0 .304687-.246094.445312-.734375.425781l-3.15625-.140625-5.339844.277344v6.148437c0 .230469-.074219.539063-.214844.914063-.160156.441406-.34375.660156-.523437.660156-.167969 0-.328125-.238281-.496094-.734375-.136719-.394531-.203125-.71875-.203125-.949219v-5.828125c-.074219-.019531-.144531-.035156-.214844-.035156-.820312 0-2.125.238281-3.925781.707031-.074219.023438-.265625.101563-.566406.242188-.304688.144531-.507813.210937-.59375.210937-.382813 0-1-.234375-1.859375-.703125-.871094-.460937-1.453125-.867187-1.757813-1.195312l.101563-.3125s.519531.140625 1.546875.421875c.816406.234375 1.289062.335937 1.40625.316406l5.863281-.8125v-3.433594c-.050781-.03125-.09375-.035156-.144531-.035156-.65625 0-1.367188.09375-2.136719.277344l-.285156.144531c-.136719.066406-.257813.105469-.351563.105469-.285156 0-.632812-.179688-1.070312-.527344-.429688-.347656-.75-.671875-.964844-.949219l.28125-.285156c.675781.378906 1.230469.5625 1.652344.5625 1.238281 0 2.25-.113281 3.019531-.347656v-2.039063c0-.304687-.128906-.632812-.386719-.984375-.265625-.347656-.53125-.597656-.8125-.734375 0-.066406.046875-.234375.140625-.488281.445313.042969 1.023438.25 1.71875.597656.820313.390625 1.230469.757813 1.230469 1.085938 0 .046875-.046875.15625-.140625.316406-.09375.167969-.144531.265625-.152344.316406-.015625.046875-.066406.605469-.160156 1.6875.019531.023438.074219.027344.136719.027344l1.265625-.203125c.144531-.03125.472656-.125.984375-.285156.515625-.15625.820312-.246094.910156-.246094.167969 0 .449219.113281.859375.332031.40625.230469.621094.398438.621094.511719 0 .234375-.726563.449219-2.164063.628906 0 0-.875.09375-2.613281.28125v3.546875h.246094c1.945312 0 3.789062-.125 5.53125-.390625.628906-.207031.953125-.3125.953125-.3125.328125 0 .820312.140625 1.492187.421875s1.007813.546875 1.007813.804688zm0 0"/></svg>