<svg height="40" viewBox="0 0 40 40" width="40" xmlns="http://www.w3.org/2000/svg"><path d="m30.480469 16.734375c0 .214844-.089844.378906-.261719.503906-.175781.132813-.285156.234375-.339844.296875-.273437.777344-.734375 1.929688-1.363281 3.445313-2.339844.210937-4.097656.398437-5.265625.5625-.824219.140625-2.199219.382812-4.140625.738281-1.3125.230469-1.984375.347656-2.003906.347656-.234375 0-.609375-.179687-1.136719-.5625-.53125-.367187-.855469-.660156-.96875-.875.074219-.070312.15625-.101562.253906-.101562-.023437 0 .203125.097656.683594.289062.472656.210938.847656.304688 1.109375.304688.457031 0 1.222656-.121094 2.300781-.351563.027344-.117187.039063-.28125.039063-.488281v-2.597656h-.074219c-.265625 0-.644531.066406-1.152344.210937-.492187.136719-.863281.203125-1.113281.203125-.199219 0-.550781-.203125-1.078125-.613281-.527344-.40625-.847656-.71875-.96875-.921875l.246094-.109375c.5625.402344.992187.59375 1.296875.59375.171875 0 1-.128906 2.492187-.386719 0-.070312.015625-.171875.039063-.3125 0-.113281 0-.210937 0-.285156 0-.863281-.421875-1.542969-1.265625-2.03125.070312-.140625.15625-.214844.253906-.214844.207031 0 .640625.164063 1.296875.476563.644531.3125.972656.546875.972656.6875v1.4375c.484375 0 1.09375-.070313 1.851563-.214844.609375-.089844 1.222656-.183594 1.84375-.277344.019531-.210937.023437-.640625.023437-1.296875 0-.425781-.347656-.90625-1.046875-1.445312.136719-.136719.257813-.203125.351563-.203125.285156 0 .707031.164062 1.28125.503906.570312.34375.863281.625.863281.859375 0 .144531-.050781.363281-.144531.671875-.089844.308594-.140625.546875-.140625.734375.675781-.050781 1.660156-.199219 2.945312-.457031.046875-.023438.152344-.089844.296875-.1875.15625-.109375.257813-.164063.304688-.164063.1875 0 .519531.167969 1.003906.496094.472656.324219.714844.566406.714844.734375zm.382812-4.5625c0 .308594-.925781.453125-2.773437.453125-3.875 0-8.492188.472656-13.867188 1.40625.03125.042969.109375.1875.25.421875.09375.140625.136719.328125.136719.5625 0 2.753906-.449219 5.59375-1.359375 8.496094-.941406 3.039062-2.21875 5.613281-3.832031 7.722656l-.28125-.109375c2.738281-4.300781 4.113281-9.792969 4.113281-16.457031 0-.449219-.390625-1.007813-1.160156-1.6875.066406-.167969.160156-.246094.273437-.246094.074219 0 .324219.074219.746094.222656.421875.15625.671875.230469.734375.230469l6.878906-.703125v-1.402344c0-.609375-.140625-1.046875-.410156-1.316406-.277344-.269531-.734375-.480469-1.386719-.652344l.109375-.347656h.8125c.296875 0 .773438.09375 1.398438.277344.726562.210937 1.085937.414062 1.085937.597656 0 .050781-.054687.199219-.175781.4375-.113281.25-.171875.410156-.171875.472656v1.65625c.050781.023438.109375.03125.171875.03125.472656 0 1.339844-.066406 2.597656-.207031 1.257813-.144531 2.03125-.261719 2.339844-.355469.074219-.019531.238281-.125.511719-.3125.269531-.191406.4375-.28125.507812-.28125.289063 0 .792969.125 1.523438.390625.820312.277344 1.226562.511719 1.226562.699219zm-2.382812 5.191406c0-.328125-.167969-.546875-.496094-.664062l-2.875.453125-.207031 3.378906c.273437-.050781 1.28125-.214844 3.015625-.5.375-1.566406.5625-2.457031.5625-2.667969zm-4.429688 3.265625v-3.367187l-3.71875.703125v3.226562zm0 0"/></svg>