<svg viewBox="4 4 32 32" xmlns="http://www.w3.org/2000/svg"><path d="m28.390625 21.066406c0 .074219-.066406.179688-.214844.304688-.132812.128906-.21875.238281-.238281.332031-.328125 1.21875-.65625 2.421875-.984375 3.613281-.402344 1.402344-.84375 2.109375-1.332031 2.109375-.140625 0-.242188-.066406-.304688-.195312-.054687-.132813-.144531-.320313-.257812-.574219-.515625-.683594-1.183594-1.234375-2-1.65625.023437-.089844.0625-.175781.101562-.238281 1.40625.460937 2.09375.695312 2.074219.695312.300781 0 .558594-.363281.769531-1.085937.117188-.539063.25-1.085938.386719-1.652344.214844-.722656.3125-1.183594.3125-1.363281 0-.214844-.238281-.34375-.734375-.386719l-3.644531.238281.347656 8.148438c0 .421875-.050781.921875-.144531 1.503906-.117188.964844-.296875 1.449219-.5625 1.449219-.390625 0-.664063-1.277344-.804688-3.828125v-7.089844c-.035156-.03125-.117187-.035156-.28125-.035156-.421875 0-1.4375.160156-3.054687.488281-.914063 4.636719-2.886719 7.875-5.929688 9.722656l-.285156-.070312c1.6875-1.496094 2.917969-3.0625 3.691406-4.703125.605469-1.292969 1.027344-2.859375 1.261719-4.703125-.796875.066406-1.761719.328125-2.878906.773437-.164063.183594-.328125.355469-.492188.523438-.304687.304687-.578125.429687-.804687.390625-.234375-.195313-.355469-.667969-.355469-1.433594 0-.089844.082031-.203125.25-.34375.160156-.136719.253906-.230469.277344-.277344.65625-2.316406.984375-3.664062.984375-4.039062 0-.15625-.058594-.414063-.171875-.765625-.121094-.339844-.234375-.554688-.355469-.625.160156-.070313.269531-.105469.316406-.105469.210938 0 .476563.136719.792969.390625.3125.253906.5625.386719.75.386719.285156 0 .644531-.03125 1.074219-.089844.429687-.058594.726562-.089844.894531-.089844v-3.015625l-1.859375.386719c-.300781-.019531-.957031-.546875-1.96875-1.582031l.285156-.242188c.570313.492188 1.074219.734375 1.527344.734375l1.980469-.144531c.023437-.0625.035156-.183594.035156-.347656 0-.746094-.0625-1.277344-.183594-1.574219-.207031-.613281-.691406-1.011719-1.429687-1.199219 0-.039062.035156-.140625.109375-.273437h.410156c.359375 0 .800781.078125 1.359375.238281.546875.167969.878906.347656 1 .5625.042969.09375.058594.222656.035156.386719-.050781.113281-.082031.25-.109375.382812v1.546875l3.125-.3125v-3.164062c0-.164063-.128906-.382813-.375-.648438-.25-.269531-.46875-.445312-.644531-.539062 0-.1875.121094-.289063.355469-.289063.28125 0 .664062.109375 1.15625.324219.582031.234375.875.488281.875.765625-.164063.441406-.242188 1.019531-.242188 1.71875v1.65625c.023438.019531.070313.03125.140625.03125.515625 0 1.371094-.121094 2.558594-.347656.050781 0 .183594-.0625.40625-.179688.21875-.113281.359375-.175781.402344-.175781.117187 0 .390625.105469.8125.300781.421875.199219.632812.371094.632812.511719 0 .019531-.070312.09375-.21875.207031-.140625.121094-.21875.21875-.25.320313-.273437.769531-.65625 2.03125-1.128906 3.789062-.042969.1875-.167969.371094-.371094.558594-.195312.191406-.378906.28125-.546875.28125-.066406 0-.125-.011719-.175781-.03125-.042969-.144531-.105469-.277344-.160156-.40625-.058594-.125-.183594-.191406-.371094-.191406l-1.730469.140625v3.367187c1.53125-.046875 2.714844-.117187 3.523438-.210937.050781 0 .175781-.039063.382812-.125.214844-.078125.339844-.117188.382813-.117188.144531 0 .484375.152344 1.015625.476563.535156.3125.800781.550781.800781.710937zm-3.191406-7.929687c.046875-.214844-.070313-.351563-.34375-.417969l-2.570313.386719v3.082031h.511719l1.855469-.207031zm-4.148438 3.195312v-3.144531l-3.015625.375v3.125zm0 4.136719v-3.371094h-.410156l-2.605469.390625-.207031 3.464844zm-4.207031-1.363281v-1.542969l-2.0625.246094-.988281 4c.273437-.070313 1.238281-.273438 2.878906-.601563.136719-1.144531.199219-1.847656.171875-2.101562zm0 0"/></svg>