<svg height="40" viewBox="0 0 40 40" width="40" xmlns="http://www.w3.org/2000/svg"><path d="m30.53125 18.84375c0 .019531-.144531.261719-.4375.714844-.292969.460937-.453125.722656-.472656.796875-.402344 1.050781-.8125 2.09375-1.234375 3.117187-.605469 1.382813-1.277344 2.167969-2 2.351563-.09375-.203125-.230469-.53125-.421875-.980469-.136719-.300781-.855469-1.097656-2.136719-2.390625l.203125-.347656c.402344.253906.8125.515625 1.234375.769531.5625.355469.96875.527344 1.222656.527344.328125 0 .765625-.640625 1.308594-1.921875.511719-1.21875.765625-2.054688.765625-2.496094 0-.121094-.183594-.265625-.5625-.425781l-7.339844.914062v8.570313c0 .207031-.054687.441406-.171875.695312-.117187.351563-.269531.527344-.453125.527344-.164062 0-.378906-.328125-.632812-.984375-.234375-.582031-.351563-.980469-.351563-1.1875 0-.171875.074219-.46875.214844-.902344.136719-.425781.207031-.765625.207031-.992187l.105469-4.605469s-.011719-.171875-.035156-.527344c-3.277344 3.746094-6.601563 6.273438-9.96875 7.585938l-.105469-.136719c3.183594-1.855469 6.042969-4.410156 8.5625-7.691406-.019531 0-.078125 0-.175781 0-.277344 0-1.261719.164062-2.945313.492187-1.6875.328125-2.632812.53125-2.84375.625-.046875.03125-.238281.164063-.578125.414063-.34375.238281-.566406.363281-.6875.363281-.144531 0-.28125-.175781-.421875-.527344-.132812-.347656-.207031-.601562-.207031-.769531 0 0 .167969-.234375.5-.703125.140625-.1875.402344-.769531.792969-1.753906.375-.984375.566406-1.578125.566406-1.789063 0-.171875-.035156-.328125-.121094-.5-.128906-.253906-.203125-.40625-.226562-.445312.070312-.074219.132812-.109375.207031-.109375.167969 0 .519531.257812 1.058594.769531l6.523437-.808594v-1.75c0-.144531-.109375-.300781-.316406-.472656-.214844-.175781-.390625-.265625-.527344-.265625.0625 0-.613281.082031-2.050781.238281-.75.074219-1.386719.171875-1.902344.289063-.867187.210937-1.234375.3125-1.09375.3125-.304687 0-.710937-.21875-1.234375-.664063-.441406-.378906-.765625-.710937-.945312-1.019531l.242187-.277344c.136719.15625.476563.328125.996094.5.535156.179688.921875.273438 1.183594.273438-.234375 0 .488281-.089844 2.171875-.25 2.550781-.210938 4.625-.402344 6.210937-.558594.65625-.050781 1.589844-.140625 2.808594-.285156.09375-.023438.234375-.09375.421875-.226563.191406-.132812.308594-.191406.355469-.191406.132812 0 .457031.167969.945312.503906.496094.34375.734375.585938.734375.71875 0 .101563-.054687.183594-.175781.265625-.113281.078125-.230469.148438-.347656.199219-.136719.136719-.429688.765625-.867188 1.894531-.351562.953125-.722656 1.433594-1.125 1.433594-.066406 0-.203125-.042969-.398437-.121094-.199219-.082031-.324219-.125-.367188-.125l-3.53125.351563v2.628906c2.730469-.15625 5.023438-.449219 6.867188-.875.0625-.019531.222656-.09375.460937-.207031.25-.121094.40625-.179688.480469-.179688.15625 0 .546875.230469 1.152344.6875.601562.460938.910156.765625.910156.933594zm-5.230469-6.457031c0-.234375-.164062-.328125-.492187-.289063l-4.808594.386719c.421875.421875.640625.765625.660156 1.019531 0-.234375 0 .257813 0 1.476563h.429688c.515625 0 1.703125-.164063 3.578125-.492188.421875-1.117187.632812-1.828125.632812-2.101562zm-5.828125 6.351562v-2.707031h-.492187c-1.367188 0-3.355469.28125-5.960938.839844-.257812.644531-.625 1.628906-1.09375 2.953125h.386719zm0 0"/></svg>