<svg height="40" viewBox="0 0 40 40" width="40" xmlns="http://www.w3.org/2000/svg"><path d="m23.265625 14.519531c0 .234375-1.121094 1.042969-3.375 2.421875-2.128906 1.335938-3.644531 2.214844-4.558594 2.632813-.050781-.089844-.113281-.214844-.210937-.351563.910156-.601562 1.992187-1.429687 3.234375-2.457031 1.84375-1.515625 2.769531-2.535156 2.769531-3.058594 0-.347656-.199219-.617187-.597656-.800781v-.347656h.347656c.1875 0 .636719.269531 1.332031.820312.703125.546875 1.058594.929688 1.058594 1.140625zm2.207031 5.726563c0 .113281-.164062.234375-.492187.347656-.183594.046875-.355469.09375-.527344.140625-3.621094 3.15625-6.863281 5.394531-9.71875 6.707031-.074219-.03125-.136719-.144531-.207031-.359375 1.117187-.71875 2.257812-1.515625 3.398437-2.382812.609375-.445313 1.546875-1.261719 2.808594-2.453125 1.613281-1.523438 2.421875-2.460938 2.421875-2.8125 0-.230469-.097656-.65625-.3125-1.261719.113281-.09375.183594-.136719.214844-.136719.296875 0 .773437.292969 1.429687.886719.65625.597656.984375 1.035156.984375 1.324219zm0 0"/></svg>