<svg height="40" viewBox="0 0 40 40" width="40" xmlns="http://www.w3.org/2000/svg"><path d="m32.917969 27.234375c0 .605469-.820313 1.0625-2.460938 1.363281-1.09375.1875-2.242187.28125-3.429687.28125h-3.757813c-2.664062 0-4.410156-.363281-5.234375-1.082031-.957031-.847656-1.378906-2.605469-1.265625-5.265625-1.164062.160156-2.882812.4375-5.160156.839844-.113281.65625-.355469.984375-.734375.984375-.234375 0-.519531-.289063-.859375-.859375-.339844-.578125-.503906-.980469-.503906-1.214844 0-2.953125-.324219-5.628906-.949219-8.042969-.074219-.234375-.285156-.5625-.636719-.976562-.347656-.421875-.632812-.679688-.84375-.773438l.148438-.347656c.0625.019531.535156.160156 1.421875.417969.875.257812 1.328125.382812 1.347656.382812-.019531 0 .925781-.117187 2.84375-.347656 2.59375-.234375 6.480469-.625 11.652344-1.160156.117187-.023438.34375-.085938.671875-.179688.320312-.09375.566406-.132812.734375-.132812.179687 0 .648437.3125 1.382812.929687.742188.621094 1.105469 1.023438 1.105469 1.210938 0 .140625-.082031.300781-.238281.488281-.234375.234375-.367188.378906-.390625.4375-.023438.058594-.09375.339844-.210938.824219-.234375.796875-.566406 1.992187-1.015625 3.582031-.328125 1.3125-.53125 2.066406-.625 2.28125-.398437 1.097656-.832031 1.65625-1.296875 1.65625-.28125 0-.546875-.203125-.800781-.597656h-1.15625s-1.421875.09375-4.269531.273437v1.476563c0 1.546875.269531 2.570312.804687 3.09375.53125.515625 1.570313.769531 3.109375.769531h3.492188c1.453125 0 2.472656-.152344 3.054687-.457031.820313-.375 1.382813-1.183594 1.683594-2.421875.191406-.699219.390625-1.976563.597656-3.828125h.3125c.074219 1.453125.257813 3.191406.5625 5.234375 0 0 .15625.140625.460938.414062.300781.289063.453125.53125.453125.746094zm-7.125-14.046875c0-.136719-.152344-.296875-.449219-.472656-.308594-.171875-.535156-.246094-.671875-.226563l-6.597656.453125c.398437.402344.582031.75.554687 1.058594l-.242187 2.734375h.316406c.046875 0 .746094-.058594 2.09375-.175781l4.371094-.3125c.414062-1.710938.625-2.730469.625-3.058594zm-.949219 4.355469c-.136719-.023438-.238281-.039063-.3125-.039063-1.371094 0-3.417969.109375-6.144531.3125v3.308594h.660156c.191406 0 1.910156-.140625 5.171875-.425781.417969-1.632813.625-2.6875.625-3.15625zm-8.074219-.671875v-2.699219c0-.136719-.097656-.316406-.296875-.546875-.195312-.21875-.363281-.355469-.503906-.402344l-5.722656.8125.488281 3.578125zm0 4.566406v-3.5l-5.894531.785156.316406 3.484375zm0 0"/></svg>