<svg height="40" viewBox="0 0 40 40" width="40" xmlns="http://www.w3.org/2000/svg"><path d="m32.144531 23.527344c0 .019531-.101562.273437-.3125.769531-.210937.488281-.328125.800781-.351562.941406v9.167969c0 .207031.015625.480469.035156.824219.027344.34375.035156.570312.035156.71875 0 1.613281-.242187 2.421875-.734375 2.421875-.359375 0-.613281-.421875-.769531-1.261719-.121094-.5625-.175781-1.042969-.175781-1.441406v-12.140625c0-.234375-.125-.523438-.371094-.851563-.25-.328125-.472656-.554687-.6875-.695312v-.351563c2.222656.371094 3.332031 1.007813 3.332031 1.898438zm-19.613281 1.148437c0 .09375-.046875.296875-.125.601563-.089844.304687-.125.515625-.125.632812-.214844 2.851563-.496094 4.921875-.855469 6.210938-.632812 2.363281-1.765625 4.445312-3.390625 6.25-.125-.328125-.179687-.445313-.179687-.351563.234375-.421875.5625-1.054687.984375-1.894531 1.21875-2.765625 1.820312-6.03125 1.820312-9.792969 0-.773437-.054687-1.3125-.171875-1.617187-.210937-.542969-.738281-1.101563-1.578125-1.683594.023438-.066406.070313-.183594.140625-.355469h.351563c.515625 0 1.125.179688 1.820312.527344.871094.449219 1.308594.941406 1.308594 1.472656zm0 0"/></svg>