<svg height="40" viewBox="0 0 40 40" width="40" xmlns="http://www.w3.org/2000/svg"><path d="m32.355469 36.316406c0 .492188-.71875.839844-2.171875 1.054688-.792969.113281-1.585938.171875-2.355469.171875-1.472656 0-2.484375-.078125-3.046875-.242188-1.21875-.347656-1.832031-1.097656-1.832031-2.242187v-11.304688c0-.378906-.203125-.800781-.609375-1.285156-.414063-.480469-.804688-.753906-1.179688-.824219.070313-.234375.199219-.347656.390625-.347656.390625 0 .992188.125 1.789063.386719 1.054687.347656 1.578125.757812 1.578125 1.222656 0 .027344-.078125.269531-.246094.738281-.160156.464844-.25.828125-.25 1.085938l-.097656 4.253906v6.105469c0 .820312 1.023437 1.226562 3.085937 1.226562.933594 0 1.617188-.109375 2.039063-.3125.535156-.285156.925781-.820312 1.15625-1.617187.160156-.65625.429687-1.648438.800781-2.980469.097656.019531.214844.074219.355469.136719l-.179688 3.582031c0 .074219.03125.128906.074219.171875.46875.46875.699219.8125.699219 1.019531zm-12.742188-11.796875c0 .054688-.039062.164063-.132812.335938-.09375.175781-.15625.289062-.179688.335937-.023437.304688-.054687.839844-.109375 1.609375v8.820313c-.039062.234375-.078125.453125-.109375.660156-.113281.421875-.296875.636719-.53125.636719-.289062 0-.550781-.4375-.785156-1.296875-.199219-.679688-.292969-1.152344-.292969-1.40625 0-.046875.058594-.214844.164063-.492188.097656-.285156.15625-.457031.15625-.53125v-8.390625c0-.1875-.171875-.460937-.511719-.84375-.339844-.367187-.609375-.601562-.824219-.695312.023438-.070313.070313-.183594.140625-.355469.308594 0 .828125.140625 1.585938.425781.953125.371094 1.429687.773438 1.429687 1.1875zm-5.085937.808594c0 .140625-.074219.277344-.210938.410156-.140625.121094-.210937.1875-.210937.1875-.042969.402344-.152344 1.109375-.3125 2.148438-.382813 2.097656-.90625 3.878906-1.585938 5.328125-1.003906 2.179687-2.441406 3.945312-4.316406 5.300781-.160156-.09375-.246094-.199219-.246094-.3125.476563-.5625.867188-1.066406 1.195313-1.511719.890625-1.238281 1.523437-2.265625 1.894531-3.09375 1.105469-2.476562 1.652344-5.035156 1.652344-7.679687 0-1.125-.398438-1.933594-1.195313-2.421875.046875-.074219.105469-.179688.179688-.3125.210937 0 .742187.179687 1.609375.554687 1.03125.449219 1.546875.914063 1.546875 1.402344zm0 0"/></svg>