<?xml version="1.0" standalone="no"?>
<!DOCTYPE svg PUBLIC "-//W3C//DTD SVG 20010904//EN"
 "http://www.w3.org/TR/2001/REC-SVG-20010904/DTD/svg10.dtd">
<svg version="1.0" xmlns="http://www.w3.org/2000/svg"
  viewBox="-140 -100 650.000000 650.000000"
 preserveAspectRatio="xMidYMid meet">

<g transform="translate(0.000000,466.000000) scale(0.100000,-0.100000)"
fill="#000000" stroke="none">
<path d="M1348 4337 c-7 -8 -31 -40 -53 -72 l-40 -58 -395 6 c-217 4 -447 11
-510 16 -63 6 -116 8 -118 7 -2 -2 21 -47 50 -100 44 -80 56 -96 73 -92 122
29 536 59 760 54 l160 -3 3 -257 2 -258 -147 0 c-148 1 -476 13 -672 26 l-104
7 49 -94 c58 -109 36 -102 239 -75 79 11 229 20 383 23 l252 6 0 -74 c0 -41
-3 -159 -7 -263 l-6 -189 -396 6 c-218 4 -450 11 -515 17 -66 5 -121 8 -123 6
-2 -2 19 -47 48 -100 35 -66 56 -96 65 -92 66 25 460 56 727 56 l187 0 0 -40
c0 -52 22 -106 46 -112 55 -14 151 58 175 130 9 26 12 196 13 631 l1 596 65
35 c93 51 91 61 -42 177 -109 94 -141 109 -170 80z"/>
<path d="M2739 4343 c-9 -2 -40 -36 -70 -75 l-54 -71 -225 7 c-236 7 -515 22
-612 32 l-57 6 56 -102 c52 -94 57 -101 82 -95 98 21 294 37 529 42 l272 6 0
-253 0 -253 -242 6 c-134 3 -314 11 -401 17 -87 7 -161 9 -164 7 -3 -3 17 -47
44 -97 l48 -92 50 6 c203 25 343 36 490 38 l170 3 3 -90 c2 -49 0 -168 -3
-264 l-7 -174 -357 6 c-196 4 -414 11 -485 16 -72 6 -131 9 -132 8 -1 -1 23
-45 52 -97 39 -69 59 -94 71 -93 10 1 65 9 123 17 147 21 441 38 595 34 l130
-3 -4 -101 c-3 -97 -2 -102 20 -118 67 -46 192 24 219 124 7 26 7 78 0 167 -6
70 -13 344 -17 609 l-6 481 76 52 c77 54 91 70 81 96 -6 15 -206 175 -240 192
-11 5 -26 8 -35 6z"/>
<path d="M930 2613 c-148 -323 -496 -767 -839 -1068 -51 -45 -91 -88 -91 -98
0 -15 12 -12 82 25 144 75 403 270 588 444 l83 79 -7 -325 c-8 -368 -23 -893
-33 -1142 -6 -180 -4 -190 45 -209 50 -19 153 33 192 96 15 24 21 53 23 111
l2 79 1026 5 c1111 5 1059 3 1059 59 0 20 -23 49 -97 122 -154 151 -167 155
-233 82 -24 -27 -65 -72 -92 -101 l-50 -52 -369 0 -369 0 0 195 0 194 423 3
c452 3 457 4 457 52 0 25 -174 211 -210 224 -39 15 -66 -5 -126 -90 l-55 -78
-245 0 -244 0 0 195 0 195 433 0 c323 0 436 3 445 12 7 7 12 24 12 39 0 21
-22 46 -106 123 -106 96 -143 117 -173 99 -9 -5 -38 -44 -66 -86 l-50 -77
-247 0 -248 0 0 185 0 185 545 0 545 0 11 24 c8 17 8 29 0 45 -15 26 -206 198
-244 217 -50 27 -68 16 -132 -83 l-60 -93 -358 0 c-227 0 -356 4 -352 10 3 5
41 51 85 102 77 90 81 93 156 117 81 27 106 49 89 77 -6 8 -85 48 -176 88
l-167 73 -4 -91 c-3 -71 -14 -123 -48 -233 l-43 -143 -381 0 -380 0 40 43 c23
23 57 63 77 88 33 41 43 47 110 63 41 9 84 24 95 32 28 20 28 55 0 81 -27 23
-273 203 -279 203 -3 0 -24 -44 -49 -97z m700 -708 l0 -185 -330 0 -330 0 0
185 0 185 330 0 330 0 0 -185z m0 -490 l0 -195 -330 0 -330 0 0 195 0 195 330
0 330 0 0 -195z m0 -500 l0 -195 -330 0 -330 0 0 195 0 195 330 0 330 0 0
-195z"/>
</g>
</svg>
