<?xml version="1.0" standalone="no"?>
<!DOCTYPE svg PUBLIC "-//W3C//DTD SVG 20010904//EN"
 "http://www.w3.org/TR/2001/REC-SVG-20010904/DTD/svg10.dtd">
<svg version="1.0" xmlns="http://www.w3.org/2000/svg"
 viewBox="-25 -15 172.000000 188.000000"
 preserveAspectRatio="xMidYMid meet">

<g transform="translate(0.000000,138.000000) scale(0.100000,-0.100000)"
fill="#000000" stroke="none">
<path d="M260 1153 l0 -43 130 0 130 0 0 -35 0 -35 -116 0 -115 0 3 -41 3 -42
113 2 113 2 -3 -38 -3 -38 -127 1 -128 1 0 -41 0 -41 128 0 127 0 0 -25 c0
-23 4 -25 50 -28 l50 -3 -3 218 c-2 120 -4 219 -5 220 -1 0 -80 3 -175 5
l-172 3 0 -42z"/>
<path d="M650 1153 l0 -43 130 0 130 0 0 -35 0 -35 -116 0 -115 0 3 -41 3 -42
113 2 113 2 -3 -38 -3 -38 -127 0 -128 0 0 -40 0 -40 128 0 127 0 0 -25 c0
-23 4 -25 50 -28 l50 -3 -3 218 c-2 120 -4 219 -5 220 -1 0 -80 3 -175 5
l-172 3 0 -42z"/>
<path d="M380 728 c-17 -49 -35 -76 -81 -120 -32 -31 -59 -60 -59 -65 0 -5 12
-26 26 -47 l26 -38 29 28 29 28 0 -185 0 -185 28 2 c15 1 37 3 50 3 15 1 22 7
22 21 0 20 7 20 285 20 l285 0 0 43 0 42 -135 -3 -135 -4 0 36 0 36 100 0 100
0 0 40 0 40 -100 0 -100 0 0 30 0 30 100 0 100 0 0 43 0 42 -100 -3 -100 -3 0
31 0 32 120 -3 120 -4 0 43 0 42 -105 0 c-58 0 -105 3 -105 6 0 3 9 19 20 34
23 33 21 36 -40 45 l-45 7 -22 -46 -23 -46 -99 0 -99 0 13 38 c13 36 13 37
-13 43 -64 15 -68 13 -92 -53z m275 -138 c0 -25 0 -25 -107 -28 -108 -3 -108
-3 -108 21 0 13 3 27 7 31 4 4 52 5 107 4 100 -3 101 -3 101 -28z m5 -140 l0
-30 -110 0 -110 0 0 30 0 30 110 0 110 0 0 -30z m-5 -145 l0 -30 -105 0 c-93
0 -105 2 -108 18 -9 44 2 48 110 45 l103 -3 0 -30z"/>
</g>
</svg>
