<svg height="40" viewBox="0 0 40 40" width="40" xmlns="http://www.w3.org/2000/svg"><path d="m30.636719 12.75c0 .230469-.164063.347656-.492188.347656h-3.300781c-.890625 0-2.847656.152344-5.890625.460938-.050781.039062-.308594.476562-.777344 1.296875-.960937 1.660156-1.945312 3.113281-2.953125 4.351562l-1.570312 1.964844-.140625 9.902344c0 .539062-.152344.804687-.460938.804687-.210937 0-.40625-.40625-.597656-1.226562-.136719-.632813-.207031-1.148438-.207031-1.546875 0-.203125.054687-.515625.171875-.929688.117187-.40625.175781-.71875.175781-.929687v-5.195313c-.488281.421875-1.328125 1.007813-2.511719 1.761719-1.363281.859375-2.1875 1.296875-2.46875 1.296875-.046875-.03125-.132812-.109375-.25-.25.679688-.402344 1.605469-1.027344 2.773438-1.894531 1.476562-1.078125 2.21875-1.777344 2.21875-2.105469 0-.097656-.234375-.597656-.710938-1.511719l.109375-.175781c.511719.140625 1.011719.402344 1.511719.777344 1.261719-1.359375 2.609375-3.386719 4.03125-6.078125-.019531-.023438-.066406-.039063-.140625-.039063-.511719 0-1.625.195313-3.332031.5625-.75.167969-1.042969.25-.875.25-.402344 0-.886719-.210937-1.480469-.632812-.582031-.417969-.988281-.820313-1.222656-1.1875l.210937-.214844c.742188.488281 1.46875.734375 2.171875.734375.5625 0 2.335938-.207031 5.304688-.628906.863281-1.804688 1.296875-2.84375 1.296875-3.125 0-.484375-.308594-.914063-.914063-1.261719 0-.144531.09375-.207031.289063-.207031.367187 0 .882812.171875 1.554687.519531.667969.355469 1 .691406 1 1.019531-1.023437 1.496094-1.609375 2.46875-1.753906 2.914063.046875.019531.113281.035156.207031.035156 2.183594 0 4.136719-.1875 5.867188-.5625.09375-.019531.28125-.109375.5625-.261719.28125-.15625.441406-.226562.484375-.226562.242187 0 .648437.144531 1.234375.453125.582031.304687.875.554687.875.738281zm0 0"/></svg>