<svg height="40" viewBox="0 0 40 40" width="40" xmlns="http://www.w3.org/2000/svg"><path d="m33.546875 23.59375c0 .265625-.371094.386719-1.121094.386719-.046875 0-2.238281-.039063-6.5625-.101563-.304687 0-1.289062.0625-2.953125.210938-3.160156.28125-6.851562.863281-11.09375 1.75-.160156.03125-.566406.160156-1.222656.410156-.65625.238281-1.003906.363281-1.058594.363281-.375 0-.929687-.269531-1.6875-.800781-.65625-.472656-1.117187-.90625-1.394531-1.296875.136719-.074219.21875-.109375.238281-.109375.054688 0 .367188.128906.949219.386719.589844.253906.9375.367187 1.058594.347656l10.84375-1.574219v-2.144531c0-.019531-.039063-.035156-.105469-.035156.09375 0-.253906.054687-1.058594.175781-.890625.136719-1.644531.265625-2.273437.386719-1.121094.234375-1.640625.347656-1.542969.347656-.328125 0-.738281-.214844-1.234375-.625-.421875-.359375-.746094-.707031-.984375-1.058594.125-.097656.203125-.140625.25-.140625 0 0 .21875.132813.644531.402344.4375.269531.726563.394531.859375.371094l5.445313-.699219v-2.144531c-.046875 0-.105469 0-.179688 0 .074219 0-.179687.035156-.769531.101562-.910156.09375-1.722656.226563-2.421875.386719-1.003906.265625-1.472656.386719-1.402344.386719-.257812 0-.644531-.167969-1.15625-.511719-.519531-.332031-.847656-.621094-.984375-.847656-.070312-.148438-.132812-.328125-.175781-.5625l.277344-.183594c.492187.609375 1 .917969 1.507812.917969.515625 0 1.40625-.078125 2.667969-.234375 1.269531-.152344 2.144531-.296875 2.636719-.4375-.046875-.699219-.105469-1.414063-.179688-2.140625-.132812-.652344-.601562-1.1875-1.398437-1.617188.160156-.1875.269531-.273437.316406-.273437.402344 0 1.011719.164062 1.84375.503906.828125.34375 1.246094.675781 1.246094 1.003906 0 .296875-.167969.625-.496094.980469v1.265625c.933594-.027344 2.277344-.171875 4.015625-.457031.074219-.023438.21875-.125.4375-.296875.21875-.179688.34375-.265625.363281-.265625.355469 0 .820313.09375 1.402344.285156.722656.203125 1.078125.425781 1.078125.660156 0 .289063-.238281.449219-.734375.492188-.328125.03125-.652344.035156-.980469.035156l-5.582031.496094v2.207031c.796875-.019531 1.972656-.136719 3.542969-.347656.070312 0 .21875-.0625.445312-.199219.21875-.121094.382813-.1875.476563-.1875.203125 0 .582031.09375 1.117187.296875.539063.199219.804688.363281.804688.503906 0 .09375-.101563.183594-.3125.25-.492188.167969-1.476563.304688-2.945313.421875-1.054687.074219-2.101562.136719-3.128906.210938v2.210937c1.527344-.160156 3.359375-.335937 5.511719-.523437.632812-.023438 1.554687-.109375 2.773437-.25.074219 0 .226563-.0625.460938-.1875.234375-.132813.382812-.199219.453125-.199219.351562 0 .992187.152344 1.929687.457031 1.027344.328125 1.542969.605469 1.542969.839844zm0 0"/></svg>