<svg height="40" viewBox="0 0 40 40" width="40" xmlns="http://www.w3.org/2000/svg"><path d="m33.9375 26.28125-.140625.238281c-2.011719.265625-3.628906.390625-4.847656.390625-1.898438-1.921875-3.804688-3.851562-5.71875-5.789062-2.742188-2.734375-4.703125-4.296875-5.898438-4.667969l.101563-.25h.359375c.390625 0 1.117187.347656 2.171875 1.058594.796875.53125 1.472656 1.050781 2.035156 1.539062.464844-.300781 1.136719-.835937 2.003906-1.613281 1.046875-.910156 1.574219-1.484375 1.574219-1.71875 0-.160156-.074219-.457031-.222656-.875-.15625-.421875-.304688-.621094-.4375-.597656l-11.625 1.546875c.84375.816406 1.269531 1.316406 1.269531 1.507812 0 .117188-.046875.320313-.125.609375-.082031.292969-.140625.496094-.160156.617188-.234375 1.894531-.351563 4.097656-.351563 6.597656v.496094c2.132813-.730469 4.433594-1.777344 6.914063-3.164063l.144531.246094c-1.40625.910156-3.496094 2.308594-6.25 4.175781 0 0-.234375.234375-.699219.703125-.328125.328125-.59375.496094-.773437.496094-.148438 0-.320313-.214844-.546875-.636719-.21875-.421875-.339844-.734375-.371094-.945312.515625-1.375.769531-4.320313.769531-8.808594 0-.613281-.21875-1.183594-.660156-1.722656-1.496094.28125-2.625.570312-3.371094.875-.65625.253906-.941406.390625-.84375.390625-.488281 0-1.21875-.742188-2.175781-2.214844l.25-.136719c.796875.511719 1.402344.765625 1.824219.765625.1875 0 1.414062-.175781 3.679687-.523437 2.882813-.445313 7-.984375 12.359375-1.609375 1.105469-.054688 2.492188-.199219 4.183594-.464844.082031-.019531.246094-.128906.472656-.332031.21875-.199219.402344-.292969.539063-.292969.398437 0 1.039062.078125 1.929687.238281 1.054688.234375 1.585938.460938 1.585938.671875 0 .183594-.554688.335938-1.65625.453125-.625.074219-1.574219.148438-2.84375.234375-1.261719.078125-2.210938.148438-2.84375.1875.421875.289063.84375.546875 1.269531.808594.625.449219.949219.746094.949219.910156 0 .28125-1.820313 1.417969-5.445313 3.40625 2.3125 1.945313 4.132813 3.371094 5.445313 4.28125 2.285156 1.546875 4.351562 2.515625 6.175781 2.917969zm0 0"/></svg>