<?xml version="1.0" standalone="no"?>
<!DOCTYPE svg PUBLIC "-//W3C//DTD SVG 20010904//EN"
 "http://www.w3.org/TR/2001/REC-SVG-20010904/DTD/svg10.dtd">
<svg version="1.0" xmlns="http://www.w3.org/2000/svg"
 viewBox="-20 -20 180.000000 162.000000"
 preserveAspectRatio="xMidYMid meet">

<g transform="translate(0.000000,122.000000) scale(0.100000,-0.100000)"
fill="#000000" stroke="none">
<path d="M170 798 l0 -43 105 3 105 3 0 -159 0 -159 -61 -7 c-34 -3 -82 -6
-106 -6 l-44 0 28 -50 c15 -27 35 -50 43 -50 49 1 300 44 414 71 l135 32 -6
51 c-3 28 -7 52 -8 54 -1 1 -18 -5 -39 -13 -36 -15 -230 -65 -253 -65 -10 0
-13 37 -13 150 l0 150 110 0 c123 0 104 12 171 -104 65 -113 200 -231 348
-306 l65 -32 38 40 c21 23 38 45 38 49 0 5 -24 14 -52 21 -64 15 -145 55 -190
93 -33 28 -33 28 -12 43 41 29 169 138 172 146 2 5 -20 16 -48 25 l-51 17 -33
-38 c-19 -22 -54 -54 -79 -71 l-45 -33 -35 40 c-32 35 -67 90 -67 105 0 3 97
5 215 5 l215 0 0 40 0 40 -530 0 -530 0 0 -42z"/>
</g>
</svg>
