<svg height="40" viewBox="0 0 40 40" width="40" xmlns="http://www.w3.org/2000/svg"><path d="m25.691406 13.558594c0 .09375-.085937.382812-.25.859375-.164062.484375-.253906.816406-.28125 1.003906-.085937 1.144531-.195312 2.308594-.3125 3.472656-.234375 1.875-.539062 2.808594-.910156 2.808594-.050781 0-.171875-.066406-.355469-.1875-.1875-.136719-.304687-.199219-.347656-.199219-.675781 0-2.785156.515625-6.324219 1.546875 0 .679688-.003906 1.589844-.035156 2.742188-.042969 1.351562-.0625 2.273437-.0625 2.769531l6.246094-2.457031c-.65625-1.058594-1.335938-1.914063-2.042969-2.570313l.109375-.238281c.984375.347656 1.933594.957031 2.847656 1.824219 1.046875 1.003906 1.574219 1.96875 1.574219 2.878906 0 .703125-.21875 1.050781-.660156 1.050781-.234375 0-.527344-.363281-.886719-1.085937-.203125-.464844-.425781-.933594-.660156-1.40625-1.339844.707031-2.679688 1.40625-4.042969 2.109375-1.515625.84375-2.691406 1.789062-3.503906 2.84375-.214844-.101563-.429688-.367188-.636719-.828125-.203125-.460938-.3125-.808594-.3125-1.070313 0-.179687.136719-.671875.421875-1.457031.277344-.78125.421875-1.328125.421875-1.628906v-9.828125c0-1.40625-.457031-2.339844-1.371094-2.808594-.050781-.214844.117188-.324219.492188-.324219.347656 0 .75.089844 1.191406.265625.449219.171875.667969.273438.667969.273438.113281 0 1.25-.246094 3.398437-.710938-.019531-.09375-.023437-.757812-.023437-2 0-.984375-.449219-1.679687-1.335938-2.101562v-.390625l.664063-.039063c.253906 0 .734375.179688 1.4375.527344.707031.359375 1.054687.636719 1.054687.847656 0 .042969-.070312.230469-.210937.558594-.136719.328125-.210938.527344-.210938.597656v1.652344c.023438.019531.078125.035156.171875.035156.382813 0 .855469-.109375 1.445313-.316406.585937-.207031.863281-.316406.84375-.316406.207031 0 .554687.171875 1.046875.507812.492187.34375.742187.605469.742187.789063zm-1.929687.914062c.019531-.375-.152344-.65625-.527344-.84375l-6.285156 1.125v2.980469c1.113281-.277344 2.234375-.546875 3.351562-.800781 1.511719-.382813 2.621094-.570313 3.320313-.570313zm-.140625 2.875c-1.632813.1875-3.855469.617188-6.671875 1.273438v3.222656c1.507812-.394531 3.691406-.855469 6.523437-1.363281zm0 0"/></svg>