<svg height="40" viewBox="0 0 40 40" width="40" xmlns="http://www.w3.org/2000/svg"><path d="m33.214844 25.625c0 .308594-.359375.449219-1.089844.421875l-4.453125-.171875h-6.035156c-2.652344-.019531-6.625.472656-11.9375 1.496094l-.453125.304687c-.328125.203125-.5625.28125-.710938.230469-.160156-.15625-.332031-.65625-.523437-1.46875-.164063-.703125-.246094-1.144531-.246094-1.339844l.246094-.554687c.140625-.375.210937-.636719.210937-.777344v-9.582031c-.019531-.074219-.082031-.195313-.175781-.386719-.167969-.371094-.582031-.863281-1.261719-1.472656 0-.167969.105469-.246094.3125-.246094.492188 0 1.078125.171875 1.761719.527344.792969.398437 1.1875.804687 1.1875 1.226562 0 .257813-.066406.492188-.214844.703125-.132812.210938-.203125.375-.203125.496094l-.144531 10.53125.144531.347656c.070313.1875.164063.277344.277344.277344 7.582031-1.003906 13.15625-1.511719 16.707031-1.511719h1.480469c.277344 0 .636719-.070312 1.066406-.222656.4375-.15625.699219-.230469.792969-.230469.277344 0 .890625.195313 1.839844.578125.945312.386719 1.421875.664063 1.421875.824219zm0 0"/></svg>