<?xml version="1.0" standalone="no"?>
<!DOCTYPE svg PUBLIC "-//W3C//DTD SVG 20010904//EN"
 "http://www.w3.org/TR/2001/REC-SVG-20010904/DTD/svg10.dtd">
<svg version="1.0" xmlns="http://www.w3.org/2000/svg"
 viewBox="0 0 242.000000 166.000000"
 preserveAspectRatio="xMidYMid meet">

<g transform="translate(0.000000,166.000000) scale(0.100000,-0.100000)"
fill="#000000" stroke="none">
<path d="M1917 1223 l-51 -66 -229 7 -230 7 7 -33 c3 -18 10 -35 14 -38 4 -3
164 -3 356 0 325 5 350 6 360 23 9 16 1 28 -64 87 -41 38 -83 71 -93 74 -13 3
-32 -14 -70 -61z"/>
<path d="M769 1214 l-43 -56 -238 3 c-131 2 -238 2 -238 0 0 -2 5 -21 12 -43
9 -30 15 -37 27 -32 9 4 169 9 356 12 338 4 360 6 348 38 -7 19 -149 134 -166
134 -8 0 -34 -25 -58 -56z"/>
<path d="M2016 905 c-8 -9 -30 -36 -48 -61 l-32 -45 -176 1 c-96 1 -178 1
-182 1 -4 -1 -1 -17 5 -37 l13 -36 284 2 c157 0 295 3 307 7 23 5 30 28 15 48
-12 18 -126 112 -149 124 -17 9 -25 8 -37 -4z"/>
<path d="M704 889 c-18 -5 -48 -27 -68 -50 l-37 -40 -210 3 c-115 2 -209 1
-209 -2 0 -3 4 -21 10 -40 l10 -35 332 3 c183 1 343 4 354 7 55 12 25 61 -83
136 -44 31 -51 32 -99 18z"/>
</g>
</svg>
