<svg height="40" viewBox="0 0 40 40" width="40" xmlns="http://www.w3.org/2000/svg"><path d="m34.28125 20.402344c0 .328125-.375.484375-1.128906.484375.082031 0-2.53125-.070313-7.84375-.199219.265625.265625.550781.582031.84375.933594-1.339844 1.132812-2.492188 2.179687-3.460938 3.125.085938.023437.167969.039062.242188.039062.859375 0 1.597656-.082031 2.210937-.253906.085938-.027344.230469-.128906.445313-.296875.21875-.167969.351562-.25.398437-.25.246094 0 .71875.167969 1.433594.503906.707031.335938 1.066406.589844 1.066406.78125 0 .105469-.113281.210938-.34375.304688-.234375.09375-.40625.140625-.539062.140625-.945313.023437-2.375.078125-4.304688.160156-2.171875.074219-4.738281.292969-7.6875.640625-.207031.027344-.644531.136719-1.285156.316406-.644531.195313-1.074219.289063-1.285156.289063-.382813 0-.824219-.246094-1.328125-.730469-.511719-.472656-.824219-.917969-.921875-1.316406.050781-.085938.132812-.125.234375-.125-.074219 0 .148437.125.6875.382812.53125.25 1.015625.382813 1.453125.382813 0 0 1.175781-.125 3.53125-.367188-.71875-1.070312-1.511719-2.304687-2.371094-3.703125h-.078125c-.511719 0-1.410156.195313-2.699219.570313-1.285156.375-2.085937.5625-2.414062.5625-.351563 0-.960938-.296875-1.84375-.886719-.886719-.589844-1.414063-1.058594-1.574219-1.40625l.121094-.238281c1.1875.585937 2.210937.882812 3.097656.882812.082031 0 .925781-.082031 2.53125-.242187l5.269531-.484375c.054688-.074219.085938-.21875.085938-.402344-.085938-2.464844-.117188-3.769531-.117188-3.902344 0-.753906-.476562-1.515625-1.410156-2.289062l.113281-.324219c.570313.082031 1.214844.28125 1.933594.597656.9375.375 1.410156.746094 1.410156 1.089844 0 .058594-.097656.199219-.285156.425781-.1875.226563-.28125.367188-.28125.417969v4.140625c.828125-.046875 2.046875-.128906 3.660156-.238281v-4.90625c.03125-.617188-.382812-1.246094-1.242187-1.886719l.125-.246094h.316406c.324219 0 .90625.210938 1.769531.625.859375.414063 1.289063.757813 1.289063 1.023438 0 .035156-.09375.148437-.289063.367187-.179687.210938-.289062.359375-.316406.445313-.058594.15625-.125 1.617187-.199219 4.375.074219.035156.167969.039062.277344.039062.238281 0 .609375-.019531 1.082031-.070312.484375-.058594.84375-.085938 1.089844-.085938.214844-.289062.597656-.925781 1.167969-1.910156.617187-1.121094.925781-1.75.925781-1.878906 0-.054688-.308594-.546875-.925781-1.480469.109375-.136719.1875-.203125.242187-.203125.476563 0 1.125.21875 1.929688.644531.851562.511719 1.289062.976563 1.289062 1.414063 0 .15625-.148437.289062-.441406.398437-.40625.15625-.621094.25-.644531.28125-.621094.617188-1.546875 1.515625-2.777344 2.695313.050781.023437.109375.039062.160156.039062h.15625c.914063-.023437 1.890625-.175781 2.945313-.441406l1.242187-.328125c.265625 0 .882813.21875 1.828125.644531.953125.433594 1.433594.746094 1.433594.929688zm-19.953125-1.007813c0 .429688-.152344.648438-.441406.648438-.402344 0-1.023438-.648438-1.851563-1.933594-.617187-.941406-1.101562-1.792969-1.453125-2.574219l.328125-.195312c1.179688.71875 1.945313 1.25 2.289063 1.601562.75.726563 1.128906 1.546875 1.128906 2.453125zm9.449219 2.210938c0-.476563-.277344-.71875-.84375-.71875-1.125 0-3.710938.222656-7.761719.675781 1.453125 1.21875 2.171875 2.207031 2.171875 2.949219 0 .289062-.042969.585937-.121094.878906 1.6875-.1875 3.230469-.34375 4.625-.480469 1.289063-1.9375 1.929688-3.039062 1.929688-3.304687zm0 0"/></svg>