<svg height="40" viewBox="0 0 40 40" width="40" xmlns="http://www.w3.org/2000/svg"><path d="m31.515625 8.503906c0 .203125-.292969.308594-.875.308594-.46875 0-1.183594 0-2.144531 0-.953125 0-1.671875 0-2.136719 0-2.222656 0-4.3125.058594-6.25.171875l.175781.59375c-.867187.441406-1.832031 1.09375-2.878906 1.933594-.871094.769531-1.730469 1.53125-2.597656 2.28125 2.570312-.308594 5.78125-.808594 9.617187-1.511719-.253906-.421875-1-1.0625-2.207031-1.933594l.136719-.238281c.722656.371094 1.785156.964844 3.191406 1.769531 1.402344.8125 2.109375 1.679688 2.109375 2.609375 0 .449219-.128906.671875-.386719.671875-.210937 0-.640625-.398437-1.285156-1.207031-.640625-.8125-.972656-1.214844-.996094-1.214844-.191406 0-1.722656.355469-4.601562 1.054688l-4.980469 1.234375c-.65625.179687-.941406.273437-.84375.273437-.121094 0-.34375-.175781-.6875-.523437-.332031-.359375-.53125-.605469-.578125-.746094.214844-.019531.503906-.09375.875-.207031.425781-.359375 1.082031-1.074219 1.96875-2.164063.816406-1.035156 1.394531-1.828125 1.722656-2.394531-.421875-.027344-1.359375.074219-2.789062.292969-1.4375.207031-2.40625.390625-2.898438.535156-.070312.019531-.234375.109375-.492187.253906-.257813.140625-.449219.214844-.5625.214844-.328125 0-.804688-.269531-1.4375-.800781-.542969-.449219-.933594-.859375-1.199219-1.234375l.144531-.210938c1.007813.632813 1.78125.949219 2.324219.949219 1.128906 0 2.558594-.125 4.300781-.390625 1.40625-.207031 2.828125-.421875 4.257813-.625v-1.96875c0-.347656-.460938-.808594-1.371094-1.371094l.109375-.210937h.597656c.382813 0 .867188.109375 1.460938.320312.660156.277344.988281.570313.988281.875 0 .28125-.171875.539063-.527344.773438v1.472656c.027344.019531.054688.035156.074219.035156.191406 0 .449219-.015625.777344-.050781s.566406-.058594.734375-.058594c1.144531-.019531 2.890625-.140625 5.226562-.347656.09375-.019531.289063-.089844.5625-.214844.289063-.113281.445313-.171875.492188-.171875.257812 0 .800781.15625 1.628906.476563.832031.3125 1.25.546875 1.25.695312zm0 0"/></svg>