<svg viewBox="0 0 40 40" xmlns="http://www.w3.org/2000/svg"><path d="m28.808594 18.894531c-.328125.164063-.585938.234375-.773438.210938-3.203125-.167969-4.804687-.246094-4.804687-.246094-2.480469 0-4.703125.171875-6.671875.527344-.136719.019531-.65625.132812-1.546875.347656-.792969.207031-1.246094.324219-1.359375.324219-.402344 0-1.21875-.5625-2.460938-1.6875l.242188-.25c.890625.519531 1.425781.757812 1.617187.738281l6.074219-.667969v-2.878906c-.050781-.019531-.125-.035156-.214844-.035156-.328125 0-.828125.070312-1.503906.210937-.683594.140625-1.15625.214844-1.410156.214844-.277344 0-.664063-.183594-1.136719-.535156-.480469-.355469-.816406-.664063-1.003906-.914063.023437-.113281.09375-.179687.207031-.203125.871094.46875 1.421875.703125 1.65625.703125 1.285156 0 2.421875-.140625 3.40625-.425781v-2.28125c0-.136719-.152344-.347656-.457031-.636719-.308594-.273437-.546875-.472656-.742188-.585937.121094-.167969.273438-.25.453125-.25.328125 0 .820313.132812 1.460938.398437.640625.273438.96875.539063.96875.796875 0 0-.085938.21875-.265625.664063-.179688.445312-.265625.816406-.265625 1.125v.671875c.050781.019531.109375.023437.179687.023437 1.140625 0 1.953125-.0625 2.453125-.203125.046875-.023437.15625-.09375.320313-.195312.164062-.101563.273437-.15625.320312-.15625.21875 0 .601563.113281 1.136719.351562.546875.234375.824219.433594.824219.59375 0 .28125-.714844.4375-2.140625.460938-.933594 0-1.859375 0-2.773438 0-.164062.019531-.269531.054687-.320312.097656v2.878906c.09375.027344.210937.039063.359375.039063 2.3125 0 3.898437-.074219 4.765625-.210938.070312-.019531.191406-.070312.351562-.160156.167969-.078125.28125-.113281.351563-.113281.1875 0 .65625.117187 1.390625.375.738281.265625 1.175781.460937 1.3125.597656zm-1.898438 4.179688c0-.054688-.3125.554687-.945312 1.804687-.625 1.25-.949219 2.054688-.949219 2.402344 0 .074219.019531.167969.050781.285156.039063.117188.058594.210938.058594.277344 0 .261719-.167969.386719-.496094.386719-.113281 0-.296875-.042969-.5625-.140625-.253906-.09375-.441406-.136719-.5625-.136719-.441406 0-1.660156.078125-3.664062.238281-1.996094.167969-3.140625.289063-3.417969.359375-.050781.023438-.121094.171875-.214844.449219-.09375.285156-.210937.425781-.347656.425781-.496094 0-.847656-.910156-1.058594-2.742187-.160156-1.261719-.300781-2.078125-.414062-2.449219-.261719-.75-.765625-1.394531-1.511719-1.933594.046875-.117187.125-.175781.238281-.175781.195313 0 .507813.09375.9375.277344.429688.191406.730469.285156.898438.285156-.167969 0 .4375-.105469 1.804687-.296875 1.367188-.199219 2.992188-.359375 4.855469-.472656.542969-.027344 1.347656-.085938 2.421875-.179688.125 0 .277344-.054687.472656-.175781.203125-.113281.328125-.171875.375-.171875.15625 0 .546875.234375 1.136719.714844.597656.476562.894531.800781.894531.96875zm-2.03125 0c-.253906-.328125-.445312-.496094-.5625-.496094h-1.929687c-.933594 0-3.261719.292969-6.984375.878906l.84375 4.386719c2.59375-.328125 5.144531-.566406 7.648437-.738281zm0 0"/></svg>