<?xml version="1.0" standalone="no"?>
<!DOCTYPE svg PUBLIC "-//W3C//DTD SVG 20010904//EN"
 "http://www.w3.org/TR/2001/REC-SVG-20010904/DTD/svg10.dtd">
<svg version="1.0" xmlns="http://www.w3.org/2000/svg"
 viewBox="-20 -20 180.000000 164.000000"
 preserveAspectRatio="xMidYMid meet">

<g transform="translate(0.000000,136.000000) scale(0.100000,-0.100000)"
fill="#000000" stroke="none">
<path d="M630 1074 l0 -66 -120 5 -120 5 0 -44 0 -44 120 0 120 0 0 -50 0 -51
-210 3 -210 3 0 -47 0 -48 470 0 470 0 0 48 0 47 -210 -3 -210 -3 0 50 0 51
120 0 120 0 0 46 0 45 -120 -7 -120 -7 0 67 0 66 -50 0 -50 0 0 -66z"/>
<path d="M350 460 l0 -200 50 0 50 0 0 35 0 35 230 0 230 0 0 -35 0 -35 50 0
50 0 0 200 0 200 -330 0 -330 0 0 -200z m565 30 l0 -75 -235 0 -235 0 -3 64
c-2 35 -1 70 2 78 5 11 48 13 238 11 l233 -3 0 -75z"/>
</g>
</svg>
