<svg height="40" viewBox="0 0 40 40" width="40" xmlns="http://www.w3.org/2000/svg"><path d="m32.917969 9.347656c0 .289063-.386719.414063-1.15625.390625l-5.195313-.175781-.632812 2.128906c-.371094 1.203125-.679688 1.804688-.914063 1.804688-.09375 0-.296875-.046875-.613281-.140625-.3125-.09375-.515625-.140625-.609375-.140625h-1.894531c-.890625.023437-3.210938.265625-6.953125.722656-.1875.019531-.4375.113281-.757813.269531-.3125.164063-.53125.234375-.648437.234375-.164063 0-.367188-.160156-.601563-.488281-.226562-.328125-.347656-.582031-.347656-.777344l.347656-.984375c.234375-.65625.382813-1.097656.429688-1.332031-.046875-.019531-.105469-.035156-.179688-.035156-.253906 0-1.488281.265625-3.679687.773437-.617188 0-1.421875-.609375-2.429688-1.820312.09375-.121094.1875-.179688.28125-.179688.703125.445313 1.203125.664063 1.511719.664063.140625 0 1.730469-.171875 4.777344-.523438.347656-1.050781.523437-1.785156.523437-2.210937 0-.136719-.109375-.402344-.320312-.773438-.023438-.070312-.148438-.222656-.375-.472656-.246094-.25-.359375-.394531-.359375-.4375.03125 0 .085937-.09375.175781-.285156.046875.03125.730469.398437 2.042969 1.125-.054688 0 .585937-.070313 1.921875-.203125l6.847656-.746094c.140625 0 .34375-.03125.597656-.089844.257813-.054687.445313-.085937.5625-.085937.257813 0 .683594.195312 1.28125.582031.589844.394531.890625.71875.890625.964844 0 .050781-.09375.273437-.300781.6875-.191406.414062-.300781.695312-.328125.859375.027344.019531.082031.035156.175781.035156 1.335938 0 2.328125-.050781 2.984375-.140625.558594-.28125.828125-.421875.808594-.421875.277344 0 .707031.144531 1.277344.4375.578125.292969.859375.558594.859375.785156zm-7.371094-2.453125c-.394531-.140625-.621094-.210937-.667969-.210937l-4.5625.359375c.117188.113281.234375.21875.351563.3125.164062.160156.25.332031.25.523437 0-.117187-.179688.265625-.527344 1.15625l4.953125-.421875zm-.378906 2.667969-5.089844.433594c-.285156.894531-.542969 1.75-.777344 2.550781l5.335938-.28125zm-5.761719-1.671875c0-.136719-.066406-.292969-.199219-.449219-.125-.171875-.257812-.25-.398437-.25l-3.445313.40625c-.09375.492188-.253906 1.148438-.488281 1.964844l4.28125-.378906c.167969-.773438.25-1.203125.25-1.292969zm-.421875 2.269531h-.214844c-.179687-.019531-1.53125.125-4.03125.4375-.347656 1-.613281 1.824219-.773437 2.480469l4.492187-.386719zm0 0"/></svg>