<svg height="40" viewBox="0 0 40 40" width="40" xmlns="http://www.w3.org/2000/svg"><path d="m32.285156 23.652344c0 .273437-.257812.425781-.769531.453125-7.027344.441406-12.980469 1.09375-17.863281 1.929687-.289063.046875-1.011719.261719-2.183594.632813-1.167969.375-1.761719.5625-1.761719.5625-.507812 0-1.175781-.679688-1.992187-2.03125l.242187-.109375c.65625.535156 1.203125.785156 1.652344.734375l5.511719-.773438v-9.796875c0-.203125-.210938-.523437-.632813-.945312-.351562-.351563-.664062-.589844-.945312-.734375l.132812-.214844c.121094.03125.546875.183594 1.289063.472656.734375.304688 1.128906.449219 1.171875.449219.378906 0 1.523437-.125 3.441406-.375 1.917969-.246094 3.015625-.417969 3.300781-.511719.089844-.039062.261719-.160156.507813-.347656.242187-.1875.40625-.277344.472656-.277344.824219 0 1.542969.234375 2.175781.699219v.277344c-.726562.328125-2.28125.613281-4.664062.847656-1.664063.136719-3.324219.277344-4.984375.421875-.101563.5625-.140625 1.457031-.140625 2.699219.039062.03125.113281.035156.210937.035156.230469 0 1.242188-.09375 3.015625-.296875 1.78125-.199219 2.730469-.328125 2.84375-.402344.046875-.023437.179688-.132812.386719-.316406.207031-.1875.339844-.28125.378906-.28125.871094 0 1.578125.199219 2.109375.589844v.273437c0 .164063-.503906.304688-1.507812.417969l-7.40625.886719c-.140625.585937-.210938 1.257812-.210938 2.007812 0 0 .011719.085938.039063.25 1.632812-.09375 3.785156-.320312 6.453125-.671875.117187-.019531.304687-.109375.5625-.265625.265625-.148437.421875-.222656.492187-.222656.234375 0 .601563.089844 1.089844.261719.488281.175781.734375.359375.734375.550781 0 .1875-.675781.363281-2.03125.519531-1.65625.148438-4.097656.402344-7.339844.777344v3.046875c1.886719-.214844 4.714844-.53125 8.496094-.980469.847656-.046875 2.035156-.203125 3.5625-.457031.074219-.019531.21875-.128906.441406-.332031.21875-.199219.359375-.304688.402344-.304688.378906 0 .996094.101563 1.839844.289063.984375.210937 1.476562.394531 1.476562.5625zm0 0"/></svg>