<svg height="40" viewBox="0 0 40 40" width="40" xmlns="http://www.w3.org/2000/svg"><path d="m31.722656 14.917969h-.492187c-1.703125 0-3.117188-.109375-4.210938-.320313-.207031-.046875-.707031-.507812-1.476562-1.398437-1.84375-2.183594-3.882813-4.523438-6.105469-7.023438-1.375 1.898438-3.078125 3.742188-5.089844 5.546875-2.128906 1.917969-4.15625 3.375-6.070312 4.386719v-.316406c2.941406-2.105469 5.414062-4.421875 7.40625-6.949219 1.78125-2.265625 2.671875-3.558594 2.671875-3.863281 0-.214844-.324219-.417969-.949219-.625v-.214844c.347656-.167969.546875-.25.589844-.25.257812 0 .722656.199219 1.390625.597656.664062.398438 1 .703125 1 .914063 0 .140625-.167969.285156-.496094.421875 3.136719 2.925781 5.105469 4.710937 5.902344 5.367187 2.265625 1.875 4.25 3.058594 5.929687 3.554688zm-8.109375-.949219c0 .214844-.515625.359375-1.539062.453125-4.757813.46875-6.871094.703125-6.355469.703125-.1875 0-.515625-.191406-.984375-.578125-.464844-.386719-.675781-.671875-.636719-.859375.074219.019531.289063.128906.636719.3125.214844.125.46875.183594.777344.183594 1.976562 0 3.738281-.148438 5.257812-.421875l.429688-.289063c.253906-.160156.472656-.238281.660156-.238281.308594 0 .640625.058594 1.019531.175781.492188.136719.734375.328125.734375.558594zm0 0"/></svg>