<?xml version="1.0" standalone="no"?>
<!DOCTYPE svg PUBLIC "-//W3C//DTD SVG 20010904//EN"
 "http://www.w3.org/TR/2001/REC-SVG-20010904/DTD/svg10.dtd">
<svg version="1.0" xmlns="http://www.w3.org/2000/svg"
 viewBox="-35 -30 205.000000 182.000000"
 preserveAspectRatio="xMidYMid meet">

<g transform="translate(0.000000,134.000000) scale(0.100000,-0.100000)"
fill="#000000" stroke="none">
<path d="M210 1113 l0 -48 230 3 230 3 0 -361 0 -361 -51 27 c-63 35 -114 91
-146 161 -24 51 -25 59 -14 131 6 42 14 112 17 155 6 73 6 77 -13 77 -11 0
-35 3 -52 6 l-31 7 0 -59 c0 -86 -25 -237 -54 -330 -30 -94 -86 -185 -144
-235 l-42 -36 39 -31 c22 -18 46 -32 54 -32 27 0 99 92 141 181 39 81 44 87
53 66 18 -40 66 -89 118 -122 114 -73 277 -111 526 -123 l151 -7 30 58 29 58
-108 -6 c-97 -6 -290 5 -372 21 l-31 7 0 173 0 174 185 -3 185 -3 0 48 0 48
-185 0 -185 0 0 153 0 154 225 6 c123 3 229 9 236 12 7 5 -1 19 -22 41 l-33
34 -483 0 -483 0 0 -47z"/>
</g>
</svg>
