<svg height="40" viewBox="0 0 40 40" width="40" xmlns="http://www.w3.org/2000/svg"><path d="m34.707031 29.390625c-3.484375.816406-6.285156 1.230469-8.394531 1.230469-.8125 0-6.160156-2.496094-16.042969-7.480469-1.207031 1.964844-2.828125 3.566406-4.835937 4.808594l-.140625-.277344c.929687-.777344 1.953125-2.089844 3.054687-3.933594 1.1875-1.988281 1.789063-3.519531 1.789063-4.597656 0-.449219-.292969-.984375-.875-1.613281.15625-.09375.253906-.148438.273437-.148438.382813 0 .917969.257813 1.632813.761719.71875.503906 1.070312.925781 1.070312 1.277344 0 .09375-.078125.222656-.242187.382812-.234375.242188-.359375.367188-.390625.386719-.203125.519531-.53125 1.277344-.976563 2.285156 1.84375 1.007813 4.171875 1.992188 6.984375 2.953125v-12.007812c0-.796875-.242187-1.1875-.734375-1.1875-.253906 0-.941406.039062-2.0625.132812-1.117187.09375-1.800781.140625-2.066406.140625-.511719 0-1.0625-.195312-1.65625-.597656-.59375-.394531-1.003906-.832031-1.238281-1.296875l.316406-.175781c.863281.582031 1.484375.875 1.859375.875.582031 0 2.902344-.179688 6.949219-.527344 4.234375-.371094 6.53125-.625 6.882812-.769531.0625-.023438.242188-.132813.511719-.328125.261719-.203125.410156-.304688.4375-.304688.253906 0 .683594.105469 1.296875.320313.605469.207031.910156.40625.910156.59375 0 .140625-.148437.269531-.457031.390625-.535156.1875-2.09375.421875-4.667969.695312-2.832031.289063-4.457031.46875-4.878906.5625.285156.371094.421875.578125.421875.601563 0 .113281-.027344.28125-.089844.507812-.054687.21875-.082031.382813-.082031.476563l-.140625 4.101562c.019531.023438.058594.039063.105469.039063.347656 0 1.285156-.078125 2.816406-.25 1.542969-.15625 2.363281-.277344 2.480469-.351563.046875-.019531.191406-.128906.4375-.3125.25-.1875.378906-.285156.398437-.285156.308594 0 .765625.074219 1.375.214844.730469.1875 1.085938.367187 1.085938.5625 0 .515625-1.3125.898437-3.945313 1.15625-.347656.023437-1.941406.117187-4.753906.28125v7.332031c2.550781.941406 5.097656 1.640625 7.625 2.109375 1.785156.347656 4.40625.691406 7.847656 1.019531zm0 0"/></svg>