<svg height="40" viewBox="0 0 40 40" width="40" xmlns="http://www.w3.org/2000/svg"><path d="m33.160156 18.769531c0 .261719-.207031.386719-.632812.386719-.15625 0-.414063-.035156-.773438-.097656-.347656-.074219-.617187-.109375-.800781-.109375h-3.691406l-.734375 4.875c.050781.03125.113281.035156.210937.035156.046875 0 .960938-.078125 2.742188-.238281.253906-.027344.59375.09375 1 .363281s.613281.53125.613281.785156c0 .246094-.175781.359375-.527344.359375-.140625 0-.34375-.03125-.597656-.070312-.253906-.042969-.457031-.074219-.597656-.074219h-3.96875c-.230469 0-1.429688.089844-3.578125.25-2.882813.1875-4.5625.292969-5.054688.3125-1.914062.144531-3.601562.328125-5.050781.5625-.777344.113281-1.199219.171875-1.265625.171875-.261719 0-.878906-.347656-1.863281-1.046875 0-.097656-.023438-.25-.070313-.464844h.277344c.191406 0 .46875.027344.828125.0625.363281.027344.625.046875.792969.046875.835937 0 1.648437-.054687 2.421875-.171875.507812-.070312.757812-.15625.738281-.25l-.316406-4.210937c-.074219-.023438-.132813-.03125-.171875-.03125l-4.292969.628906c-1.28125-.511719-1.9375-1.015625-1.957031-1.511719h.273437c.167969 0 .460938.027344.882813.074219.351562.042969.628906.058594.835937.035156l4.257813-.347656c.019531-.097656.023437-.214844.023437-.359375 0-.652344-.082031-1.34375-.273437-2.074219-.234375-.910156-.539063-1.503906-.914063-1.785156.328125-.09375.511719-.136719.5625-.136719.183594 0 .515625.089844 1 .261719.480469.175781.730469.3125.75.421875.03125.105469.089844 1.277344.179688 3.527344l2.8125-.179688v-3.082031c0-.421875-.214844-.886719-.636719-1.371094.09375-.171875.234375-.25.417969-.25.113281 0 .367187.070313.75.199219.382812.125.613281.222656.675781.296875.050781 1.261719.097656 2.621094.140625 4.066406 1.050781-.019531 2.082031-.097656 3.105469-.242187.046875-1.84375.070312-2.789063.070312-2.808594 0-.65625-.296875-1.21875-.878906-1.6875.285156-.113281.46875-.171875.5625-.171875.1875 0 .546875.109375 1.074219.3125.519531.214844.785156.386719.785156.53125l-.347656 3.753906c.019531.023438.054687.039063.109375.039063.367187 0 .882812-.027344 1.535156-.074219.800781-.074219 1.3125-.109375 1.546875-.109375.1875-.699219.28125-1.480469.28125-2.347656 0-.421875-.109375-.765625-.316406-1.03125-.203125-.273438-.433594-.546875-.667969-.828125.074219 0 .160156-.011719.265625-.039063.109375-.019531.183594-.035156.222656-.035156.167969 0 .578125.109375 1.234375.339844.65625.21875.984375.390625.984375.507812 0 .164063-.125.679688-.375 1.546875-.238281.976563-.382812 1.554688-.4375 1.714844h.960938c.328125-.027344.550781-.03125.671875-.03125.273437-.03125.707031-.089844 1.28125-.175781.582031-.09375 1.015625-.148438 1.289062-.148438.214844 0 .542969.148438.96875.429688.4375.28125.65625.515625.65625.695312zm-7.101562.386719-3.214844.214844-.285156 4.703125 2.78125-.140625zm-4.414063.324219-3.050781.238281.144531 4.566406 2.808594-.210937zm-4.210937 4.914062-.203125-4.601562-2.667969.25.207031 4.523437zm0 0"/></svg>