<?xml version="1.0" standalone="no"?>
<!DOCTYPE svg PUBLIC "-//W3C//DTD SVG 20010904//EN"
 "http://www.w3.org/TR/2001/REC-SVG-20010904/DTD/svg10.dtd">
<svg version="1.0" xmlns="http://www.w3.org/2000/svg"
 viewBox="-20 -20 180.000000 164.000000"
 preserveAspectRatio="xMidYMid meet">

<g transform="translate(0.000000,130.000000) scale(0.100000,-0.100000)"
fill="#000000" stroke="none">
<path d="M360 840 l0 -100 -110 0 -110 0 0 -45 0 -45 110 0 110 0 0 -96 0 -97
-75 7 -75 7 0 -48 0 -48 498 2 497 2 3 46 3 46 -75 -7 -76 -7 0 97 0 96 110 0
110 0 0 45 0 45 -110 0 -110 0 0 100 0 100 -45 0 -45 0 0 -100 0 -100 -60 0
-60 0 0 100 0 100 -40 0 -40 0 0 -100 0 -100 -60 0 -60 0 0 100 0 100 -34 0
c-42 0 -46 -9 -46 -116 l0 -84 -60 0 -60 0 0 100 0 100 -45 0 -45 0 0 -100z
m205 -285 l0 -90 -57 -3 -58 -3 0 96 0 96 58 -3 57 -3 0 -90z m203 3 l-3 -93
-55 0 -55 0 -3 93 -3 92 61 0 61 0 -3 -92z m200 0 l-3 -93 -55 0 -55 0 -3 93
-3 92 61 0 61 0 -3 -92z"/>
</g>
</svg>
