<svg height="40" viewBox="0 0 40 40" width="40" xmlns="http://www.w3.org/2000/svg"><path d="m33.363281 20.339844c-.046875.128906-.351562.238281-.90625.3125-.375.054687-.734375.109375-1.078125.164062-.691406.183594-1.816406.6875-3.382812 1.511719l-.117188-.28125c.820313-.738281 1.664063-1.578125 2.5-2.5-.15625-.296875-.328125-.4375-.507812-.4375h-4.933594c-2.28125.019531-5 .21875-8.15625.59375-2.703125.347656-5.410156.691406-8.113281 1.042969-.109375.882812-.214844 1.757812-.324219 2.640625-.203125 1.34375-.578125 2-1.105469 2-.398437 0-.601562-.480469-.601562-1.429688 0-.109375.164062-.585937.476562-1.453125.324219-.859375.480469-1.546875.480469-2.050781 0-.339844-.175781-.746094-.519531-1.1875l.125-.28125c.210937.03125.476562.183594.789062.46875.324219.292969.570313.457031.761719.515625l9.78125-1.253906v-3.351563c0-.179687-.1875-.476562-.558594-.875-.375-.394531-.644531-.617187-.835937-.675781.023437-.234375.132812-.359375.320312-.359375.421875 0 .984375.121094 1.671875.359375.820313.285156 1.230469.59375 1.230469.90625 0 .027344-.074219.175781-.214844.453125-.148437.277344-.234375.457031-.265625.53125-.070312.371094-.113281 1.28125-.113281 2.730469 0 .070312.183594.113281.550781.113281.671875 0 1.140625-.078125 1.4375-.234375.136719-.058594.648438-.652344 1.546875-1.800781.90625-1.136719 1.355469-1.765625 1.355469-1.875 0-.230469-.183594-.539063-.550781-.902344l.15625-.28125c.742187.324219 1.269531.546875 1.59375.683594.789062.394531 1.191406.738281 1.191406 1.03125-1.035156.660156-2.546875 1.722656-4.535156 3.179687l7.078125-.195312c.109375 0 .28125-.054688.519531-.164063.234375-.101562.421875-.15625.550781-.15625.292969 0 .8125.339844 1.558594 1.039063.738281.679687 1.121094 1.179687 1.144531 1.46875zm-18.488281-2.507813c0 .558594-.191406.839844-.558594.839844-.140625 0-.691406-.640625-1.675781-1.910156-1.105469-1.4375-1.71875-2.210938-1.824219-2.3125l.117188-.234375c.847656.445312 1.679687.898437 2.507812 1.347656.953125.691406 1.433594 1.449219 1.433594 2.269531zm10.894531 4.53125c0 .132813-.0625.257813-.195312.367188-.214844.203125-.324219.316406-.324219.335937 0 .007813-.199219.5-.59375 1.484375-.3125.746094-.636719 1.117188-.949219 1.117188-.109375 0-.273437-.1875-.476562-.554688h-1.515625c-.585938 0-2.542969.230469-5.890625.695313-.339844.488281-.554688.738281-.636719.738281-.292969 0-.59375-.417969-.910156-1.234375-.1875-.535156-.371094-1.074219-.5625-1.636719-.15625-.445312-.5-.898437-1.03125-1.347656.023437-.1875.109375-.28125.238281-.28125.15625 0 .433594.066406.816406.203125.382813.128906.671875.199219.855469.199219.019531 0 .542969-.070313 1.550781-.199219 1.539063-.160156 3.804688-.457031 6.804688-.878906.101562-.023438.285156-.117188.550781-.257813.269531-.144531.425781-.222656.480469-.222656.128906 0 .460937.21875 1 .640625.523437.425781.789062.699219.789062.832031zm-1.945312.480469c0-.183594-.101563-.347656-.296875-.480469-.199219-.132812-.390625-.179687-.578125-.15625l-7.996094.992188c.183594.773437.359375 1.421875.515625 1.945312 3.15625-.414062 5.859375-.695312 8.113281-.832031 0-.128906.042969-.371094.125-.707031.074219-.351563.117188-.605469.117188-.761719zm0 0"/></svg>