<?xml version="1.0" standalone="no"?>
<!DOCTYPE svg PUBLIC "-//W3C//DTD SVG 20010904//EN"
 "http://www.w3.org/TR/2001/REC-SVG-20010904/DTD/svg10.dtd">
<svg version="1.0" xmlns="http://www.w3.org/2000/svg"
  viewBox="-20 -20 190.000000 170.000000"
  preserveAspectRatio="xMidYMid meet">

<g transform="translate(0.000000,130.000000) scale(0.100000,-0.100000)"
fill="#000000" stroke="none">
<path d="M420 1111 c-25 -10 -44 -22 -43 -27 1 -5 17 -36 37 -68 20 -33 36
-66 36 -73 0 -10 -24 -13 -100 -13 l-100 0 0 -114 c0 -62 -3 -128 -6 -145 l-6
-31 53 0 54 0 -3 100 -3 100 410 0 411 0 0 -100 0 -100 51 0 52 0 -7 31 c-3
17 -6 83 -6 145 l0 114 -101 0 c-55 0 -99 3 -97 8 2 4 15 30 29 57 45 86 45
90 -1 109 -22 9 -44 16 -49 16 -5 0 -14 -21 -21 -47 -6 -27 -23 -69 -37 -95
l-26 -48 -74 0 -73 0 0 95 0 95 -50 0 -50 0 0 -95 0 -95 -73 0 -74 0 -13 43
c-11 38 -67 158 -73 156 -1 0 -22 -8 -47 -18z"/>
<path d="M430 598 c0 -84 -3 -170 -6 -190 l-7 -38 52 0 c43 0 51 3 51 19 0 25
64 31 284 24 162 -6 176 -7 176 -25 0 -15 8 -18 51 -18 l52 0 -7 46 c-3 26 -6
111 -6 190 l0 144 -320 0 -320 0 0 -152z m550 -13 l0 -75 -230 0 -230 0 0 75
0 75 230 0 230 0 0 -75z"/>
</g>
</svg>
