<?xml version="1.0" standalone="no"?>
<!DOCTYPE svg PUBLIC "-//W3C//DTD SVG 20010904//EN"
 "http://www.w3.org/TR/2001/REC-SVG-20010904/DTD/svg10.dtd">
<svg version="1.0" xmlns="http://www.w3.org/2000/svg"
 viewBox="-20 -20 180.000000 164.000000"
 preserveAspectRatio="xMidYMid meet">

<g transform="translate(0.000000,148.000000) scale(0.100000,-0.100000)"
fill="#000000" stroke="none">
<path d="M440 1291 c0 -36 -36 -94 -85 -140 l-47 -43 31 -38 c17 -22 31 -41
31 -44 0 -3 -15 -6 -32 -8 -31 -3 -33 -6 -36 -45 l-3 -43 95 0 c53 0 96 -2 96
-5 0 -37 -115 -178 -176 -215 -19 -12 -34 -25 -34 -30 0 -4 18 -27 39 -51 l39
-44 26 24 26 24 0 -190 0 -191 33 -4 c54 -6 70 1 63 28 l-6 24 290 0 290 0 0
43 0 43 -137 -1 -138 0 0 35 0 35 103 0 102 0 0 43 0 42 -105 0 -105 0 0 30 0
30 105 0 105 0 0 43 0 43 -105 -4 -105 -4 0 36 0 37 125 -3 125 -3 0 45 0 45
-116 -3 -116 -4 26 34 26 34 -51 13 c-43 11 -53 11 -60 0 -5 -8 -19 -29 -30
-46 -20 -33 -21 -33 -100 -33 l-79 0 28 50 27 50 223 0 222 0 0 45 0 45 -206
0 -206 0 6 25 c3 13 11 36 16 50 l10 27 180 -4 180 -3 0 45 0 45 -255 -3
c-140 -1 -255 -1 -255 1 0 3 7 24 15 47 8 24 14 44 13 45 -2 2 -27 6 -55 10
-50 6 -53 6 -53 -14z m125 -193 c-22 -79 -21 -78 -101 -78 -41 0 -74 2 -74 5
0 3 19 26 41 50 38 42 45 45 91 45 46 0 49 -1 43 -22z m145 -383 l0 -36 -102
3 c-90 3 -103 5 -106 21 -8 42 3 47 108 47 l100 0 0 -35z m0 -145 l0 -30 -105
0 -105 0 0 30 0 30 105 0 105 0 0 -30z m-2 -147 l-3 -38 -100 0 c-97 0 -100 1
-103 23 -7 48 1 52 108 52 l101 0 -3 -37z"/>
</g>
</svg>
