<svg height="40" viewBox="0 0 40 40" width="40" xmlns="http://www.w3.org/2000/svg"><path d="m30 15.078125c-.328125.1875-1.269531.296875-2.828125.324219-1.003906 0-2.011719 0-2.988281 0-.464844 0-.835938.03125-1.105469.082031.941406.488281 1.410156.90625 1.410156 1.25 0 .027344-.300781.4375-.90625 1.222656-.628906.855469-.992187 1.335938-1.078125 1.414063 1.257813 0 2.117188-.09375 2.574219-.289063.050781-.023437.171875-.125.347656-.300781.171875-.167969.292969-.261719.34375-.261719.574219 0 1.246094.246094 2 .730469v.363281c0 .085938-.09375.152344-.273437.199219-.507813.199219-1.242188.328125-2.1875.40625-.75.058594-1.492188.109375-2.230469.167969v2.664062c.050781.027344.136719.042969.246094.042969.289062 0 .75-.113281 1.351562-.359375.605469-.246094 1.03125-.371094 1.277344-.371094.105469 0 .433594.125.96875.371094s.863281.402344.972656.480469v.367187c-.59375.183594-1.394531.3125-2.382812.359375-.792969.0625-1.585938.109375-2.390625.164063-.03125.109375-.042969.992187-.042969 2.628906h.449219c.988281 0 1.628906-.019531 1.898437-.074219.085938-.035156.21875-.109375.417969-.242187.214844-.136719.339844-.203125.390625-.203125.21875 0 .605469.109375 1.152344.320312.550781.21875.832031.402344.832031.574219 0 .074219-.109375.140625-.324219.199219-.570312.160156-1.367187.28125-2.382812.363281-1.199219.046875-2.007813.113281-2.433594.199219v2.992187c1.75 0 2.910156-.082031 3.484375-.257812.046875 0 .15625-.046875.316406-.152344.164063-.097656.273438-.152344.328125-.152344.292969 0 .765625.136719 1.414063.414063.648437.28125.972656.53125.972656.75 0 .300781-.308594.453125-.933594.453125-.15625 0-.394531-.015625-.703125-.058594-.3125-.042969-.546875-.058594-.707031-.058594-.328125 0-.824219-.019531-1.480469-.046875-.664062-.019531-1.148437-.039062-1.476562-.039062-.945313 0-2.132813.085937-3.5625.242187-2.164063.21875-3.34375.339844-3.5625.371094-.273438.941406-.53125 1.417969-.777344 1.417969-.183594 0-.402344-.3125-.644531-.9375-.234375-.617188-.367188-1.058594-.367188-1.335938 0-.050781.054688-.171875.148438-.363281.09375-.183594.140625-.3125.140625-.359375.242187-1.160156.363281-2.996094.363281-5.511719v-5.019531c-1.96875 2.214844-3.925781 3.875-5.871094 4.980469l-.160156-.246094c3.324219-2.667969 5.777344-5.582031 7.371094-8.738281-.382813 0-.964844.078125-1.746094.242187-.78125.164063-1.359375.234375-1.738281.234375-.355469 0-1.070313-.507812-2.148438-1.535156.054688-.105469.136719-.160156.246094-.160156.078125 0 .339844.101562.765625.300781.4375.203125.6875.300781.777344.300781.375 0 1.125-.0625 2.242187-.21875 1.121094-.148437 1.824219-.273437 2.125-.382812.105469-.027344.3125-.464844.625-1.3125.3125-.851563.46875-1.355469.46875-1.523438 0-.5625-.273437-.941406-.8125-1.125-.1875-.085937-.675781-.171875-1.457031-.242187l-3.28125 2.789062-.28125-.125c.546875-.671875 1.261719-1.679687 2.140625-3.035156 1.136719-1.613281 1.707031-2.597656 1.707031-2.953125 0-.328125-.242187-.671875-.726562-1.050781.082031-.109375.175781-.164063.285156-.164063.238281 0 .703125.242188 1.394531.710938.6875.46875 1.03125.796875 1.03125.992187 0 .242188-.550781.917969-1.664062 2.015625.023437.039063.066406.042969.128906.042969.480469 0 1.671875-.113281 3.558594-.359375 1.890625-.246094 3.035156-.433594 3.4375-.574219.109375-.023437.285156-.148437.53125-.378906.242187-.234375.394531-.34375.445312-.34375.265625 0 .699219.109375 1.292969.316406.699219.246094 1.050781.464844 1.050781.652344 0 .191406-.644531.394531-1.941406.613281-1.453125.210938-3.65625.539063-6.605469.964844.515625.542969 1.0625 1.160156 1.625 1.871094l-1.175781 1.859375c.058594.046875.125.082031.203125.082031.375 0 1.535156-.097656 3.464844-.285156 1.925781-.195313 3.003906-.328125 3.222656-.40625.074219-.023438.191406-.101563.34375-.226563.140625-.117187.261719-.175781.34375-.175781.269531 0 .730469.136719 1.394531.402344.65625.269531 1.109375.5 1.355469.691406zm-7.496094 1.703125c0-.1875-.082031-.433594-.257812-.734375-.179688-.292969-.328125-.449219-.464844-.449219.027344 0-.863281.105469-2.671875.289063-.78125 1.132812-1.519531 2.269531-2.230469 3.40625.464844.347656.796875.519531 1.015625.519531.105469 0 1.367188-.082031 3.761719-.238281.574219-1.59375.847656-2.527344.847656-2.792969zm-.722656 6.472656v-2.257812c0-.273438-.261719-.40625-.769531-.40625-.273438 0-.695313.015625-1.257813.054687-.5625.042969-1 .0625-1.296875.0625-.128906 0-.34375-.035156-.628906-.101562-.277344-.070313-.480469-.117188-.578125-.140625v3.078125zm0 3.652344v-2.675781l-4.5.320312v2.835938zm0 3.957031v-2.90625l-4.65625.402344v3.113281zm0 0"/></svg>