<?xml version="1.0" standalone="no"?>
<!DOCTYPE svg PUBLIC "-//W3C//DTD SVG 20010904//EN"
 "http://www.w3.org/TR/2001/REC-SVG-20010904/DTD/svg10.dtd">
<svg version="1.0" xmlns="http://www.w3.org/2000/svg"
 viewBox="-25 -25 190.000000 168.000000"
 preserveAspectRatio="xMidYMid meet">

<g transform="translate(0.000000,128.000000) scale(0.100000,-0.100000)"
fill="#000000" stroke="none">
<path d="M423 983 c15 -2 39 -2 55 0 15 2 2 4 -28 4 -30 0 -43 -2 -27 -4z"/>
<path d="M1053 983 c15 -2 37 -2 50 0 12 2 0 4 -28 4 -27 0 -38 -2 -22 -4z"/>
<path d="M230 909 l0 -45 145 4 c97 3 145 1 145 -6 0 -6 -28 -38 -61 -72 -47
-46 -85 -72 -160 -108 -54 -26 -98 -51 -99 -55 0 -14 52 -77 64 -77 22 0 161
88 217 137 54 47 58 49 122 51 37 1 67 -2 67 -8 0 -16 -99 -109 -155 -144 -29
-19 -76 -45 -104 -57 -28 -12 -51 -24 -51 -28 0 -3 15 -24 33 -45 l34 -39 81
48 c104 62 169 119 233 206 l52 69 56 -1 c31 -1 59 -4 63 -6 15 -8 -71 -120
-141 -185 -39 -36 -100 -81 -136 -99 -36 -19 -65 -37 -65 -40 0 -3 15 -23 33
-44 l33 -39 65 39 c94 56 226 193 284 293 l48 82 48 0 c26 0 50 -4 53 -8 5 -9
-43 -202 -63 -254 -14 -36 -46 -43 -137 -32 -41 6 -74 8 -74 7 0 -2 11 -26 25
-53 l25 -50 89 0 c139 0 153 17 211 262 l33 136 -22 31 -22 31 -300 0 c-168 0
-299 4 -299 9 0 5 8 19 18 31 17 21 19 21 345 18 l327 -3 0 45 0 45 -530 0
-530 0 0 -46z"/>
</g>
</svg>
