<svg height="40" viewBox="0 0 40 40" width="40" xmlns="http://www.w3.org/2000/svg"><path d="m30.8125 11.035156c0 .296875-.203125.449219-.59375.449219-1.386719-.019531-3.457031-.003906-6.214844.035156-1.664062.164063-4.15625.414063-7.484375.742188.914063.769531 1.371094 1.273437 1.371094 1.507812 0 .023438-.253906.277344-.769531.757813-.511719.472656-.808594.773437-.875.890625.695312.113281 1.222656.175781 1.570312.175781-.113281 0 .539063-.066406 1.933594-.214844 1.800781-.113281 4.277344-.378906 7.410156-.800781.117188-.019531.480469-.203125 1.085938-.527344.257812 0 .734375.234375 1.410156.714844.675781.484375 1.011719.855469 1.011719 1.109375 0 .140625-.09375.339844-.296875.597656-.199219.257813-.308594.445313-.328125.5625-.09375.445313-.234375 1.101563-.421875 1.960938-.257813 1.242187-.601563 2.421875-1.023438 3.546875-.539062 1.453125-1.304687 2.957031-2.3125 4.523437-1.363281 2.089844-2.507812 3.132813-3.441406 3.132813-.167969 0-.308594-.074219-.421875-.214844-.160156-.347656-.457031-.875-.875-1.578125-.214844-.253906-.925781-.875-2.144531-1.859375l.140625-.316406c1.875.9375 3.050781 1.398437 3.539062 1.398437 1.898438 0 3.585938-2.953125 5.0625-8.875.371094-1.445312.5625-2.390625.5625-2.8125 0-.085937-.117187-.203125-.335937-.328125-.226563-.128906-.382813-.179687-.476563-.160156l-4.488281.457031c.984375.511719 1.472656.96875 1.472656 1.367188 0 .1875-.132812.378906-.390625.5625-.347656.257812-.546875.414062-.59375.457031-.234375.347656-.597656.871094-1.085937 1.546875-1.355469 1.800781-2.902344 3.355469-4.632813 4.667969-2.179687 1.640625-4.265625 2.820312-6.25 3.539062l-.109375-.273437c1.386719-.65625 3.484375-2.320313 6.324219-4.984375 3.082031-2.90625 4.628906-4.902344 4.628906-6.007813 0-.113281-.070312-.269531-.222656-.457031-.15625-.183594-.285156-.261719-.402344-.238281l-3.65625.421875c.140625.113281.359375.347656.652344.695312.292969.355469.4375.574219.4375.667969s-.140625.1875-.421875.28125c-.355469.140625-.535156.21875-.5625.246094-.347656.398437-.875.972656-1.578125 1.71875-1.847656 1.800781-3.792969 3.132812-5.824219 4.003906l-.175781-.3125c1.285156-.753906 2.605469-1.800781 3.96875-3.160156 1.441406-1.449219 2.449219-2.789063 3.011719-4-.234375-.027344-.546875-.039063-.945313-.039063-.472656-.023437-.898437-.25-1.300781-.671875-1.453125 1.640625-3.582031 3.304688-6.390625 4.992188l-.171875-.320313c1.171875-.957031 2.453125-2.164062 3.863281-3.613281 1.898438-1.96875 2.84375-3.265625 2.84375-3.894531 0-.445313-.109375-.671875-.320312-.671875-.492188 0-1.304688.25-2.460938.738281-.328125-.019531-.859375-.308594-1.609375-.839844-.75-.539062-1.160156-.945312-1.234375-1.234375.074219-.132812.167969-.207031.289063-.207031-.046875 0 .160156.121094.609375.371094.460937.25.898437.363281 1.320312.363281.042969 0 .890625-.066406 2.523438-.203125 1.800781-.144531 4.519531-.386719 8.144531-.746094.777344-.039062 1.800781-.179687 3.09375-.414062.019531-.027344.125-.109375.296875-.246094.175781-.140625.324219-.214844.4375-.214844.488281 0 1.203125.117188 2.140625.351563 1.121094.285156 1.6875.578125 1.6875.882812zm0 0"/></svg>