<?xml version="1.0" standalone="no"?>
<!DOCTYPE svg PUBLIC "-//W3C//DTD SVG 20010904//EN"
 "http://www.w3.org/TR/2001/REC-SVG-20010904/DTD/svg10.dtd">
<svg version="1.0" xmlns="http://www.w3.org/2000/svg"
 viewBox="-20 -20 180.000000 164.000000"
 preserveAspectRatio="xMidYMid meet">

<g transform="translate(0.000000,146.000000) scale(0.100000,-0.100000)"
fill="#000000" stroke="none">
<path d="M560 820 l0 -400 -22 -9 c-13 -5 -46 -12 -75 -16 l-52 -7 24 -46 c13
-26 28 -53 33 -59 6 -10 69 15 248 96 l239 109 3 62 3 63 -33 -22 c-36 -24
-248 -131 -260 -131 -5 0 -8 171 -8 380 l0 380 -50 0 -50 0 0 -400z"/>
</g>
</svg>
