<svg height="40" viewBox="0 0 40 40" width="40" xmlns="http://www.w3.org/2000/svg"><path d="m25.84375 20.421875c-.535156.488281-2.355469 2.050781-5.449219 4.667969-.273437.234375-1.066406.847656-2.382812 1.820312-.585938.421875-.96875.851563-1.15625 1.273438-.070313.160156-.179688.238281-.3125.238281-.289063 0-.757813-.394531-1.414063-1.1875-.484375-.582031-.8125-1.03125-.972656-1.332031.183594-.101563.261719-.140625.238281-.140625.617188.347656 1.027344.523437 1.273438.523437.390625 0 1.457031-.578125 3.191406-1.722656-.421875-4.957031-.859375-8.71875-1.308594-11.265625-.019531-.144531-.21875-.386719-.585937-.734375-.382813-.359375-.652344-.578125-.8125-.671875.097656-.214844.160156-.3125.210937-.3125.371094 0 .984375.175781 1.824219.527344.847656.347656 1.296875.660156 1.371094.945312-.023438-.046875-.058594.199219-.109375.734375-.023438.234375-.007813.90625.035156 2 .027344.609375.15625 3.34375.390625 8.21875l5.859375-3.828125zm0 0"/></svg>