<svg height="40" viewBox="0 0 40 40" width="40" xmlns="http://www.w3.org/2000/svg"><path d="m32.25 23.214844c0 .253906-.371094.367187-1.121094.347656-4.28125 0-6.425781 0-6.425781 0-.019531 0-.761719.050781-2.207031.144531-2.460938.164063-4.777344.40625-6.949219.734375-.707031.089844-1.738281.257813-3.09375.492188-.09375.019531-.378906.125-.859375.300781-.484375.171875-.746094.261719-.785156.261719-.734375 0-1.746094-.578125-3.058594-1.71875l.347656-.179688c.871094.386719 1.496094.5625 1.898438.511719l9.828125-1.144531v-1.714844c-.046875-.027344-.117188-.035156-.210938-.035156-.046875 0-1.507812.117187-4.390625.347656-.066406.160156-.140625.328125-.210937.488281-.0625.167969-.171875.25-.3125.25-.1875 0-.386719-.15625-.601563-.453125-.207031-.304687-.328125-.5625-.347656-.765625-.09375-.675781-.328125-1.65625-.699219-2.929687-.070312-.164063-.289062-.398438-.671875-.695313v-.382812c.261719 0 .65625.132812 1.199219.421875.535156.273437.886719.414062 1.046875.414062l5.199219-.453125v-1.71875c0-.234375-.375-.5625-1.121094-.984375v-.25h.386719c.328125 0 .78125.09375 1.363281.289063.683594.207031 1.035156.425781 1.058594.660156l-.636719.910156v.882813c.542969-.023438 1.96875-.210938 4.285156-.558594.886719-.171875 1.382813-.25 1.476563-.25.160156 0 .472656.128906.925781.386719.457031.253906.6875.457031.6875.597656 0 .019531-.066406.105469-.191406.222656-.132813.136719-.203125.210938-.234375.230469-.023438.027344-.171875.609375-.449219 1.753906-.214844.871094-.484375 1.304688-.8125 1.304688-.1875 0-.359375-.0625-.511719-.179688-.148437-.113281-.304687-.160156-.472656-.140625l-4.703125.464844v1.75c.050781.046875.109375.074219.175781.074219.1875 0 .4375-.015625.734375-.039063.402344-.046875.65625-.070312.773438-.070312 1.195312-.074219 2.984375-.230469 5.375-.476563.117187-.023437.359375-.101562.71875-.234375.363281-.140625.554687-.203125.582031-.203125.421875 0 1.003906.136719 1.753906.421875.839844.308594 1.261719.605469 1.261719.914063zm-5.613281-5.757813-.289063-.175781-5.472656.777344v2.425781l5.375-.605469zm-6.8125 3v-2.265625l-5.335938.453125.449219 2.261719zm0 0"/></svg>