<?xml version="1.0" standalone="no"?>
<!DOCTYPE svg PUBLIC "-//W3C//DTD SVG 20010904//EN"
 "http://www.w3.org/TR/2001/REC-SVG-20010904/DTD/svg10.dtd">
<svg version="1.0" xmlns="http://www.w3.org/2000/svg"
 viewBox="-15 -25 190.000000 170.000000"
 preserveAspectRatio="xMidYMid meet">

<g transform="translate(0.000000,130.000000) scale(0.100000,-0.100000)"
fill="#000000" stroke="none">
<path d="M720 990 c0 -32 -5 -81 -12 -109 l-11 -51 -61 0 c-56 1 -59 2 -38 14
l24 13 -50 59 c-27 32 -63 72 -80 88 l-31 28 -38 -23 c-21 -12 -39 -24 -41
-25 -2 -1 26 -32 62 -68 36 -36 66 -70 66 -76 0 -6 -39 -10 -100 -10 l-100 0
0 -50 0 -50 170 0 c94 0 170 -2 170 -6 0 -3 -10 -23 -22 -45 l-23 -40 -183 3
-182 3 0 -47 0 -48 142 0 143 0 -25 -24 c-41 -41 -140 -95 -212 -117 l-67 -21
32 -49 c18 -27 36 -49 40 -49 5 0 41 15 81 34 89 41 164 95 234 170 l53 56
152 0 153 0 59 -61 c59 -59 226 -179 251 -179 13 0 90 88 83 94 -2 1 -29 11
-59 20 -54 17 -167 84 -191 112 -10 12 6 14 105 14 l116 0 0 48 0 48 -160 -1
-160 0 -26 43 -25 42 150 0 151 0 0 49 0 48 -115 -5 c-63 -3 -115 -2 -115 2 0
3 18 23 41 43 39 36 105 121 97 128 -7 7 -81 35 -93 35 -7 0 -18 -13 -25 -30
-12 -29 -78 -96 -116 -118 -18 -11 -18 -12 11 -36 l30 -25 -89 -1 -89 0 7 43
c3 23 9 70 12 104 7 69 9 67 -58 77 l-38 5 0 -59z m149 -294 c12 -18 21 -38
21 -45 0 -12 -151 -16 -163 -5 -3 4 3 24 14 45 18 36 22 39 63 39 40 0 47 -4
65 -34z"/>
</g>
</svg>
