<svg height="40" viewBox="0 0 40 40" width="40" xmlns="http://www.w3.org/2000/svg"><path d="m26.214844 11.957031c-1.054688.890625-2.636719 2.125-4.742188 3.695313 0-.03125-.007812-.070313-.035156-.125-.019531-.058594-.03125-.105469-.03125-.125l3.019531-4.429688c-.070312-.132812-.203125-.382812-.382812-.734375.039062-.113281.117187-.175781.238281-.175781.308594 0 .707031.246094 1.207031.722656.507813.480469.746094.871094.726563 1.171875zm8.003906 16.996094c0 .136719-.035156.28125-.109375.421875l-4.355469-.035156c-.390625.039062-.894531 0-1.507812-.140625-.984375-.867188-2.417969-2.355469-4.3125-4.464844-1.6875-1.84375-2.542969-2.769531-2.5625-2.769531-.308594 0-1.15625.070312-2.570313.210937-1.796875.1875-3.097656.402344-3.890625.636719-.210937.253906-.523437.65625-.945312 1.1875-1.617188 2.011719-3.199219 3.609375-4.742188 4.777344-1.050781.816406-2.148437 1.523437-3.296875 2.109375 0-.074219-.050781-.140625-.144531-.214844 3.609375-2.691406 6.015625-5.171875 7.234375-7.441406-.160156-.027344-.925781.128906-2.296875.457031-1.375.328125-2.066406.488281-2.09375.488281-.375 0-.855469-.207031-1.4375-.613281s-1.050781-.824219-1.40625-1.246094c.027344-.066406.128906-.179687.316406-.351562 1.03125.5625 1.804688.847656 2.3125.847656-.234375 0 1.5625-.234375 5.375-.707031.5625-.796875 1.203125-2.058594 1.933594-3.789063-.234375 0-.925781.148438-2.066406.453125-1.15625.308594-1.714844.460938-1.6875.460938-.402344 0-.914063-.246094-1.546875-.734375-.5625-.421875-.949219-.804688-1.15625-1.125.070312-.210938.15625-.320313.28125-.320313-.027344 0 .273437.136719.910156.40625.628906.261719 1.125.402344 1.472656.402344-.1875 0 1.148438-.1875 4.007813-.5625.160156-.308594.453125-1.238281.875-2.808594.460937-1.753906.695312-2.9375.695312-3.539062 0-.476563-.3125-1-.945312-1.585938.09375-.160156.203125-.25.320312-.25.296875 0 .855469.171875 1.648438.5.890625.371094 1.332031.714844 1.332031 1.011719 0 .144531-.082031.292969-.261719.4375-.175781.15625-.273437.269531-.296875.339844-.378906 1.238281-.945312 3.097656-1.722656 5.582031.019531.019531.082031.03125.175781.03125 1.046875 0 2.789063-.207031 5.195313-.628906.070312-.023438.222656-.101563.457031-.234375.234375-.121094.421875-.1875.5625-.1875.253906 0 .640625.09375 1.15625.273437.65625.242188.984375.496094.984375.777344 0 .167969-.644531.296875-1.933594.386719-2.921875.257812-4.71875.421875-5.375.492187 1.996094 1.964844 3.054688 2.949219 3.167969 2.949219.953125 0 2.546875-.214844 4.769531-.636719.023438-.019531.195313-.09375.511719-.226562.3125-.121094.496094-.1875.546875-.1875.371094 0 .972656.148437 1.824219.453125 1.023437.378906 1.550781.765625 1.582031 1.160156-.144531.1875-.5.28125-1.058594.28125-.046875 0-.519531-.019531-1.421875-.058594-.898437-.03125-1.375-.050781-1.425781-.050781h-1.1875l-3.339844.25c3.324219 3.269531 7.140625 5.652344 11.449219 7.125zm-19.621094-13.203125c-.144531.140625-.269531.214844-.390625.214844-.226562 0-.691406-.460938-1.367187-1.371094-1.3125-1.6875-2.1875-2.785156-2.632813-3.296875l.28125-.285156c2.78125 1.410156 4.171875 2.820312 4.171875 4.253906 0 .15625-.019531.328125-.0625.484375zm6.0625 5.40625c-.296875-.441406-.820312-1.078125-1.554687-1.910156-.742188-.835938-1.152344-1.246094-1.25-1.246094-.464844 0-.851563.339844-1.152344 1.019531-.65625 1.476563-1.097656 2.398438-1.332031 2.773438zm0 0"/></svg>