<svg height="40" viewBox="0 0 40 40" width="40" xmlns="http://www.w3.org/2000/svg"><path d="m29.316406 13.121094c0 .421875-.15625.632812-.484375.632812-.285156 0-.519531-.144531-.703125-.421875-.707031-1.03125-1.125-1.640625-1.269531-1.820312-.511719-.65625-1.011719-1.199219-1.503906-1.621094l.144531-.238281 2.519531 1.1875c.871094.535156 1.296875 1.296875 1.296875 2.28125zm-11.085937-.949219c0 .285156-.777344.5625-2.320313.84375-1.285156.234375-2.195312.355469-2.734375.355469-.816406 0-1.582031-.5-2.285156-1.476563.074219-.117187.15625-.191406.25-.210937.722656.488281 1.261719.738281 1.609375.738281.285156 0 .886719-.074219 1.796875-.214844s1.496094-.253906 1.75-.347656c.050781-.019531.167969-.105469.355469-.234375.179687-.125.289062-.1875.316406-.1875.1875 0 .441406.078125.769531.246094.328125.160156.492188.328125.492188.488281zm13.160156 18.921875c0 .328125-.214844.488281-.625.488281-1.082031 0-2.214844-.675781-3.40625-2.035156-1.519531-1.734375-2.75-3.746094-3.683594-6.035156-.285156-.710938-1.019531-2.917969-2.210937-6.652344-1.542969.265625-3.234375.566406-5.058594.925781-.328125.09375-1.144531.308594-2.457031.636719s-2.011719.488281-2.109375.488281c-.605469 0-1.257813-.210937-1.933594-.628906-.675781-.421875-1.109375-.910156-1.296875-1.472656.050781-.121094.113281-.183594.214844-.183594 1.003906.753906 1.820312 1.082031 2.457031.984375l10.035156-1.609375c-.207031-.5625-.421875-1.472656-.628906-2.738281-.214844-1.195313-.433594-2.09375-.667969-2.699219-.378906-.941406-.925781-1.566406-1.65625-1.894531.054688-.171875.148438-.25.289063-.25.394531 0 .984375.128906 1.753906.382812.890625.308594 1.339844.605469 1.339844.914063 0 .09375-.039063.226562-.109375.398437-.074219.183594-.105469.3125-.105469.414063 0 .347656.125 1.222656.386719 2.628906.253906 1.402344.445312 2.28125.5625 2.628906.601562-.019531 1.476562-.132812 2.628906-.347656.066406-.019531.246094-.109375.503906-.261719.273438-.15625.433594-.234375.476563-.234375.285156 0 .796875.148438 1.53125.445313.738281.289062 1.101562.539062 1.101562.753906 0 .230469-.253906.347656-.765625.347656-1.664062.023438-3.457031.078125-5.375.171875.699219 2.304688 1.570313 4.820313 2.59375 7.554688.261719.675781.84375 1.601562 1.757813 2.773437 1.007812 1.28125 1.789062 1.929688 2.347656 1.929688.542969 0 1.035156-.949219 1.484375-2.84375.042969-.164063.113281-.46875.207031-.914063.023438-.066406.046875-.125.070313-.175781.09375 0 .164062.019531.207031.074219l-.246094 4.738281c0 .140625.0625.359375.199219.652344.121094.289062.1875.5.1875.644531zm0 0"/></svg>