<?xml version="1.0" standalone="no"?>
<!DOCTYPE svg PUBLIC "-//W3C//DTD SVG 20010904//EN"
 "http://www.w3.org/TR/2001/REC-SVG-20010904/DTD/svg10.dtd">
<svg version="1.0" xmlns="http://www.w3.org/2000/svg"
 viewBox="-20 -20 180.000000 164.000000"
 preserveAspectRatio="xMidYMid meet">

<g transform="translate(0.000000,144.000000) scale(0.100000,-0.100000)"
fill="#000000" stroke="none">
<path d="M825 1158 c5 -68 8 -136 9 -153 l1 -30 -323 0 -322 0 0 -47 0 -48
330 0 330 0 4 -22 c3 -13 14 -70 25 -128 44 -228 110 -397 187 -477 35 -37 46
-43 82 -43 35 0 45 5 65 32 29 40 55 115 63 183 6 50 6 51 -37 90 l-44 40 -7
-82 c-9 -89 -27 -154 -45 -160 -40 -14 -167 324 -197 525 l-6 42 150 0 150 0
0 48 0 49 -153 -5 -154 -5 -6 39 c-4 22 -7 92 -7 157 l0 117 -51 0 -51 0 7
-122z"/>
<path d="M989 1220 l-34 -30 30 -22 c54 -41 116 -101 133 -130 9 -15 20 -28
24 -28 10 0 78 60 78 70 0 8 -160 148 -184 162 -7 4 -27 -5 -47 -22z"/>
<path d="M280 1165 l0 -50 235 0 235 0 0 50 0 50 -235 0 -235 0 0 -50z"/>
</g>
</svg>
