<svg height="40" viewBox="0 0 40 40" width="40" xmlns="http://www.w3.org/2000/svg"><path d="m30.671875 27.472656c-.066406.1875-.25.296875-.542969.335938-.289062.03125-.582031.0625-.859375.085937l-3.441406.03125c-1.589844-2.546875-3.871094-5.972656-6.84375-10.28125-.46875-.65625-.921875-1.003906-1.363281-1.050781.019531-.074219.054687-.171875.097656-.316406h.214844c.441406 0 1.21875.628906 2.316406 1.894531 2.527344-2.96875 3.785156-4.691406 3.785156-5.15625 0-.09375-.003906-.230469-.03125-.386719-.023437-.097656-.082031-.234375-.191406-.425781-.105469-.1875-.15625-.300781-.15625-.347656 0-.023438.046875-.117188.140625-.28125.183594 0 .660156.226562 1.4375.703125.886719.535156 1.332031 1.03125 1.332031 1.472656 0 .160156-.191406.347656-.5625.5625-.539062.296875-.835937.488281-.910156.5625-1.003906.816406-2.515625 2.078125-4.527344 3.792969 3.855469 4.703125 7.230469 7.632812 10.105469 8.804687zm-10.457031-16.351562c0 .113281-.117188.269531-.351563.472656-.234375.199219-.382812.328125-.457031.402344l-3.753906 5.160156c.203125.140625.476562.394531.820312.769531.433594.417969.652344.710938.652344.875 0 .027344-.050781.210938-.160156.546875-.109375.339844-.164063.617188-.164063.828125l-.101562 9.085938c-.042969.378906-.085938.75-.136719 1.125-.140625.609375-.339844.914062-.597656.914062-.257813 0-.507813-.421875-.734375-1.265625-.214844-.65625-.320313-1.109375-.320313-1.363281 0-.03125.070313-.238281.210938-.636719.132812-.398437.21875-.703125.242187-.894531.023438-.199219.054688-.519531.074219-.964844l.074219-3.300781v-3.644531c0-.402344-.1875-.777344-.5625-1.125l-5.476563 4.523437c-.09375-.257812-.144531-.351562-.144531-.28125 0-.019531.457031-.503906 1.371094-1.4375 1.054687-1.078125 1.769531-1.828125 2.144531-2.242187 2.011719-2.277344 3.503906-4.40625 4.488281-6.390625.375-.773438.5625-1.246094.5625-1.40625 0-.636719-.304687-1.261719-.910156-1.898438.113281-.1875.21875-.273437.3125-.273437.214844 0 .738281.3125 1.582031.945312.890625.699219 1.335938 1.1875 1.335938 1.476563zm0 0"/></svg>