<?xml version="1.0" standalone="no"?>
<!DOCTYPE svg PUBLIC "-//W3C//DTD SVG 20010904//EN"
 "http://www.w3.org/TR/2001/REC-SVG-20010904/DTD/svg10.dtd">
<svg version="1.0" xmlns="http://www.w3.org/2000/svg"
 viewBox="-25 -25 170.000000 154.000000"
 preserveAspectRatio="xMidYMid meet">

<g transform="translate(0.000000,128.000000) scale(0.100000,-0.100000)"
fill="#000000" stroke="none">
<path d="M655 1049 c-67 -69 -151 -122 -252 -161 -61 -23 -83 -36 -83 -49 0
-17 37 -89 46 -89 3 0 22 9 44 20 22 11 42 20 45 20 3 0 5 -118 5 -262 l-1
-263 46 0 46 0 -1 286 c0 241 2 288 14 298 18 15 36 6 36 -18 0 -42 64 -233
110 -326 42 -87 148 -235 168 -235 4 0 27 18 52 40 l45 40 -25 17 c-49 33
-118 112 -158 179 -58 101 -58 103 -4 148 41 34 162 170 162 182 0 10 -95 45
-98 36 -9 -29 -69 -107 -105 -138 l-42 -35 -22 73 c-13 40 -23 79 -23 87 0 8
34 46 75 84 41 38 75 72 75 77 0 7 -82 40 -100 40 -3 0 -28 -23 -55 -51z"/>
</g>
</svg>
