<?xml version="1.0" standalone="no"?>
<!DOCTYPE svg PUBLIC "-//W3C//DTD SVG 20010904//EN"
 "http://www.w3.org/TR/2001/REC-SVG-20010904/DTD/svg10.dtd">
<svg version="1.0" xmlns="http://www.w3.org/2000/svg"
 viewBox="-20 -20 160.000000 144.000000"
 preserveAspectRatio="xMidYMid meet">

<g transform="translate(0.000000,120.000000) scale(0.100000,-0.100000)"
fill="#000000" stroke="none">
<path d="M774 914 c-28 -19 -187 -59 -296 -74 -53 -7 -88 -17 -87 -24 0 -6 8
-87 18 -181 10 -93 16 -173 14 -177 -2 -4 -26 -10 -53 -14 -28 -4 -50 -9 -50
-12 0 -12 63 -102 72 -102 18 0 224 102 297 147 70 44 75 45 87 28 8 -10 14
-24 14 -31 0 -25 18 -23 59 7 l42 30 -60 77 c-33 42 -73 93 -89 112 l-29 34
-41 -18 -42 -19 42 -50 42 -50 -23 -16 c-13 -9 -56 -33 -95 -53 l-71 -37 -7
26 c-6 22 -21 191 -20 218 1 6 18 14 39 18 160 34 333 84 333 97 0 3 -17 22
-37 42 -35 33 -40 35 -59 22z"/>
</g>
</svg>
