<svg height="40" viewBox="0 0 40 40" width="40" xmlns="http://www.w3.org/2000/svg"><path d="m13.503906 13.417969c0 .039062-.0625.203125-.1875.472656-.128906.269531-.195312.433594-.195312.472656v7.621094c0 1.707031-.390625 3.464844-1.1875 5.265625-.984375 2.191406-2.304688 3.644531-3.96875 4.355469-.027344-.195313-.039063-.273438-.039063-.25 1.570313-1.261719 2.671875-2.75 3.296875-4.453125.402344-1.078125.679688-2.625.851563-4.640625l-.039063-.386719c-.191406.140625-1.4375 1.203125-3.753906 3.191406-.160156 0-.328125-.179687-.488281-.554687-.167969-.375-.25-.65625-.25-.839844 0-.03125.054687-.144531.175781-.355469.113281-.207031.171875-.351562.171875-.421875.027344-.164062.046875-.46875.074219-.910156l.03125-7.019531c-.089844-.777344-.589844-1.445313-1.5-2.007813.039062-.160156.191406-.265625.445312-.3125.257813-.046875.390625-.066406.390625-.066406.371094-.1875 1.023438-.652344 1.933594-1.371094 1.066406-.847656 1.609375-1.359375 1.609375-1.546875 0-.347656-.183594-.691406-.5625-1.019531v-.238281c.214844-.03125.675781.164062 1.40625.570312.722656.414063 1.089844.730469 1.089844.964844 0 .09375-.65625.519531-1.96875 1.269531l-3.023438 1.71875c1.011719.859375 1.511719 1.382813 1.511719 1.542969 0 .207031-.058594.546875-.171875 1.003906-.121094.453125-.175781.789063-.175781 1v6.386719s.015625.015625.035156.035156l3.058594-1.789062v-7.511719c0-.253906-.171875-.546875-.5-.875-.320313-.328125-.625-.578125-.914063-.738281v-.246094h.289063c.304687 0 .804687.21875 1.507812.644531.699219.433594 1.046875.78125 1.046875 1.039063zm0 0"/></svg>