<svg height="40" viewBox="0 0 40 40" width="40" xmlns="http://www.w3.org/2000/svg"><path d="m26.316406 26.453125c0 .75-.234375 1.128906-.695312 1.128906-.308594 0-.695313-.503906-1.164063-1.507812 0 0-.253906-.589844-.769531-1.757813-1.421875 1.046875-3.519531 2.617188-6.28125 4.703125-.675781.773438-1.09375 1.164063-1.230469 1.164063-.234375 0-.507812-.265625-.835937-.796875-.328125-.527344-.5-.921875-.5-1.179688 0-.09375.050781-.257812.160156-.507812.105469-.242188.160156-.414063.160156-.5v-10.355469c0-.238281-.179687-.542969-.546875-.921875-.363281-.371094-.671875-.621094-.929687-.734375.050781-.066406.109375-.160156.171875-.277344h.359375c.140625 0 .796875.257813 1.960937.773438.230469 0 1.25-.648438 3.054688-1.933594 1.894531-1.355469 2.84375-2.246094 2.84375-2.667969 0-.394531-.171875-.703125-.523438-.910156.042969-.074219.101563-.191406.171875-.355469 2.015625.609375 3.101563 1.339844 3.261719 2.179688-.878906.375-2.203125 1.054687-3.941406 2.03125l-4.34375 2.429687v11.125c2.691406-1.269531 4.910156-2.53125 6.640625-3.789062-.609375-1.242188-1.3125-2.429688-2.109375-3.554688.09375-.039062.210937-.113281.347656-.203125.777344.746094 1.933594 1.882813 3.480469 3.40625.84375.839844 1.257812 1.84375 1.257812 3.011719zm0 0"/></svg>