<?xml version="1.0" standalone="no"?>
<!DOCTYPE svg PUBLIC "-//W3C//DTD SVG 20010904//EN"
 "http://www.w3.org/TR/2001/REC-SVG-20010904/DTD/svg10.dtd">
<svg version="1.0" xmlns="http://www.w3.org/2000/svg"
 viewBox="0 0 196.000000 100.000000"
 preserveAspectRatio="xMidYMid meet">

<g transform="translate(0.000000,100.000000) scale(0.100000,-0.100000)"
fill="#000000" stroke="none">
<path d="M1525 824 l-49 -44 -553 0 c-546 0 -553 0 -553 -20 0 -19 7 -20 200
-20 l200 0 0 -265 0 -265 -270 0 c-264 0 -270 0 -270 -20 0 -20 5 -20 772 -18
579 2 772 6 775 15 2 6 -29 36 -69 67 l-73 55 -50 -49 -51 -50 -177 0 -177 0
0 265 0 265 244 0 c134 0 251 3 260 6 28 11 18 30 -36 71 -29 22 -57 42 -63
45 -5 3 -32 -14 -60 -38z m-425 -349 l0 -265 -120 0 -120 0 0 265 0 265 120 0
120 0 0 -265z"/>
<path d="M390 628 c0 -8 16 -30 36 -49 42 -40 78 -107 95 -175 6 -27 18 -59
25 -71 18 -28 50 -30 64 -4 13 24 13 92 1 124 -15 38 -69 95 -133 138 -71 48
-88 56 -88 37z"/>
<path d="M1459 569 c-17 -34 -62 -113 -100 -176 -39 -62 -69 -118 -67 -123 2
-5 62 47 133 115 75 72 142 128 159 133 16 4 31 13 33 19 4 10 -106 93 -121
93 -3 0 -20 -28 -37 -61z"/>
</g>
</svg>
