<?xml version="1.0" standalone="no"?>
<!DOCTYPE svg PUBLIC "-//W3C//DTD SVG 20010904//EN"
 "http://www.w3.org/TR/2001/REC-SVG-20010904/DTD/svg10.dtd">
<svg version="1.0" xmlns="http://www.w3.org/2000/svg"
 viewBox="0 0 88.000000 92.000000"
 preserveAspectRatio="xMidYMid meet">

<g transform="translate(0.000000,92.000000) scale(0.100000,-0.100000)"
fill="#000000" stroke="none">
<path d="M524 683 l-29 -78 -168 -3 c-100 -1 -167 -6 -167 -12 0 -6 40 -10 95
-10 l95 0 0 -195 0 -195 -100 0 c-60 0 -100 -4 -100 -10 0 -6 110 -10 310 -10
326 0 341 2 285 43 -24 17 -25 17 -42 -3 -15 -17 -29 -20 -95 -20 l-78 0 0
195 0 195 116 0 c121 0 134 6 82 38 -25 15 -28 15 -46 -1 -14 -13 -37 -17 -90
-17 l-72 0 36 55 c20 30 43 55 50 55 21 0 6 26 -22 39 -14 6 -26 11 -28 11 -1
0 -16 -35 -32 -77z m-34 -298 l0 -195 -50 0 -50 0 0 195 0 195 50 0 50 0 0
-195z"/>
<path d="M250 742 c0 -5 12 -19 26 -33 14 -13 35 -41 47 -62 23 -42 50 -46 55
-8 4 28 -28 65 -80 92 -42 21 -48 23 -48 11z"/>
<path d="M634 478 c-9 -29 -32 -86 -51 -127 -32 -71 -36 -90 -15 -77 5 3 35
48 66 101 33 54 64 95 72 95 24 0 11 23 -23 43 l-31 18 -18 -53z"/>
<path d="M190 493 c0 -4 9 -25 20 -47 10 -23 26 -68 35 -100 16 -65 27 -82 44
-72 18 12 12 74 -10 119 -34 66 -89 128 -89 100z"/>
</g>
</svg>
