<svg height="40" viewBox="0 0 40 40" width="40" xmlns="http://www.w3.org/2000/svg"><path d="m33.339844 14.332031c0 .257813-.199219.390625-.601563.390625l-5.125-.390625h-4.59375c-.234375 0-1.125.074219-2.671875.214844-.207031.019531-.863281.105469-1.96875.25-.5625.042969-1.109375.113281-1.644531.207031-.984375.140625-1.816406.265625-2.496094.382813-1.003906.164062-2.1875.414062-3.546875.742187-1.164062.277344-1.773437.417969-1.820312.417969-.136719 0-.546875-.269531-1.210938-.828125-.671875-.546875-1-.921875-1-1.136719 0-.019531.03125-.113281.105469-.285156.964844.613281 1.546875.910156 1.753906.910156-.023437 0 .507813-.078125 1.578125-.242187l5.652344-.914063c.027344-.019531.035156-.085937.035156-.203125l-.238281-3.546875h-.390625l-1.863281.351563c-.445313-.074219-1.132813-.765625-2.074219-2.070313.328125-.097656.464844-.144531.390625-.144531-.046875 0 .152344.152344.59375.457031.449219.308594.90625.460938 1.375.460938l1.785156-.109375c.046875-.042969.074219-.074219.074219-.074219 0-.699219-.105469-1.65625-.316406-2.875 0-.074219-.109375-.207031-.335938-.421875-.21875-.207031-.394531-.347656-.507812-.421875 0-.019531.035156-.113281.109375-.277344.53125.164063 1.09375.335938 1.660156.527344.578125.1875.933594.441406 1.074219.769531l-.421875 1.164063v1.429687h.144531s.792969-.054687 2.386719-.171875c1.753906-.164062 3-.269531 3.753906-.3125.1875-.847656.28125-1.835937.28125-2.988281 0-.449219-.171875-.863281-.511719-1.265625-.34375-.390625-.507812-.605469-.507812-.625 0 0 .035156-.089844.101562-.25.65625.253906 1.304688.503906 1.933594.738281.730469.308594 1.082031.574219 1.082031.808594 0 .019531-.070312.144531-.222656.363281-.152344.230469-.25.398438-.277344.511719-.035156.121094-.21875.964844-.546875 2.53125.023438.019531.09375.03125.210938.03125.65625 0 1.179687-.046875 1.578125-.140625.070312 0 .195312-.035156.367187-.125.179688-.078125.289063-.125.339844-.125.207031 0 .582031.121094 1.121094.359375.628906.234375.945312.453125.945312.660156 0 .195313-.242187.320313-.734375.390625-.304687.023438-.613281.042969-.910156.074219h-2.953125c-.140625.847656-.347656 2.140625-.628906 3.855469l5.929687-.101563c.792969-.265625 1.148438-.382812 1.046875-.382812.214844 0 .695313.15625 1.449219.484375.839844.351562 1.261719.671875 1.261719.945312zm-10.460938-4.703125h-.878906l-5.128906.527344.285156 3.765625 5.339844-.5625zm0 0"/></svg>