<svg height="40" viewBox="0 0 40 40" width="40" xmlns="http://www.w3.org/2000/svg"><path d="m31.457031 35.171875c-.890625.308594-1.914062.464844-3.082031.464844-.441406 0-.878906-.195313-1.308594-.5625-1.351562-1.476563-2.707031-2.964844-4.066406-4.460938-1.777344-1.804687-3.324219-3.046875-4.628906-3.722656-.117188-.066406-.179688-.140625-.179688-.214844 0-.160156.121094-.238281.355469-.238281.277344 0 1.128906.511719 2.558594 1.546875.703125-.542969 1.507812-1.234375 2.421875-2.074219 1.195312-1.128906 1.789062-1.894531 1.789062-2.316406 0-.074219-.070312-.285156-.207031-.636719l.386719-.273437c.210937.019531.546875.253906 1.015625.695312.472656.449219.703125.761719.703125.949219-.09375.046875-.328125.234375-.703125.5625-1.921875 1.660156-3.609375 2.765625-5.09375 3.296875 1.289062 1.125 2.859375 2.449219 4.703125 3.96875.632812.515625 2.414062 1.519531 5.335937 3.015625zm-9.332031-3.46875c-.609375.5625-1.519531 1.296875-2.738281 2.207031-1.289063 1.007813-2.199219 1.746094-2.734375 2.210938-.730469.796875-1.199219 1.195312-1.414063 1.195312-.179687 0-.421875-.160156-.710937-.472656-.296875-.3125-.453125-.578125-.476563-.785156.46875-.824219.703125-1.433594.703125-1.835938v-3.925781c0-.121094-.082031-.328125-.25-.628906-.539062.582031-1.472656 1.238281-2.804687 1.960937-1.429688.796875-2.480469 1.199219-3.15625 1.199219 1.515625-.871094 3.082031-2.066406 4.703125-3.582031 2.007812-1.917969 3.015625-3.5 3.015625-4.742188 0-.441406.195312-.660156.597656-.660156.234375 0 .511719.15625.839844.484375s.492187.609375.492187.839844c0 .144531-.4375.742187-1.300781 1.8125-.859375 1.0625-1.421875 1.722656-1.6875 1.976562.5.195313.738281.523438.738281.984375v4.953125l.074219.140625c.769531-.347656 1.808594-.925781 3.105469-1.734375 1.300781-.8125 2.296875-1.421875 3.003906-1.847656zm0 0"/></svg>