<?xml version="1.0" standalone="no"?>
<!DOCTYPE svg PUBLIC "-//W3C//DTD SVG 20010904//EN"
 "http://www.w3.org/TR/2001/REC-SVG-20010904/DTD/svg10.dtd">
<svg version="1.0" xmlns="http://www.w3.org/2000/svg"
 viewBox="0 0 96.000000 68.000000"
 preserveAspectRatio="xMidYMid meet">

<g transform="translate(0.000000,68.000000) scale(0.100000,-0.100000)"
fill="#000000" stroke="none">
<path d="M660 475 c-30 -52 -57 -95 -61 -95 -16 0 -119 51 -119 59 0 5 7 11
15 15 43 16 -6 76 -62 76 -35 -1 -41 -5 -78 -61 -22 -34 -80 -98 -128 -144
-55 -51 -84 -85 -77 -90 18 -11 117 54 193 128 38 37 72 67 73 67 2 0 4 -70 4
-156 0 -138 2 -155 16 -150 9 3 22 6 30 6 11 0 14 23 14 120 0 92 3 120 13
120 20 0 121 -94 162 -151 28 -37 43 -49 59 -47 16 2 22 11 24 40 3 34 -3 44
-49 93 l-52 55 50 58 c28 31 59 59 69 60 35 7 34 18 -4 55 l-37 36 -55 -94z"/>
</g>
</svg>
