<svg height="40" viewBox="0 0 40 40" width="40" xmlns="http://www.w3.org/2000/svg"><path d="m19.265625 8.191406c0 .464844-.171875.699219-.5.699219-.277344 0-.644531-.441406-1.097656-1.347656-.460938-.902344-.796875-1.523438-1-1.882813-.421875-.742187-.824219-1.316406-1.195313-1.710937l.277344-.289063c.113281 0 .605469.34375 1.457031 1.039063.855469.691406 1.320313 1.113281 1.386719 1.285156.441406.859375.671875 1.605469.671875 2.207031zm13.234375 3.015625c0 .214844-.203125.375-.597656.492188-.289063.070312-.5625.128906-.84375.175781-.914063.421875-2.054688 1.136719-3.40625 2.140625l-.28125-.277344c.867187-.863281 1.691406-1.875 2.492187-3.015625-.328125-.285156-.515625-.425781-.554687-.425781-.101563 0-1.195313.097656-3.273438.28125-4 .375-8.457031.878906-13.367187 1.503906-.140625.03125-.464844.101563-.949219.214844-.40625.09375-.703125.140625-.917969.140625-.328125 0-.769531-.089844-1.332031-.28125-.113281.796875-.234375 1.59375-.347656 2.386719-.234375 1.195312-.5625 1.796875-.984375 1.796875s-.636719-.617188-.636719-1.835938c0-.085937.175781-.582031.527344-1.472656.359375-.886719.53125-1.503906.53125-1.859375 0-.0625-.023438-.183594-.058594-.332031-.03125-.148438-.050781-.261719-.050781-.328125 0-.148438.082031-.25.25-.324219.1875.308594.363281.613281.523437.921875.167969.183594.523438.277344 1.085938.277344.210937 0 1.675781-.164063 4.390625-.492188 1.875-.207031 4.6875-.53125 8.457031-.945312.234375-.234375.78125-1.074219 1.636719-2.507813.851562-1.445312 1.28125-2.285156 1.28125-2.515625 0-.394531-.261719-.6875-.773438-.875l.101563-.285156h.25c.441406 0 .984375.253906 1.632812.761719.640625.5.976563.957031.996094 1.382812-.675781.445313-1.425781 1.078125-2.246094 1.898438-.726562.695312-1.441406 1.390625-2.140625 2.066406.046875.019531.09375.035156.136719.035156 1.292969 0 2.753906-.128906 4.390625-.382812.140625-.023438.394531-.09375.761719-.214844.351562-.113281.625-.171875.785156-.171875.1875 0 .65625.308594 1.40625.910156.746094.609375 1.125 1 1.125 1.15625zm-18.046875-2.066406c0 .441406-.140625.660156-.417969.660156-.285156 0-.53125-.171875-.742187-.523437-.796875-1.335938-1.242188-2.070313-1.328125-2.210938-.542969-.789062-1.117188-1.445312-1.71875-1.96875.082031-.179687.171875-.273437.238281-.273437.167969 0 .691406.296875 1.582031.894531.890625.59375 1.40625.984375 1.546875 1.175781.558594.699219.839844 1.449219.839844 2.246094zm0 0"/></svg>