<?xml version="1.0" standalone="no"?>
<!DOCTYPE svg PUBLIC "-//W3C//DTD SVG 20010904//EN"
 "http://www.w3.org/TR/2001/REC-SVG-20010904/DTD/svg10.dtd">
<svg version="1.0" xmlns="http://www.w3.org/2000/svg"
 viewBox="-20 -20 190.000000 170.000000"
 preserveAspectRatio="xMidYMid meet">

<g transform="translate(0.000000,134.000000) scale(0.100000,-0.100000)"
fill="#000000" stroke="none">
<path d="M610 1187 c-19 -6 -36 -11 -38 -13 -2 -1 8 -20 22 -42 21 -34 56
-107 56 -118 0 -2 -34 -4 -75 -4 l-74 0 -48 89 -48 88 -48 -14 c-41 -12 -46
-16 -37 -31 6 -9 26 -42 45 -72 l35 -55 -105 -3 -105 -3 0 -82 c0 -45 -3 -106
-6 -134 l-7 -53 52 0 51 0 0 90 0 90 420 0 420 0 0 -90 0 -90 51 0 c43 0 50 3
45 16 -3 9 -6 69 -6 135 l0 119 -120 0 c-66 0 -120 2 -120 4 0 2 22 37 49 77
l49 74 -36 12 c-60 19 -66 16 -94 -41 -15 -30 -41 -70 -59 -90 -30 -34 -35
-37 -81 -34 l-50 3 -36 90 c-22 53 -43 90 -52 91 -8 1 -31 -3 -50 -9z"/>
</g>
</svg>
