<svg height="40" viewBox="0 0 40 40" width="40" xmlns="http://www.w3.org/2000/svg"><path d="m30.355469 13.878906s-.210938.261719-.636719.804688v9.019531c0 .113281.027344.277344.074219.472656.046875.203125.070312.351563.070312.445313 0 .296875-.226562.90625-.679687 1.804687-.460938.898438-.804688 1.351563-1.039063 1.351563-.144531 0-.289062-.125-.457031-.371094-.160156-.238281-.425781-.628906-.777344-1.140625-.65625-.792969-1.507812-1.410156-2.554687-1.859375l.097656-.28125h.214844c.140625 0 .582031.113281 1.316406.347656.738281.234375 1.277344.351563 1.628906.351563.496094 0 .742188-.277344.742188-.84375v-4.914063c-.117188-.019531-.777344-.035156-1.992188-.035156-.910156 0-1.921875.015625-3.039062.035156l-.0625 4.949219c0 .207031-.058594.480469-.179688.808594-.113281.328125-.242187.492187-.382812.492187-.371094 0-.589844-.382812-.664063-1.15625 0 .1875 0-.328125 0-1.546875v-3.257812h-.425781c-.421875 0-1.011719.03125-1.761719.101562-.898437.074219-1.492187.101563-1.800781.101563l-.035156 4.640625c0 .234375-.058594.535156-.179688.910156-.144531.441406-.296875.660156-.457031.660156-.167969 0-.363281-.28125-.605469-.851562-.234375-.574219-.347656-.953125-.347656-1.140625 0-.101563.058594-.28125.171875-.546875.121094-.265625.175781-.429688.175781-.476563v-2.984375l-4.457031.28125c-.09375 0-.144531.070313-.144531.214844 0 .511719.023437 1.292969.0625 2.332031.023437 1.042969.046875 1.820313.046875 2.335938 0 1.164062-.1875 1.757812-.558594 1.757812-.191406 0-.425781-.300781-.703125-.898437-.285156-.59375-.421875-1.011719-.421875-1.246094 0-.160156.050781-.40625.152344-.734375.109375-.328125.160156-.578125.160156-.738281l-.175781-7.726563c-.023438-.726562-.386719-1.410156-1.085938-2.066406l.171875-.324219c.140625.03125.578125.203125 1.304688.53125.65625.28125 1.023437.417969 1.117187.417969.027344 0 .90625-.0625 2.636719-.203125 2.613281-.167969 6.515625-.496094 11.6875-.984375.214844-.019531.515625-.113281.933594-.261719.410156-.15625.617187-.234375.648437-.234375.183594 0 .601563.234375 1.246094.710938.644531.460937.964844.773437.964844.945312zm-2 3.855469v-3.503906c-.546875-.328125-.851563-.496094-.917969-.496094-.09375 0-1.675781.113281-4.734375.347656.683594.515625 1.015625.882813 1.015625 1.09375 0 .09375-.042969.199219-.140625.3125-.09375.117188-.152344.214844-.171875.289063-.019531.507812-.082031 1.265625-.175781 2.269531zm-6.320313.457031v-2.628906c0-.234375-.0625-.527344-.175781-.859375-.113281-.34375-.269531-.496094-.457031-.472656l-3.648438.3125c.148438.253906.242188.671875.277344 1.234375.03125.390625.03125.894531 0 1.503906 0 .839844 0 1.25 0 1.230469zm-5.265625.492188v-3.335938c0-.164062-.070312-.316406-.210937-.457031-.136719-.136719-.277344-.207031-.417969-.207031l-3.972656.316406v3.996094zm0 0"/></svg>