<svg height="40" viewBox="0 0 40 40" width="40" xmlns="http://www.w3.org/2000/svg"><path d="m25.875 9.386719c0 .050781-.066406.191406-.199219.421875-.128906.234375-.203125.398437-.222656.492187-.113281.558594-.203125 1.515625-.261719 2.886719-.054687 1.363281-.160156 2.285156-.296875 2.769531-.050781.261719-.210937.386719-.492187.386719-.351563 0-.558594-.144531-.625-.449219-2.058594 0-4.070313.1875-6.046875.558594-.289063.042969-.460938.128906-.546875.246094-.078125.117187-.167969.175781-.261719.175781-.605469 0-.953125-1.050781-1.046875-3.152344-.09375-2.351562-.167969-3.566406-.207031-3.628906-.046875-.074219-.402344-.496094-1.046875-1.265625l.097656-.203125c.074219.019531.359375.128906.859375.328125.5.203125.777344.296875.816406.296875-.066406 0 .386719-.066406 1.371094-.207031 1.347656-.121094 3.222656-.375 5.625-.773438.042969 0 .152344-.035156.3125-.117187.167969-.085938.269531-.121094.3125-.121094.1875 0 .546875.183594 1.066406.558594.523438.367187.792969.640625.792969.796875zm2.832031 10.320312c0 .023438-.085937.140625-.25.359375-.164062.226563-.253906.359375-.28125.402344-.179687 1.03125-.453125 2.359375-.800781 3.984375-.300781 1.171875-.796875 2.578125-1.472656 4.234375-.886719 2.1875-1.578125 3.28125-2.089844 3.28125-1.328125-1.214844-2.636719-2.15625-3.921875-2.828125l.144531-.238281c2.304688.554687 3.46875.832031 3.496094.832031.792969 0 1.574219-1.46875 2.34375-4.402344.605469-2.265625.964844-4.140625 1.082031-5.625-.070312-.070312-.398437-.328125-.984375-.769531l-8.90625 1.464844c-.03125 0-.195312-.039063-.507812-.109375-.320313-.0625-.507813-.101563-.578125-.101563-1.914063 2.027344-3.453125 3.28125-4.617188 3.777344l-.070312-.175781c3.195312-3.289063 4.796875-5.234375 4.796875-5.835938 0-.050781-.070313-.191406-.199219-.421875-.125-.234375-.1875-.382812-.1875-.453125 0-.070312.035156-.148437.097656-.242187 1.214844.484375 1.835938.925781 1.855469 1.328125-.265625.273437-.636719.695312-1.121094 1.253906.351563.09375.546875.140625.59375.140625.023438 0 .601563-.109375 1.726563-.328125 1.113281-.222656 2.757812-.566406 4.914062-1.03125 1.5-.328125 2.257813-.496094 2.257813-.496094.179687 0 .675781.292969 1.472656.882813.800781.578125 1.207031.945312 1.207031 1.117187zm-5.140625 7.617188c0 .554687-1.484375.832031-4.4375.832031-2.359375 0-3.535156-.71875-3.535156-2.160156 0-.277344.035156-.699219.109375-1.257813.0625-.5625.097656-.984375.097656-1.265625 0-.347656-.078125-.601562-.238281-.757812-.050781-.074219-.28125-.25-.703125-.53125l.074219-.242188h.207031c.253906 0 .621094.117188 1.082031.367188.464844.242187.699219.46875.699219.679687 0 .1875-.035156.464844-.125.839844-.078125.375-.113281.660156-.113281.875 1.625-.46875 3.007812-1.078125 4.148437-1.816406 0-.210938-.097656-.515625-.3125-.914063.054688-.046875.121094-.066406.214844-.066406.15625 0 .464844.1875.90625.582031.441406.382813.667969.65625.667969.824219v.347656c-1.167969.359375-3.023438.839844-5.5625 1.449219-.136719.441406-.210938.816406-.210938 1.125 0 .652344.402344.984375 1.195313.984375 1.398437 0 2.582031-.105469 3.5625-.316406.601562-.125 1.101562-1.039063 1.503906-2.761719h.277344l-.140625 2.375c0 .09375.109375.21875.320312.371094.203125.15625.3125.300781.3125.4375zm.632813-17.652344c0-.046875-.085938-.152344-.234375-.3125-.152344-.167969-.246094-.234375-.296875-.214844l-6.851563.839844c.046875 1.402344.046875 2.25 0 2.558594h.527344l5.9375-1.09375c.167969.03125.417969.070312.734375.144531.125-1.347656.183594-1.996094.183594-1.921875zm-.214844 5.3125v-2.65625c-.074219.042969-.152344.066406-.246094.066406-.050781 0-.148437-.015625-.304687-.050781-.152344-.035156-.242188-.050781-.261719-.050781l-6.078125.96875c.027344 1.445312.03125 2.269531 0 2.457031h.5625zm0 0"/></svg>