<?xml version="1.0" standalone="no"?>
<!DOCTYPE svg PUBLIC "-//W3C//DTD SVG 20010904//EN"
 "http://www.w3.org/TR/2001/REC-SVG-20010904/DTD/svg10.dtd">
<svg version="1.0" xmlns="http://www.w3.org/2000/svg"
 viewBox="-25 -20 180.000000 164.000000"
 preserveAspectRatio="xMidYMid meet">

<g transform="translate(0.000000,144.000000) scale(0.100000,-0.100000)"
fill="#000000" stroke="none">
<path d="M361 975 l3 -235 47 0 c44 0 46 1 41 25 -4 22 -1 25 22 25 31 0 31 0
6 -50 -29 -57 -111 -134 -175 -164 -30 -15 -55 -32 -55 -39 0 -7 15 -29 33
-50 l32 -38 40 30 c22 17 43 31 48 31 4 0 7 -42 7 -94 0 -90 1 -96 26 -115 24
-19 40 -21 183 -21 126 0 161 3 179 16 23 16 72 103 72 128 0 8 -18 25 -40 37
-44 25 -44 34 3 44 49 11 50 14 15 58 -17 23 -33 43 -34 45 -1 2 -13 -3 -26
-11 -30 -20 -179 -65 -242 -73 l-49 -7 5 36 c2 20 0 38 -6 40 -5 2 -6 9 -2 15
5 9 69 12 232 12 l225 0 -6 -87 c-8 -103 -28 -212 -47 -251 -11 -23 -20 -27
-53 -27 -22 1 -59 4 -83 9 l-44 8 31 -53 c27 -49 34 -54 68 -57 60 -5 122 8
142 29 26 28 48 113 66 259 22 179 21 201 -13 233 l-28 27 -211 0 -211 0 15
40 16 40 124 0 123 0 0 -25 c0 -23 3 -25 50 -25 l50 0 0 235 0 235 -291 0
-290 0 2 -235z m487 113 l-3 -43 -197 -3 -198 -2 0 45 0 45 201 0 200 0 -3
-42z m2 -168 l0 -40 -200 0 -200 0 0 40 0 40 200 0 200 0 0 -40z m-70 -450 c0
-11 -7 -38 -16 -60 l-16 -41 -122 3 c-121 3 -121 3 -124 28 -3 24 1 26 130 56
73 17 136 32 141 33 4 0 7 -8 7 -19z"/>
</g>
</svg>
