<svg height="40" viewBox="0 0 40 40" width="40" xmlns="http://www.w3.org/2000/svg"><path d="m20.84375 11.277344h-1.363281v-.453125c.347656-.261719.566406-.386719.660156-.386719.121094 0 .355469.125.703125.386719zm0 1.191406h-1.363281v-.558594h1.363281zm-.066406 3.894531h-1.296875v-.804687h1.296875zm0 1.585938h-1.296875v-.886719h1.296875zm10.421875.597656c0 .277344-.179688.40625-.527344.386719l-3.46875-.289063c-.144531 0-.269531.015625-.390625.039063-.230469 1.03125-.574219 2.5625-1.019531 4.601562.070312.042969.175781.0625.316406.0625.144531 0 .347656-.035156.621094-.097656.265625-.074219.457031-.109375.570312-.109375.195313 0 .496094.113281.933594.347656.433594.234375.652344.4375.652344.601563 0 .257812-.226563.378906-.671875.347656h-.039063c-.273437 0-.929687-.03125-1.957031-.105469-.796875-.070312-1.453125-.109375-1.96875-.109375 0 0-1.167969.039063-3.511719.109375-.019531.195313-.015625.398438.039063.636719h-1.296875v-.421875c-.054688-.050781-.109375-.074219-.179688-.074219-1.117187 0-2.585937.214844-4.390625.636719-.070312 0-.222656.058594-.472656.171875-.246094.121094-.4375.175781-.582031.175781-.371094 0-1.03125-.441406-1.996094-1.332031l.109375-.25c1.003906.234375 1.808594.347656 2.421875.347656l-.425781-4.28125c-.023438-.019531-.078125-.035156-.171875-.035156-.328125 0-.859375.152344-1.601563.425781-.734375.28125-1.1875.421875-1.351562.421875-.183594 0-.570313-.253906-1.152344-.757812-.59375-.5-.886719-.859375-.886719-1.0625 0-.054688.074219-.148438.214844-.289063.675781.492188 1.316406.742188 1.933594.742188.65625 0 1.601562-.125 2.84375-.390625-.09375-1.070313-.257813-1.917969-.496094-2.523438-.027344-.050781-.144531-.25-.390625-.597656-.183594-.253906-.277344-.4375-.277344-.527344l.074219-.144531c-1.003906-.558594-1.566406-1.175781-1.683594-1.859375.042969-.0625.117188-.097656.203125-.097656-.019531 0 .242188.144531.773438.4375.539062.289062.976562.425781 1.300781.398437l6.144531-.597656.039063-.347656h1.363281c0 .144531.050781.207031.144531.207031 1.515625 0 3.289063-.15625 5.304688-.484375.082031-.027344.265625-.089844.535156-.199219.269531-.101562.433594-.15625.472656-.15625.328125 0 .820313.121094 1.460938.355469.640625.230469.960937.480469.960937.734375s-.273437.386719-.835937.386719c-.1875 0-.511719-.023438-.96875-.074219-.453125-.042969-.804688-.058594-1.039063-.035156l-6.066406.285156c-.050781.253906-.050781.488281 0 .699219h-1.332031c0-.234375-.03125-.40625-.074219-.527344l-6.140625.875c.746094.214844 1.246094.683594 1.511719 1.410156.132812.371094.234375 1.078125.273437 2.105469l10.429688-.910156c.140625-.710938.210937-1.328125.210937-1.867188 0-.253906-.25-.601562-.738281-1.050781 0-.1875.089844-.277344.28125-.277344.28125 0 .691406.152344 1.230469.476563.53125.3125.800781.597656.800781.851562 0 0-.125.609375-.386719 1.828125h.324219c.230469.023438.574219-.019531 1.03125-.132812.453125-.125.792969-.183594 1-.183594.214844 0 .59375.144531 1.140625.421875.550781.28125.824219.5.824219.671875zm-10.53125 7.933594h-1.1875v-.882813h1.1875zm-.027344 1.4375h-1.160156v-.777344h1.160156zm0 .984375c0 .0625-.089844.195312-.25.382812-.167969.183594-.285156.277344-.347656.277344-.09375 0-.289063-.246094-.5625-.734375v-.277344h1.160156zm4.730469-10.257813-4.558594.386719v.355469c0 .164062-.035156.265625-.109375.316406h-1.222656v-.53125l-4.320313.496094.277344 4.382812 4.042969-.347656c0-.140625.003906-.246094.023437-.316406h1.199219l.035156.210937 3.933594-.285156zm-4.632813 2.570313h-1.257812v-.808594h1.257812zm0 1.472656h-1.257812v-.769531h1.257812zm0 0"/></svg>