<?xml version="1.0" standalone="no"?>
<!DOCTYPE svg PUBLIC "-//W3C//DTD SVG 20010904//EN"
 "http://www.w3.org/TR/2001/REC-SVG-20010904/DTD/svg10.dtd">
<svg version="1.0" xmlns="http://www.w3.org/2000/svg"
 viewBox="-20 -20 180.000000 164.000000"
 preserveAspectRatio="xMidYMid meet">

<g transform="translate(0.000000,134.000000) scale(0.100000,-0.100000)"
fill="#000000" stroke="none">
<path d="M270 910 l0 -50 68 2 67 3 3 -53 3 -53 -130 3 -131 3 0 -50 0 -50
131 3 130 4 -3 -54 -3 -53 -67 1 -68 1 0 -51 0 -51 209 3 210 3 3 -38 c3 -37
4 -38 46 -41 l42 -3 0 41 0 41 205 -3 205 -3 0 52 0 51 -67 -1 -68 -2 0 50 0
50 128 0 128 0 -3 49 -3 48 -128 -1 -128 -2 3 53 3 53 68 -2 67 -2 0 50 0 49
-460 0 -460 0 0 -50z m415 -95 l0 -50 -92 -3 -93 -3 0 56 0 55 93 -2 92 -3 0
-50z m280 0 l0 -50 -92 -3 -93 -3 0 49 c0 27 3 52 7 56 4 4 46 6 93 4 l85 -3
0 -50z m-280 -200 l0 -50 -92 -3 -93 -3 0 56 0 56 93 -3 92 -3 0 -50z m280 0
l0 -50 -92 -3 -93 -3 0 56 0 56 93 -3 92 -3 0 -50z"/>
</g>
</svg>
