<svg height="40" viewBox="0 0 40 40" width="40" xmlns="http://www.w3.org/2000/svg"><path d="m26.6875 9.484375c0 .019531-.09375.160156-.292969.40625-.203125.246094-.3125.449219-.335937.613281-.304688 2.109375-.59375 4.214844-.875 6.320313-.304688 1.96875-.679688 2.953125-1.117188 2.953125-.1875 0-.398437-.089844-.632812-.25-.230469-.164063-.351563-.25-.351563-.25-.160156 0-1.242187.207031-3.25.597656-2.125.402344-3.484375.691406-4.097656.875-.019531.941406-.078125 2.378906-.175781 4.324219-.0625 1.820312-.101563 2.722656-.101563 2.695312 0 .617188.164063.917969.492188.917969.300781 0 1.535156-.433594 3.703125-1.300781 1.910156-.773438 3.191406-1.304688 3.84375-1.609375l-2-3.757813c.09375-.09375.140625-.191406.140625-.285156 1.3125.910156 2.390625 1.96875 3.226562 3.15625.914063 1.292969 1.371094 2.496094 1.371094 3.621094 0 .632812-.214844.945312-.636719.945312-.347656 0-.753906-.476562-1.222656-1.4375-.261719-.582031-.515625-1.160156-.769531-1.71875-.402344.210938-1.011719.53125-1.835938.953125-2.96875 1.554688-5.070312 2.820313-6.3125 3.777344-.160156.191406-.328125.390625-.488281.597656-.308594.339844-.5625.496094-.769531.496094-.355469 0-.617188-1.058594-.777344-3.160156 0-.023438.066406-.21875.214844-.578125.132812-.367188.21875-.625.238281-.796875.050781-1.046875.152344-2.632813.324219-4.746094l.171875-11.703125c-.054688-.519531-.402344-1.125-1.058594-1.832031.074219-.0625.109375-.152344.109375-.246094.796875.125 1.417969.238281 1.859375.355469.328125.066406.488281.101562.488281.101562.074219 0 .679688-.09375 1.828125-.273437 1.359375-.167969 3.382813-.476563 6.070313-.921875.117187-.023438.304687-.101563.5625-.242188.257812-.144531.414062-.207031.457031-.207031.140625 0 .511719.230469 1.109375.699219.589844.46875.890625.769531.890625.910156zm-2.457031.550781c0-.441406-.214844-.65625-.625-.628906l-7.796875 1.246094c.050781.113281.050781.675781 0 1.6875-.070313 1.09375-.070313 1.828125 0 2.195312l8.144531-1.222656zm-.453125 4.386719-7.96875 1.203125v3.902344l7.65625-1.308594zm0 0"/></svg>