<svg height="40" viewBox="0 0 40 40" width="40" xmlns="http://www.w3.org/2000/svg"><path d="m26.8125 12.066406c0 .308594-.191406.433594-.5625.390625-.636719-.070312-1.140625-.132812-1.511719-.175781l-6.382812.5625c-.214844.019531-.777344-.09375-1.6875-.347656l-1.40625 4.664062c.253906.117188.421875.171875.492187.171875-.707031 0-.625-.054687.242188-.171875.5625-.097656 1.710937-.234375 3.457031-.425781 1.746094-.1875 2.839844-.3125 3.28125-.386719.75-.1875 1.097656-.273437 1.058594-.273437.1875 0 .566406.210937 1.132812.648437.578125.429688.867188.730469.867188.886719 0 .121094-.101563.328125-.28125.636719-.1875.304687-.292969.523437-.320313.664062-.066406.730469-.273437 2.042969-.628906 3.9375-.464844 1.984375-1.003906 3.742188-1.613281 5.265625-.777344 1.917969-1.765625 3.449219-2.984375 4.59375-.421875.402344-.761719.59375-1.015625.59375-.210938 0-.402344-.128906-.558594-.382812-.921875-1.375-1.925781-2.40625-3.019531-3.085938l.140625-.285156c2.050781.9375 3.226562 1.410156 3.503906 1.410156.675781 0 1.203125-.269531 1.582031-.8125.09375-.132812.367188-.695312.808594-1.679687 1.472656-3.277344 2.328125-6.945313 2.5625-10.992188-.214844-.191406-.402344-.273437-.5625-.273437-1.917969 0-4.8125.425781-8.671875 1.296875-.347656.507812-.65625.769531-.910156.769531-.421875 0-.636719-.417969-.636719-1.230469 0-.160156.140625-.394531.425781-.703125l.59375-.632812c.214844-.328125.652344-1.699219 1.3125-4.121094.671875-2.425781 1-3.832031 1-4.230469 0-.164062-.144531-.40625-.453125-.71875-.300781-.3125-.535156-.492187-.695312-.546875v-.382812h.660156c.253906 0 .6875.171875 1.285156.519531.601563.359375.890625.636719.890625.847656 0 .117188-.082031.226563-.242187.335938-.167969.101562-.261719.179687-.28125.226562-.214844.8125-.453125 1.792969-.742188 2.917969.523438.183594.984375.277344 1.414063.277344 2.171875 0 3.757812-.132813 4.765625-.386719.09375-.027344.289062-.136719.582031-.339844.292969-.195312.484375-.296875.578125-.296875.378906 0 .863281.132813 1.472656.386719.703125.285156 1.058594.578125 1.058594.878906zm0 0"/></svg>