<?xml version="1.0" standalone="no"?>
<!DOCTYPE svg PUBLIC "-//W3C//DTD SVG 20010904//EN"
 "http://www.w3.org/TR/2001/REC-SVG-20010904/DTD/svg10.dtd">
<svg version="1.0" xmlns="http://www.w3.org/2000/svg"
 viewBox="-20 -20 180.000000 164.000000"
 preserveAspectRatio="xMidYMid meet">

<g transform="translate(0.000000,144.000000) scale(0.100000,-0.100000)"
fill="#000000" stroke="none">
<path d="M445 1219 c-49 -214 -117 -484 -125 -499 -11 -21 -6 -23 62 -36 40
-7 40 -6 52 49 l6 27 225 0 c135 0 226 -4 230 -10 16 -25 -37 -368 -68 -442
l-16 -38 -103 0 c-57 0 -134 7 -172 15 -38 8 -71 13 -72 12 -2 -2 5 -30 15
-62 l19 -60 177 -3 177 -2 27 29 c41 43 80 200 101 396 4 44 11 110 15 147 l8
67 -34 20 c-32 20 -49 21 -265 21 -127 0 -233 2 -236 5 -3 3 2 36 11 73 l17
67 297 0 297 0 0 48 0 47 -285 0 -285 0 6 28 c4 15 13 45 20 67 7 21 12 40 11
41 -1 2 -26 6 -54 10 -49 6 -52 5 -58 -17z"/>
</g>
</svg>
