<?xml version="1.0" standalone="no"?>
<!DOCTYPE svg PUBLIC "-//W3C//DTD SVG 20010904//EN"
 "http://www.w3.org/TR/2001/REC-SVG-20010904/DTD/svg10.dtd">
<svg version="1.0" xmlns="http://www.w3.org/2000/svg"
 viewBox="-25 -30 180.000000 164.000000"
 preserveAspectRatio="xMidYMid meet">

<g transform="translate(0.000000,114.000000) scale(0.100000,-0.100000)"
fill="#000000" stroke="none">
<path d="M925 817 c-22 -22 -73 -55 -113 -74 -69 -34 -72 -36 -59 -57 8 -11
19 -31 26 -43 l12 -23 47 24 c42 22 148 94 211 144 l24 19 -45 27 c-25 14 -49
25 -54 25 -5 -1 -27 -20 -49 -42z"/>
<path d="M342 817 l-32 -33 34 -16 c18 -9 70 -46 115 -82 45 -36 85 -66 89
-66 11 0 88 68 82 72 -52 43 -234 158 -248 158 -5 0 -23 -15 -40 -33z"/>
<path d="M528 546 c-42 -48 -144 -112 -205 -129 -24 -6 -43 -16 -43 -23 0 -6
14 -30 30 -53 l30 -41 53 26 c95 49 267 179 267 204 0 9 -76 60 -87 59 -5 0
-24 -20 -45 -43z"/>
<path d="M737 552 l-38 -38 28 -13 c49 -22 175 -103 231 -149 l54 -44 42 41
41 42 -25 19 c-20 15 -266 166 -290 178 -3 1 -23 -15 -43 -36z"/>
</g>
</svg>
