<svg height="40" viewBox="0 0 40 40" width="40" xmlns="http://www.w3.org/2000/svg"><path d="m29.160156 14.503906c0 .140625-.125.25-.390625.3125-.859375.234375-1.957031.789063-3.296875 1.65625-1.210937.796875-2.429687 1.589844-3.648437 2.386719-.117188-.234375-.179688-.34375-.179688-.3125 0-.03125.085938-.125.25-.285156.75-.679688 1.492188-1.355469 2.210938-2.039063 1.21875-1.210937 1.820312-2.0625 1.820312-2.523437 0-.375-.234375-.6875-.695312-.949219v-.28125h.28125c.234375 0 .863281.234375 1.894531.703125 1.171875.515625 1.753906.964844 1.753906 1.332031zm.808594 11.9375c0 .605469-.234375.914063-.699219.914063-.285156 0-.578125-.1875-.882812-.5625-2.195313-2.742188-4.28125-4.667969-6.242188-5.796875l.171875-.351563c1.214844.289063 2.636719.882813 4.246094 1.792969 2.269531 1.339844 3.40625 2.671875 3.40625 4.003906zm-12.597656-8.878906c0 .535156-.195313.800781-.5625.800781-.195313 0-.96875-.570312-2.355469-1.710937-1.800781-1.527344-2.90625-2.433594-3.296875-2.710938v-.347656c1.21875.46875 2.433594.949219 3.644531 1.4375 1.714844.75 2.570313 1.589844 2.570313 2.53125zm1.957031 3.050781c-1.1875 1.289063-2.652344 2.75-4.378906 4.386719-.382813.28125-.886719.765625-1.511719 1.441406-.074219.234375-.175781.589844-.324219 1.089844-2.054687-.683594-3.082031-1.628906-3.082031-2.84375v-.25h.527344c0 .113281.109375.308594.332031.5625.21875.261719.417969.386719.578125.386719.371094 0 1.683594-.796875 3.933594-2.386719 1.710937-1.21875 2.898437-2.105469 3.578125-2.667969.070312.023438.1875.117188.347656.28125zm0 0"/></svg>