<svg height="40" viewBox="0 0 40 40" width="40" xmlns="http://www.w3.org/2000/svg"><path d="m8.769531 12.378906c0 .023438-.066406.179688-.1875.460938-.132812.273437-.207031.46875-.234375.5625l-.140625 7.160156c-.019531.863281-.171875 1.296875-.453125 1.296875-.535156 0-.804687-.527344-.804687-1.582031 0-.117188.039062-.296875.140625-.5625.09375-.257813.132812-.445313.132812-.558594v-6.636719c0-.160156-.109375-.425781-.328125-.789062-.222656-.367188-.40625-.605469-.546875-.71875v-.28125h.460938c.160156 0 .535156.234375 1.101562.703125.574219.46875.859375.785156.859375.945312zm4.882813-3.226562c0 .113281-.070313.28125-.214844.492187-.136719.210938-.203125.351563-.203125.417969-.03125.402344-.058594 1.113281-.109375 2.140625l-.214844 6.738281c-.0625 2.460938-.476562 4.71875-1.222656 6.777344-.890625 2.484375-2.410156 4.71875-4.5625 6.707031-.074219-.019531-.175781-.109375-.316406-.25 3.179687-3.648437 4.859375-8.238281 5.019531-13.757812l.097656-3.617188v-5.019531c0-.230469-.21875-.582031-.660156-1.046875-.402344-.402344-.734375-.691406-1.019531-.886719v-.273437c.441406.019531 1.078125.179687 1.894531.488281 1.003906.371094 1.511719.734375 1.511719 1.089844zm0 0"/></svg>