<svg height="40" viewBox="0 0 40 40" width="40" xmlns="http://www.w3.org/2000/svg"><path d="m28.160156 25.6875c1.21875 1.097656 1.839844 2.027344 1.839844 2.796875 0 .613281-.199219.917969-.597656.917969-.460938.054687-.949219-.421875-1.480469-1.4375-.558594-1.296875-1.792969-2.59375-3.707031-3.871094-.109375-.238281-.085938-.359375.078125-.359375.847656.296875 1.597656.613281 2.234375.957031.640625.320313 1.175781.65625 1.632812.996094zm-2.710937-5.03125v-3.671875h-9.898438v3.671875zm0-4.347656v-3.195313h-9.898438v3.195313zm-9.296875 8.976562c-.75.960938-1.601563 1.882813-2.558594 2.757813-.957031.859375-2.035156 1.65625-3.234375 2.394531-.394531.128906-.46875 0-.199219-.394531 2.605469-2.210938 4.3125-4.414063 5.109375-6.632813l1.398438 1.121094c.445312.378906.28125.628906-.515625.753906zm3.671875-12.847656h5.265625l.597656-.921875 1.4375 1.160156c.449219.351563.316406.601563-.394531.757813v8.503906c-.859375.90625-1.28125.957031-1.28125.15625v-.796875h-3.992188v8.144531c0 .875-.257812 1.496094-.757812 1.875-.242188.320313-.578125.480469-.996094.480469-.269531 0-.402344-.183594-.402344-.519531 0-.382813-.195312-.65625-.597656-.839844l-1.359375-.15625c-.265625-.160156-.265625-.332031 0-.519531h2.035156c.480469 0 .71875-.242188.71875-.71875v-7.746094h-4.546875v.796875c-.460937.433594-.789062.671875-1 .71875-.21875.03125-.316406-.175781-.316406-.636719v-10.660156l1.515625.921875zm-.601563.035156.875-4.269531 2 .71875c.449219.238281.605469.457031.476563.640625-.109375.1875-.546875.308594-1.3125.359375l-1.640625 2.550781zm0 0"/></svg>