<svg height="40" viewBox="0 0 40 40" width="40" xmlns="http://www.w3.org/2000/svg"><path d="m26.339844 27.175781c0 .265625-.683594.484375-2.039063.671875-1.894531.277344-4.257812.761719-7.09375 1.4375-.347656.984375-.703125 1.476563-1.050781 1.476563-.1875 0-.386719-.304688-.597656-.914063-.183594-.507812-.277344-.910156-.277344-1.195312 0-.164063.050781-.464844.15625-.914063.109375-.441406.171875-.753906.191406-.945312.046875-.417969.070313-.875.070313-1.367188v-6.457031c0-.890625-.148438-1.566406-.453125-2.035156-.234375-.382813-.757813-.867188-1.585938-1.476563l.140625-.351562c1.273438.28125 1.855469.421875 1.757813.421875.304687 0 1.59375-.664063 3.863281-2 2.175781-1.289063 3.496094-2.125 3.96875-2.527344-.167969-.609375-.457031-1.128906-.878906-1.578125.070312-.113281.164062-.183594.28125-.183594.253906 0 .859375.359375 1.804687 1.074219.949219.714844 1.421875 1.1875 1.421875 1.421875 0 .1875-.957031.671875-2.878906 1.441406-1.167969.449219-2.339844.898438-3.503906 1.367188-.75.285156-1.890625.710937-3.40625 1.296875.019531.03125.238281.191406.664062.492187.304688.214844.460938.414063.460938.601563 0 .117187-.058594.289062-.164063.523437-.101562.234375-.160156.40625-.160156.527344v2.566406c2.078125-.304687 3.683594-.691406 4.824219-1.160156.0625-.03125.226562-.128906.492187-.324219.257813-.179687.402344-.273437.421875-.273437.261719 0 .726563.125 1.382813.363281.660156.25.988281.46875.988281.652344 0 .113281-.589844.28125-1.785156.492187-2.667969.511719-4.777344.953125-6.324219 1.335938v6.523437c.03125.027344.058594.039063.109375.039063.09375 0 1.042969-.195313 2.84375-.59375 1.800781-.398438 2.75-.621094 2.84375-.667969.089844-.050781.253906-.167969.488281-.355469.234375-.179687.367188-.28125.386719-.28125.308594 0 .796875.101563 1.472656.28125.773438.210938 1.164063.414063 1.164063.59375zm0 0"/></svg>