<?xml version="1.0" standalone="no"?>
<!DOCTYPE svg PUBLIC "-//W3C//DTD SVG 20010904//EN"
 "http://www.w3.org/TR/2001/REC-SVG-20010904/DTD/svg10.dtd">
<svg version="1.0" xmlns="http://www.w3.org/2000/svg"
 viewBox="-30 -30 180.000000 160.000000"
 preserveAspectRatio="xMidYMid meet">

<g transform="translate(0.000000,132.000000) scale(0.100000,-0.100000)"
fill="#000000" stroke="none">
<path d="M720 1201 c-31 -24 -138 -56 -210 -65 -30 -4 -67 -9 -82 -12 l-28 -6
0 -329 0 -329 -55 0 c-30 0 -55 -1 -55 -3 0 -2 7 -24 16 -50 15 -46 17 -47 56
-47 l40 0 -3 -108 -4 -107 48 -3 47 -3 0 119 0 119 58 7 c31 3 101 14 155 23
l97 16 0 54 c0 30 -4 52 -9 49 -12 -8 -180 -42 -248 -51 l-53 -7 0 76 0 76
130 0 130 0 0 48 0 49 -130 -5 -130 -5 0 62 0 61 130 0 130 0 0 50 0 50 -130
0 -130 0 0 54 0 53 63 12 c89 17 155 37 222 66 l58 26 -39 40 c-21 21 -41 39
-44 39 -3 0 -16 -9 -30 -19z"/>
</g>
</svg>
