<svg height="40" viewBox="0 0 40 40" width="40" xmlns="http://www.w3.org/2000/svg"><path d="m25.265625 15.683594c0 .09375-.125.203125-.386719.320312-.703125.277344-1.648437.511719-2.84375.699219-.957031.160156-1.921875.328125-2.875.488281v3.867188c1.296875-.09375 2.429688-.3125 3.375-.671875.070313-.023438.195313-.117188.351563-.277344.171875-.167969.34375-.25.535156-.25 1.066406 0 1.605469.175781 1.605469.527344 0 .285156-.875.613281-2.621094.984375-1.363281.285156-2.441406.46875-3.246094.5625v4.351562l6-2 .105469.242188-6.105469 2.953125v3.582031c0 .796875-.1875 1.1875-.5625 1.1875-.304687 0-.515625-.453125-.632812-1.363281-.09375-.824219-.09375-1.390625 0-1.71875l-.074219-1.234375c-1.046875.445312-1.535156.671875-1.46875.671875-.300781 0-.65625-.292969-1.074219-.882813-.410156-.582031-.613281-1.035156-.613281-1.363281l.175781-.109375c.824219.5625 1.242188.84375 1.265625.84375-.046875 0 .527344-.128906 1.714844-.386719.074219-.367187.109375-.710937.109375-1.019531l.214844-10.566406c.019531-.933594-.34375-1.703125-1.089844-2.308594l.105469-.25h.285156c.082031 0 .511719.1875 1.261719.5625.347656-.234375 1.097656-.964844 2.242187-2.183594 1.148438-1.207031 1.71875-1.925781 1.71875-2.132812 0-.054688-.109375-.195313-.332031-.421875-.21875-.234375-.332031-.375-.332031-.429688 0-.09375.007812-.15625.035156-.207031h.246094c.304687 0 .820312.207031 1.5625.621094.734375.40625 1.148437.742187 1.242187 1-.789062.390625-1.8125 1.039062-3.050781 1.929687-1.824219 1.335938-2.808594 2.042969-2.949219 2.136719.140625.214844.214844.386719.214844.527344 0 .070312-.035156.160156-.109375.269531-.066406.097656-.105469.171875-.105469.222656v1.859375c.257813-.070312 1.015625-.289062 2.28125-.660156 1.261719-.378906 1.898438-.5625 1.898438-.5625.253906 0 .617187.058594 1.085937.171875.5625.140625.839844.28125.839844.417969zm0 0"/></svg>