<svg height="40" viewBox="0 0 40 40" width="40" xmlns="http://www.w3.org/2000/svg"><path d="m25.230469 20.277344c0 .46875-.164063.703125-.492188.703125-.257812 0-.4375-.125-.523437-.382813-.5625-1.382812-1.304688-2.367187-2.214844-2.953125l.171875-.25c2.042969.730469 3.058594 1.695313 3.058594 2.882813zm5.9375-3.964844c0 .113281-.089844.296875-.265625.546875-.183594.246094-.277344.402344-.296875.472656-.59375 1.570313-1.179688 3.136719-1.761719 4.703125-.984375 2.171875-2.011719 3.265625-3.089844 3.265625-.179687 0-.328125-.117187-.414062-.359375-.09375-.234375-.179688-.441406-.25-.625-.136719-.265625-.828125-.882812-2.070313-1.859375l.101563-.210937c.46875.160156.925781.335937 1.367187.523437.542969.214844 1.023438.3125 1.4375.3125.851563 0 1.664063-.910156 2.460938-2.734375.59375-1.382812.976562-2.679687 1.160156-3.890625-.582031-.445312-.933594-.671875-1.050781-.671875l-14.53125.914063c-.289063 0-.679688-.089844-1.199219-.265625-.511719-.171875-.875-.367188-1.082031-.574219.132812-.234375.28125-.347656.421875-.347656-.121094 0 .113281.054687.695312.171875.46875.066406 1.023438.101562 1.652344.101562 2.855469 0 5.933594-.140625 9.230469-.421875.890625-.066406 2.222656-.195312 4.003906-.390625.074219-.019531.238281-.070312.511719-.148437.269531-.089844.421875-.125.472656-.125.277344 0 .765625.210937 1.457031.628906.683594.421875 1.039063.75 1.039063.984375zm-10.007813 4.910156c0 .523438-.132812.777344-.390625.777344-.398437 0-.695312-.253906-.910156-.777344-.144531-.441406-.28125-.875-.421875-1.296875-.28125-.675781-.609375-1.257812-.984375-1.753906.09375-.121094.175781-.175781.25-.175781.09375 0 .453125.269531 1.074219.804687.617187.542969.957031.871094 1.03125.984375.234375.449219.351562.929688.351562 1.4375zm-4.078125 1.335938c0 .519531-.160156.773437-.488281.773437-.167969 0-.464844-.429687-.910156-1.296875-.261719-.519531-.527344-1.046875-.808594-1.582031-.277344-.542969-.578125-1.042969-.875-1.511719.09375-.113281.171875-.175781.238281-.175781.074219 0 .308594.191406.710938.5625.859375.824219 1.335937 1.292969 1.4375 1.40625.460937.582031.695312 1.191406.695312 1.824219zm-5.398437-3.542969c-.046875 1.261719-.226563 2.4375-.527344 3.503906-.425781 1.601563-1.019531 2.398438-1.796875 2.398438-.347656 0-.527344-.214844-.527344-.636719 0-.636719.0625-1.019531.179688-1.160156.816406-.933594 1.332031-1.554688 1.546875-1.859375.421875-.636719.695312-1.375.84375-2.246094zm0 0"/></svg>