<?xml version="1.0" standalone="no"?>
<!DOCTYPE svg PUBLIC "-//W3C//DTD SVG 20010904//EN"
 "http://www.w3.org/TR/2001/REC-SVG-20010904/DTD/svg10.dtd">
<svg version="1.0" xmlns="http://www.w3.org/2000/svg"
 viewBox="-20 -35 180.000000 164.000000"
 preserveAspectRatio="xMidYMid meet">

<g transform="translate(0.000000,120.000000) scale(0.100000,-0.100000)"
fill="#000000" stroke="none">
<path d="M360 788 l0 -38 386 0 386 0 -7 -66 c-9 -89 -30 -157 -55 -179 -22
-20 -62 -24 -128 -12 l-43 7 28 -51 28 -51 72 4 c63 3 76 7 102 32 40 38 57
86 80 221 l19 110 -27 27 -26 27 -408 3 -407 3 0 -37z"/>
<path d="M932 711 c-37 -7 -37 -11 -12 -61 9 -19 23 -52 30 -73 10 -32 15 -37
33 -31 43 13 67 24 67 29 0 18 -65 145 -74 144 -6 -1 -26 -4 -44 -8z"/>
<path d="M332 668 c-14 -56 -63 -130 -107 -159 -19 -13 -35 -26 -34 -29 0 -3
18 -20 41 -38 47 -38 47 -38 112 48 37 50 97 193 85 204 -2 2 -23 7 -45 11
l-41 6 -11 -43z"/>
<path d="M742 703 c-27 -4 -33 -8 -28 -21 3 -9 16 -52 28 -95 25 -84 24 -83
92 -57 l24 9 -17 58 c-24 78 -42 113 -55 111 -6 0 -26 -3 -44 -5z"/>
<path d="M513 678 c3 -13 13 -50 21 -83 9 -33 16 -77 16 -97 0 -21 1 -38 3
-38 2 0 24 7 50 16 41 14 46 19 42 40 -3 13 -7 36 -10 52 -3 15 -13 51 -21 80
l-15 52 -45 0 c-43 0 -46 -2 -41 -22z"/>
</g>
</svg>
