<svg height="40" viewBox="0 0 40 40" width="40" xmlns="http://www.w3.org/2000/svg"><path d="m32.078125 6.753906c0 .304688-.597656.460938-1.796875.460938l-2.910156-.109375h-4.527344c-2.265625 0-4.996094.316406-8.183594.945312-1.144531.210938-1.992187.40625-2.554687.601563-.167969.039062-.429688.15625-.777344.332031s-.535156.261719-.5625.261719c-.347656 0-.910156-.339844-1.683594-1.023438-.769531-.675781-1.160156-1.101562-1.160156-1.296875 0-.019531.082031-.125.25-.3125.5625.679688 1.0625 1.015625 1.511719 1.015625l9.582031-1.125v-1.859375c0-.328125-.269531-.617187-.8125-.875-.441406-.210937-.75-.304687-.910156-.285156v-.3125h.597656c.5625-.019531 1.203125.058594 1.933594.25.910156.234375 1.363281.535156 1.363281.910156 0 .117188-.066406.257813-.214844.421875-.132812.164063-.21875.273438-.238281.3125-.074219.214844-.109375.5625-.109375 1.054688v.179687c.019531.023438.078125.027344.175781.027344 0 0 .496094-.027344 1.46875-.097656 1.15625-.074219 2.933594-.230469 5.339844-.460938.121094-.023437.363281-.101562.738281-.242187.382813-.148438.574219-.210938.601563-.210938.132812 0 .65625.199219 1.539062.601563.890625.390625 1.339844.675781 1.339844.835937zm-3.441406 4.453125c0 .148438-.089844.273438-.265625.386719-.171875.121094-.28125.214844-.335938.285156-.328125.71875-.640625 1.449219-.945312 2.171875-.449219.984375-.855469 1.480469-1.226563 1.480469-.378906 0-.65625-.1875-.847656-.5625-.019531 0-.621094.066406-1.785156.207031-.351563.027344-.867188.074219-1.546875.148438-1.140625.132812-2.945313.351562-5.402344.660156-.1875.5625-.421875.847656-.707031.847656-.183594 0-.421875-.207031-.714844-.597656-.292969-.402344-.453125-.65625-.472656-.777344-.214844-1.640625-.554688-2.898437-1.023438-3.789062-.070312-.117188-.253906-.277344-.5625-.492188-.304687-.207031-.546875-.335937-.734375-.382812v-.28125c.402344-.101563.679688-.140625.839844-.140625.238281 0 .5625.085937.96875.269531s.671875.277344.785156.277344c.023438 0 .761719-.09375 2.210938-.277344 1.894531-.214844 4.625-.542969 8.179687-.984375.121094-.019531.324219-.082031.617188-.167969.289062-.097656.453125-.140625.472656-.140625.207031 0 .675781.25 1.40625.734375.722656.5 1.089844.871094 1.089844 1.125zm-2.324219-.101562c-.296875-.210938-.5-.3125-.589844-.3125-1.894531 0-5.488281.394531-10.773437 1.1875l.910156 3.269531 8-.972656 1.613281-.011719zm0 0"/></svg>