<?xml version="1.0" standalone="no"?>
<!DOCTYPE svg PUBLIC "-//W3C//DTD SVG 20010904//EN"
 "http://www.w3.org/TR/2001/REC-SVG-20010904/DTD/svg10.dtd">
<svg version="1.0" xmlns="http://www.w3.org/2000/svg"
 viewBox="-10 -30 180.000000 164.000000"
 preserveAspectRatio="xMidYMid meet">

<g transform="translate(0.000000,114.000000) scale(0.100000,-0.100000)"
fill="#000000" stroke="none">
<path d="M280 658 l0 -48 550 0 550 0 0 48 0 47 -550 0 -550 0 0 -47z"/>
<path d="M591 570 c-56 -41 -148 -86 -217 -105 -32 -10 -60 -19 -62 -20 -2 -2
12 -26 31 -53 l34 -50 79 34 c73 31 229 129 252 157 7 9 -2 19 -34 39 l-43 27
-40 -29z"/>
<path d="M968 572 c-21 -15 -38 -30 -38 -34 0 -19 182 -124 297 -171 l61 -25
31 50 c17 27 31 51 31 53 0 1 -17 6 -37 10 -57 10 -175 62 -243 106 -33 21
-62 39 -63 39 -1 -1 -19 -13 -39 -28z"/>
</g>
</svg>
