<svg height="40" viewBox="0 0 40 40" width="40" xmlns="http://www.w3.org/2000/svg"><path d="m30.777344 24.089844c0 .539062-.171875.8125-.53125.8125-.417969 0-.917969-.402344-1.5-1.199219-1.3125-1.777344-3.1875-3.480469-5.625-5.089844.03125-.070312.070312-.175781.144531-.3125.933594.417969 2.308594 1.074219 4.105469 1.960938 2.269531 1.238281 3.40625 2.515625 3.40625 3.828125zm2.84375-7.511719c0 .28125-.292969.417969-.882813.417969-.113281-.023438-.441406-.058594-.984375-.101563-1.863281-.191406-3.238281-.28125-4.101562-.28125l-4.039063.03125c-1.285156 0-3.363281.199219-6.234375.585938-2.863281.382812-5.21875.800781-7.070312 1.242187-.0625.027344-.246094.089844-.539063.214844-.289062.113281-.488281.175781-.582031.175781-.28125 0-.765625-.28125-1.457031-.832031-.6875-.546875-1.140625-.980469-1.351563-1.277344.09375-.210937.195313-.320312.3125-.320312 1.152344.613281 1.992188.921875 2.53125.921875-.070312 0 1.042969-.179688 3.335938-.53125 6.457031-.980469 11.617187-1.476563 15.476562-1.476563h1.125l.523438-.210937c.328125-.117188.519531-.171875.5625-.171875.285156 0 .882812.171875 1.796875.519531 1.046875.402344 1.578125.765625 1.578125 1.09375zm-16.078125 3.199219c0 .113281-.1875.238281-.5625.382812-.1875.09375-.371094.171875-.558594.242188-2.363281 1.925781-5.09375 3.460937-8.183594 4.632812l-.140625-.28125c.890625-.582031 2.203125-1.457031 3.933594-2.632812 2.011719-1.398438 3.015625-2.40625 3.015625-3.015625 0-.375-.113281-.585938-.347656-.632813.019531-.046875.070312-.148437.140625-.316406.347656.074219.820312.234375 1.40625.496094.867187.367187 1.296875.742187 1.296875 1.125zm0 0"/></svg>