<svg height="40" viewBox="0 0 40 40" width="40" xmlns="http://www.w3.org/2000/svg"><path d="m30.25 13.125c0 .296875-.394531.453125-1.1875.453125h-1.199219c.070313 0-1 .058594-3.203125.171875-2.207031.121094-4.582031.308594-7.132812.5625-.804688.074219-1.65625.234375-2.570313.496094-.117187.046875-.347656.144531-.6875.300781-.34375.144531-.523437.222656-.546875.222656-.378906 0-.851562-.222656-1.441406-.671875-.542969-.367187-.925781-.71875-1.160156-1.046875.097656-.210937.210937-.316406.351562-.316406.027344 0 .335938.089844.933594.265625.605469.171875 1.003906.277344 1.21875.296875l6.480469-.910156v-1.695313c0-1.585937-.476563-2.59375-1.4375-3.007812.117187-.214844.195312-.324219.25-.324219.394531 0 .929687.15625 1.613281.464844.886719.367187 1.332031.8125 1.332031 1.332031-.09375.183594-.253906.511719-.488281.972656v2.109375c.042969.03125.140625.039063.277344.039063 1.710937 0 3.472656-.09375 5.25-.277344.03125-.03125.175781-.105469.445312-.234375.265625-.125.4375-.1875.511719-.1875.207031 0 .628906.09375 1.265625.277344.75.234375 1.125.472656 1.125.707031zm1.894531 16.738281c-.019531.214844-.175781.339844-.453125.390625-.1875 0-.382812.007813-.597656.039063-1.003906.113281-1.9375.171875-2.808594.171875-.347656 0-1.21875-.601563-2.59375-1.792969-.707031-.65625-1.394531-1.300781-2.070312-1.933594-.117188.046875-.621094.367188-1.511719.949219-1.027344.675781-2.75 1.828125-5.160156 3.441406-.371094.632813-.65625.949219-.839844.949219-.328125 0-.730469-.777344-1.199219-2.324219 0-.019531.054688-.148437.164063-.398437.101562-.246094.15625-.414063.15625-.511719.300781-1.957031.457031-3.175781.457031-3.644531 0-.496094-.203125-1-.597656-1.511719-2.648438 1.6875-4.992188 2.890625-7.023438 3.609375-.046875-.019531-.117187-.121094-.210937-.3125.726562-.371094 1.3125-.675781 1.757812-.910156.15625-.09375.695313-.40625 1.578125-.949219 2.3125-1.40625 4.132813-2.886719 5.445313-4.453125-.023438-.214844-.054688-.421875-.074219-.636719 0-.304687.136719-.457031.421875-.457031.214844 0 .546875.238281 1.015625.71875.472656.484375.703125.816406.703125 1-1.078125.65625-2.03125 1.296875-2.878906 1.933594.117187.09375.34375.3125.671875.664062.414062.421875.628906.695313.628906.808594 0 .019531-.046875.140625-.140625.332031-.09375.199219-.152344.382813-.183594.542969-.222656 1.714844-.359375 2.917969-.378906 3.621094v.347656c1.78125-.53125 4.074219-1.578125 6.878906-3.125-.742187-.839844-1.492187-1.683594-2.25-2.527344-.910156-1.007812-1.601562-1.566406-2.066406-1.6875.046875-.0625.109375-.160156.171875-.273437.472656.019531 1.050781.289062 1.746094.804687.6875.511719 1.019531.777344 1 .777344.234375 0 .84375-.339844 1.84375-1.003906.988281-.667969 1.5625-1.09375 1.695312-1.277344-.09375-.308594-.460937-.558594-1.117187-.738281.039062-.074219.097656-.183594.171875-.320313h.421875c.160156 0 .71875.226563 1.648437.667969 1.027344.488281 1.546875.863281 1.546875 1.125 0 .183594-.171875.296875-.5.347656-1.003906.140625-2.804687.640625-5.398437 1.511719 3.320312 3.113281 6.632812 5.125 9.929687 6.035156zm0 0"/></svg>