<svg height="40" viewBox="0 0 40 40" width="40" xmlns="http://www.w3.org/2000/svg"><path d="m31.300781 33.894531-.132812.390625h-.429688c-.460937 0-1.695312-.070312-3.679687-.207031-.402344-.027344-.773438-.097656-1.121094-.214844-1.292969-1.257812-2.433594-2.363281-3.40625-3.300781-2.042969-1.941406-3.253906-2.933594-3.65625-2.984375l-.035156 7.449219c-.136719.675781-.3125 1.007812-.523438 1.007812-.234375 0-.429687-.269531-.597656-.800781-.140625-.441406-.199219-.734375-.175781-.878906l.175781-2.460938v-2.664062c.019531-1.214844-.105469-2.023438-.378906-2.421875-2.699219 2.570312-5.527344 4.539062-8.507813 5.894531-.019531-.019531-.0625-.097656-.132812-.246094 1.046875-.675781 2.148437-1.421875 3.296875-2.242187.441406-.328125 1.300781-1.109375 2.566406-2.351563 1.515625-1.503906 2.28125-2.4375 2.28125-2.804687l-.214844-.324219c-.164062-.183594-.242187-.3125-.242187-.386719 0-.253906.148437-.382812.445312-.382812.183594 0 .5625.160156 1.125.472656.570313.316406.84375.5625.84375.71875 0 .121094-.328125.527344-.972656 1.234375 1.589844.980469 2.421875 1.472656 2.484375 1.472656.144531 0 .785156-.4375 1.933594-1.304687 1.144531-.875 1.722656-1.355469 1.722656-1.449219 0-.097656-.082031-.292969-.25-.59375-.160156-.292969-.238281-.480469-.238281-.550781.953125.515625 1.472656.800781 1.535156.851562.65625.351563 1.003906.695313 1.058594 1.023438-1.195313.492187-2.960938 1.238281-5.304688 2.226562 1.125.773438 2.824219 1.933594 5.09375 3.464844 2.054688 1.34375 3.871094 2.128906 5.4375 2.363281zm0 0"/></svg>