<?xml version="1.0" standalone="no"?>
<!DOCTYPE svg PUBLIC "-//W3C//DTD SVG 20010904//EN"
 "http://www.w3.org/TR/2001/REC-SVG-20010904/DTD/svg10.dtd">
<svg version="1.0" xmlns="http://www.w3.org/2000/svg"
 viewBox="-15 -20 184.000000 152.000000"
 preserveAspectRatio="xMidYMid meet">

<g transform="translate(0.000000,122.000000) scale(0.100000,-0.100000)"
fill="#000000" stroke="none">
<path d="M310 775 l0 -51 165 4 c129 3 165 2 165 -8 0 -17 -42 -90 -97 -167
l-44 -63 -95 0 c-51 0 -94 -3 -94 -7 0 -3 7 -29 16 -57 l16 -51 122 7 c140 9
332 31 494 57 l114 18 22 -36 c13 -20 27 -48 32 -64 5 -15 11 -28 14 -29 3 -1
29 7 58 16 l53 18 -17 26 c-48 76 -132 187 -188 248 l-63 69 -48 -23 -48 -23
58 -59 57 -58 -48 -10 c-69 -15 -303 -37 -310 -29 -4 4 -1 13 5 21 7 8 34 57
60 108 l48 93 257 0 256 0 0 50 0 50 -480 0 -480 0 0 -50z"/>
</g>
</svg>
