<svg height="40" viewBox="0 0 40 40" width="40" xmlns="http://www.w3.org/2000/svg"><path d="m30.425781 15.238281c0 .308594-.222656.464844-.671875.464844h-5.75l-6.078125.457031c1.074219.71875 1.617188 1.21875 1.617188 1.480469-.605469.675781-1.203125 1.355469-1.789063 2.042969-1.40625 1.648437-2.476562 3.039062-3.226562 4.191406 3.085937-.1875 6.785156-.589844 11.085937-1.203125-.816406-1.152344-1.894531-2.324219-3.226562-3.53125.019531-.074219.113281-.1875.28125-.355469.910156.589844 2.253906 1.476563 4.035156 2.667969 1.777344 1.199219 2.667969 2.386719 2.667969 3.582031 0 .515625-.234375.773438-.699219.773438-.375 0-.871094-.371094-1.472656-1.121094-.328125-.402344-.695313-.871094-1.09375-1.410156-.632813.117187-1.496094.285156-2.601563.5l-9.40625 1.71875c-.039062 0-.28125.125-.71875.382812-.429687.257813-.707031.386719-.820312.386719-.398438 0-1.101563-.902344-2.105469-2.703125l.277344-.285156c.847656.398437 1.378906.597656 1.613281.597656h1.234375c2.378906-3.855469 3.578125-6.035156 3.578125-6.527344 0-.1875-.078125-.40625-.25-.671875-.15625-.253906-.332031-.378906-.519531-.378906-.121094 0-.449219.03125-.984375.105469-.796875.113281-1.75.3125-2.875.597656-.054688.019531-.199219.089844-.445313.1875-.242187.109375-.390625.160156-.4375.160156-.304687 0-.71875-.296875-1.226562-.894531-.515625-.597656-.792969-1.058594-.84375-1.386719.132812-.070312.234375-.101562.28125-.101562-.328125 0-.152344.117187.523437.363281.679688.25 1.140625.375 1.375.375-.265625 0 .714844-.109375 2.90625-.324219 2.132813-.210937 5.976563-.585937 11.515625-1.148437.117188-.03125.367188-.125.734375-.289063l.496094-.207031c.253906 0 .828125.203125 1.703125.609375.875.417969 1.316406.707031 1.316406.894531zm0 0"/></svg>