<svg height="40" viewBox="0 0 40 40" width="40" xmlns="http://www.w3.org/2000/svg"><path d="m29.792969 15.628906c0 .046875-.078125.21875-.246094.511719-.160156.292969-.238281.472656-.238281.546875v6.597656c0 .09375-.054688.21875-.148438.386719-.097656.160156-.179687.238281-.28125.238281-.421875 0-.765625-.347656-1.019531-1.046875-.890625.167969-2.222656.460938-4 .875-.046875 0-.175781.058594-.390625.15625-.203125.109375-.332031.164063-.386719.164063-.488281 0-1.0625-.402344-1.710937-1.195313l.140625-.28125c.5625.355469 1.003906.492188 1.332031.417969l5.015625-1.046875v-2.53125c-.917969.144531-2.246094.421875-3.988281.84375-.0625.019531-.183594.105469-.351563.25-.164062.136719-.347656.203125-.5625.203125-.546875 0-1.207031-.441406-2.007812-1.328125l.140625-.25c.863281.328125 1.40625.46875 1.613281.425781l5.15625-1.09375v-2.101562c-.253906-.28125-.421875-.421875-.488281-.421875-.609375 0-1.976563.3125-4.105469.945312-.074219.023438-.203125.085938-.386719.179688-.1875.09375-.363281.132812-.53125.132812-.347656 0-.785156-.191406-1.3125-.59375-.523437-.394531-.785156-.773437-.785156-1.125 0-.039062.078125-.140625.238281-.273437.496094.582031 1.0625.875 1.71875.875.167969 0 1.023438-.179688 2.570313-.527344 1.535156-.347656 2.421875-.5625 2.628906-.636719.046875-.019531.144531-.09375.316406-.222656.15625-.128906.265625-.199219.3125-.199219.136719 0 .46875.164063.984375.476563.515625.320312.773438.53125.773438.648437zm-9.902344 1.40625c0 .042969-.042969.183594-.140625.402344-.09375.222656-.136719.355469-.136719.40625v6.140625c0 .613281-.191406.910156-.5625.910156-.304687 0-.613281-.273437-.910156-.835937-.871094.179687-2.144531.507812-3.828125.984375-.042969.019531-.183594.101562-.402344.238281-.222656.140625-.367187.214844-.4375.214844-.6875 0-1.328125-.585938-1.929687-1.757813.113281-.066406.210937-.101562.273437-.101562 0 0 .164063.09375.476563.273437.320312.195313.582031.289063.796875.289063.316406 0 1.164062-.15625 2.519531-.460938 1.292969-.28125 2.144531-.488281 2.566406-.628906v-2.628906c-.03125-.023438-.054687-.039063-.109375-.039063-.1875 0-.796875.125-1.820312.367188-1.027344.242187-1.683594.414062-1.96875.507812-.070313 0-.21875.0625-.453125.199219-.234375.121094-.417969.1875-.53125.1875-.164063 0-.515625-.21875-1.0625-.660156-.558594-.449219-.828125-.757813-.828125-.914063 0-.03125.046875-.117187.140625-.285156.953125.542969 1.585937.769531 1.894531.699219l4.738281-1.011719v-2.285156l-.457031-.460938c-.234375.074219-.582031.15625-1.050781.25-.1875.042969-.867188.234375-2.042969.5625-1.167969.328125-1.765625.484375-1.785156.484375-.820313 0-1.699219-.507812-2.632813-1.535156l.277344-.324219c.261719.171875.515625.324219.769531.476563.265625.15625.558594.234375.886719.234375.253906 0 1.074219-.148438 2.457031-.421875 1.375-.289063 2.214844-.46875 2.523438-.5625.070312-.023438.210937-.109375.421875-.246094.210937-.140625.335937-.214844.382812-.214844.164063 0 .539063.21875 1.109375.652344.570313.4375.855469.734375.855469.894531zm0 0"/></svg>