<svg width="325" height="281" xmlns="http://www.w3.org/2000/svg">
	<path
		d="m33.525.009 33.457 33.494 185.102 185.312L295.22 262l.009-.009.226.226L276.693 281l-43.136-43.185L195 199.214V221.5H97.5v-65c0-14.928 10.017-27.407 23.603-31.266L65 69.067V221.5H32.5v-130H0V59h54.945l-6.49-6.497-33.682-33.72L33.525.009ZM292.5 59c17.95 0 32.5 14.55 32.5 32.5v24.375c0 13.462-10.913 24.375-24.375 24.375 13.462 0 24.375 10.913 24.375 24.375V189c0 18.038-14.625 32.5-32.5 32.5h-.211L259.825 189H292.5v-32.5H260V124h32.5V91.5h-65V59h65Zm-140.166 97.5H130V189h54.797l-32.463-32.5ZM162.5 59c17.95 0 32.5 14.55 32.5 32.5V124l-.001.1L162.5 91.564V91.5l-.065-.001-32.463-32.5L162.5 59Z"
		fill="#000" fill-rule="nonzero" />
</svg>
