<svg width="55" height="73" fill="none" xmlns="http://www.w3.org/2000/svg">
	<path d="M35.897 6.31l-.086-.086.086.085z" fill="#2880FF" />
	<path
		d="M34.538 46.767l-1.019.338-.424-.338-.17.084-.255-.59.17-.17v-.338l-.424-.675-1.019-1.52-.255-1.69-1.273-2.027v-1.014l.34-1.098.51-.591.084-.591-.17-.507-.17-.422.17-.338-.594-1.098.255-.085-.255-.169-.255-.59-1.018-.93-.425-.845h.17l.085-.506.085.169h.17l-.34-.17h.17v-.337h-.17l.34-.93-.085-.337h.085l-.085-.17-.255.085-.17-.338-.17.17-.17-.254v.169h-.424l-.17-.169-.084.169-.085-.169v.169l-.085-.169v.169h-.34l-.255-.422.17-.17-.17.085-.084-.084.17-.17-.17.085-.17-.084h-.425l.17-.17-1.103.254-.764.254-.934.422-.85-.338-.933.169-.594.338-.51-.254-1.018-.929-.594-.253v-.169l-.34-.338.17-.084h-.17v-.423l-.17-.084.085-.17-.17-.084-.17-.084-.084-.422-.085.084-.085-.169.255-.084-.255-.085-.34-.76v-.253l-.34-.423.425-.422.425-.929-.085-.76.17-.422-.17-.423v.17l.17-.423.679-.93.424-.337.34-.676.34-.169.424-.507.51-.084.593-.422.255-.338.085-.507.34-.507 1.103-.591.51-.676.17-.084.254.253.679-.084v.169h.34l.424-.254.34-.084.424-.254 1.104-.169.509.085.424-.17.595.085.679-.168.254.253.255-.17-.34.339.255.338-.51.422.086.169.848.338h.425l.764.169.255.422.848.253.425.254.424-.254v-.506l.68-.338.594.084.085.17.679.084.17.168h.764l.848.254.764-.338h.34l.085.169h.17l.679-.085.51-1.266-.17-.423v-.422l-.255.084h-.425l-.17.17-.424.168-.68-.338h-.169v.254h-.255l-.509-.254-.424.085.34-.17h-.425l.085-.083-.255-.17.085-.084-.425-.084.085-.17.085.085h.17l-.17-.084.085-.338h-.34v-.17l.17-.168h.85v-.085h.339-.255l-.085-.168.764.084.68-.338h.594l.594.338.679.084h.679l.34-.168.084-.17-.424-.337-.594-.254-1.189-.675.255-.085.085-.338.17.085-.425-.17h.255l.17-.168-1.019.169-.17.169v-.17l-.085.254.17.17h.17l-.34-.339.34.254h.34l-.68.338-.254-.085-.17-.253h-.17l.34-.085-.085-.084h-.594l.084-.085-.17-.084h.34l-.17-.085-.34.085v.169l-.169.169-.085-.085.085.338-.34.085-.084-.17v.507l-.34.338h.17l.594.507h-.51l-.424.338.17-.169-.594-.084-.68.084.255.253-.254-.084.085.169-.425-.254-.17.085.34.507-.17-.085v.17l-.17.084.595.253v.169l-.085-.253-.17.084.17.169h-.34l.255.422-.255-.169v.17l-.17-.254-.17.084-.17-.422.086-.169.594.085.085-.085-.764-.084-.17-.17.17-.084h-.17l-.255-.253-.34-.169.086-.507-.255-.253-.594-.17.255.085-.255-.169h-.34l-.424-.675-.255.169-.085-.338-.509.084.085.422.424.254.425.507.51.084-.086.17.934.506-.085.084-.34-.253h-.339l-.17.253.255.254-.17.084-.255.338h-.17l.17-.338-.17-.422-1.612-.845-.255-.591-.424-.169-1.019.507-.68-.17-.254.085-.17.17v.337l-.849.338-.34.338-.084.084-.085.17.085.084.085.084-.085.085-.17.084-.085.254h-.424l-.34.337h-.848l-.51.254-.34-.507-.763.085.17-.507h-.086l.17-.254-.254.085.424-.507.425-.845-.085-.253.594-.254.17.085h1.782l.425-.676v-.084l.085-.254h-.255l-.085-.337-.51-.085v-.169h.17l-.17-.084.51-.085.085.085h.424l-.085-.423.595.17.424-.254.085-.085v-.168l.849-.17-.255-.084h.34l-.17-.084.255-.254.085.17.17-.085h.084l.17-.085h.424l-.084-.084h.254l.085.084.085-.169.34.085-.34-.17h.17l-.085-.084h-.085l.17-.675.594-.17-.17.254.17.085-.424.169-.085.253.17.169h.254l-.085.084.595-.084.424.253v-.084l.934-.254.254.17.255-.085-.085.084.17-.084v-.085h.34V8.42l.17-.253h.17l.339.253.17-.084v-.338h-.17l-.17-.254.51-.084.593.084v-.169h.51l-.425-.084v-.084l-1.188.084v-.084h-.17l-.255-.085.085-.253-.17-.254.85-.507-.255-.084h-.34v.084l-.17-.084v.084h-.17l.17.17-.424.168h-.085l-.424.17-.085-.085-.085.507h.17l.254.169-.254.168h.17l-.17.085-.085-.085v.085l-.34.084h.17-.085v.254l-.255.338h-.34l-.169.169h-.34l-.084-.254.17-.084-.255-.338.085-.17h-.17l-.085-.421-.085.337h-.17l-.34.254h-.339l-.34-.17.085.085h.085l.085-.084h-.254l.254-.085-.17.085-.084-.085.594-.168-.425.168v-.168l-.085.084v-.084l.17-.085h-.255.425l.085.085.17-.085v-.169l-.085.085-.17-.085H29.7l.17-.084h-.255.085v-.17h.255l.085-.084h-.085.51l-.17-.084.254.084v-.169h.255l.34-.253v.084h.17l-.086-.084.34-.085h-.17l.17-.168h.085l-.085-.085h.085l.17-.084h-.085.424-.255l.255-.17-.17-.084h.17-.085.34l.085-.169.254.085-.085-.085h.17l.085-.084v.084l.17-.084.17.084-.085-.084h-.085.34l.17-.17h.17l-.086.085.17-.169v.085h.255l-.085.084.17-.084.34.084-.086.085h-.255.085l.17.084h.085l.17.085.085-.085h.17l-.17-.169s4.16-2.111 4.16-2.956v-.76h.594c-9.423-3.801-20.204-.93-26.401 7.01-2.207 2.619-3.905 5.49-5.178 8.616-.085.169-.085.338-.085.507-.849 2.45-1.443 4.983-1.613 7.517.255 2.28-2.716 4.73-4.5 6.588-2.8 2.703-2.206 4.392 1.274 5.152 2.377.592-5.008 3.21 1.189 5.66.933.76-4.245.253-.34 3.97-2.377 5.996 1.189 7.601 8.065 6.672 7.555-1.267 7.64 6.335 9.592 11.656.764 3.886 1.358 7.095 1.358 7.095-.254-8.784 4.839-13.852 10.357-20.525a6.67 6.67 0 001.782-4.814h-.509z"
		fill="#fff" />
	<path d="M35.642 6.14l-.085-.17h-.424l.424.085h-.085l.17.085zM31.058 6.646l.085-.169-.17.17h-.17v.084l.255-.085z"
		fill="#2880FF" />
	<path
		d="M53.893 22.019v-.422l-.17-.254v-.169h-.085l-.085-.169.085-.084h-.17l.085.507-.255.168-.764-.76.34-.084v-.17l-.34.085-.34-.338v-.168l-.084.084v-.169h-.085l-.085-.084v.084h-.085l-.17-.338h-.17l-.17-.338-1.357.254-.51-.17-.933-.168-.425-.676-.594.338-.425-.084-.509-.338-.424-.085-.68-.844-.084-.085-.17.085-.255-.254v.17h-.34l.17.168-.17.085h.17l.51.76.594.422v.253l.424.507-.084-.506h.254l.085.675.34.17.17-.085h.424l.594-.93v.338l.255.507.255.254.594.168.509.592-.255.844-.084-.084-.17.084.085.592-.34.084v.338l-.34.084-.084.338-.85.254-.084.422-.594.253h-3.141v-.084l-.085-.676-.934-1.436-.34-.338-.34-.337-.169-.592-.34-.59-.424-.254-.17-.338-1.018-1.267H39.8l.085-.591-.17.76-.424-.338-.425-.591v.084-.084l.085.338.425.506.848 1.436.34.254h-.085l.17.422.594.422.255.423-.085-.085.17 1.098.594.338.679 1.352v-.17l.085.085.085.169.424.169 1.019 1.014.085.168-.34.254h.255l.679.591.51-.253.254.084.34-.169.848-.084.51-.338.254.084v.676h.17l-.51.169V26.833l-.678 1.52c.424-.253.679-.168.849.76.34 2.113-.595 3.717-.51 5.153.085 1.436-1.613 2.45-.849 3.125.34.338.934.507 1.444.254l.17-.17c-.086-.168.509-1.013.848-.928 1.443-1.858 2.632-3.886 3.48-6.082v.423c0 .422-.084.844-.17 1.267-.084.253.086.59.34.675.255.085.595-.084.68-.338.933-2.533 1.443-5.152 1.443-7.855v-1.013l-.68-1.605z"
		fill="#fff" />
	<path d="M34.963 5.548h.084v-.084h-.17l.086.084z" fill="#2880FF" />
</svg>
