<?xml version="1.0" standalone="no"?>
<!DOCTYPE svg PUBLIC "-//W3C//DTD SVG 20010904//EN"
 "http://www.w3.org/TR/2001/REC-SVG-20010904/DTD/svg10.dtd">
<svg version="1.0" xmlns="http://www.w3.org/2000/svg"
  viewBox="-100 -20 800.000000 820.000000"
 preserveAspectRatio="xMidYMid meet">

<g transform="translate(0.000000,790.000000) scale(0.100000,-0.100000)"
fill="#000000" stroke="none">
<path d="M2695 7202 c-19 -12 -82 -98 -174 -238 -80 -120 -186 -282 -237 -359
-290 -438 -921 -1125 -1454 -1582 -80 -69 -146 -132 -148 -142 -1 -9 2 -22 7
-30 21 -32 435 218 678 411 257 203 584 503 817 748 163 170 249 273 449 537
176 233 158 218 280 226 l57 4 42 -66 c202 -323 627 -780 1008 -1086 317 -254
642 -457 942 -589 l57 -25 75 102 c111 152 183 215 334 291 62 31 67 52 15 62
-154 27 -450 90 -554 119 -424 117 -854 344 -1259 664 -112 88 -346 314 -471
455 -89 99 -89 100 -70 120 27 29 42 73 35 100 -7 29 -49 70 -184 180 -147
120 -184 135 -245 98z"/>
<path d="M3497 5588 c-9 -7 -61 -74 -115 -148 l-98 -135 -279 -3 c-309 -3
-757 10 -1138 34 -137 9 -251 13 -254 11 -4 -5 139 -272 156 -290 4 -4 63 1
132 12 68 11 176 25 239 31 63 6 129 13 145 16 17 3 392 9 835 12 628 6 810
10 828 20 22 13 30 59 16 96 -6 17 -292 282 -355 329 -39 29 -84 35 -112 15z"/>
<path d="M4380 4823 c0 -4 9 -39 19 -76 11 -38 28 -116 37 -175 16 -99 16
-225 10 -1622 -4 -833 -11 -1537 -15 -1563 -10 -61 -56 -111 -117 -126 -76
-19 -303 -13 -576 15 -59 6 -68 5 -68 -10 0 -10 23 -26 64 -45 235 -106 361
-230 418 -410 l23 -72 41 6 c296 42 484 144 562 305 52 106 57 175 43 555 -6
182 -16 463 -21 625 -5 162 -11 728 -13 1257 l-3 962 64 27 c82 35 119 66 131
111 12 44 2 67 -39 88 -16 8 -141 45 -277 81 -137 36 -256 67 -265 70 -10 3
-18 2 -18 -3z"/>
<path d="M980 4708 c0 -7 5 -42 11 -77 30 -186 41 -368 46 -766 5 -387 2 -657
-28 -2140 -16 -831 -16 -876 1 -909 27 -53 63 -71 139 -70 114 0 198 53 254
158 21 39 22 52 22 301 0 143 -4 488 -8 768 l-8 507 491 0 491 0 -3 -547 c-4
-595 -5 -605 -60 -646 -19 -14 -49 -21 -115 -26 -112 -8 -374 4 -475 22 l-78
13 0 -25 c0 -21 10 -31 58 -56 79 -42 194 -136 253 -209 58 -71 93 -140 117
-231 9 -36 21 -65 27 -65 5 0 60 13 120 29 266 70 401 155 470 294 54 110 57
183 45 1115 -5 439 -10 1069 -10 1402 l0 605 87 40 c89 40 143 78 143 99 0 19
-225 221 -327 293 -74 52 -120 40 -235 -62 l-83 -74 -428 -1 -428 0 -212 119
c-277 154 -277 154 -277 139z m1408 -810 l2 -378 -490 0 -490 0 0 380 0 380
488 -2 487 -3 3 -377z m0 -895 l-3 -348 -487 -3 -488 -2 0 350 0 350 490 0
490 0 -2 -347z"/>
<path d="M3210 4588 c0 -7 5 -31 10 -54 46 -201 62 -582 50 -1219 -37 -1964
-39 -1832 30 -1868 93 -47 278 56 319 179 22 67 24 226 12 1289 -6 567 -8
1090 -5 1163 l7 133 63 35 c78 44 104 74 104 125 0 70 -29 85 -347 168 -127
34 -234 61 -237 61 -3 0 -6 -6 -6 -12z"/>
</g>
</svg>
