<?xml version="1.0" standalone="no"?>
<!DOCTYPE svg PUBLIC "-//W3C//DTD SVG 20010904//EN"
 "http://www.w3.org/TR/2001/REC-SVG-20010904/DTD/svg10.dtd">
<svg version="1.0" xmlns="http://www.w3.org/2000/svg"
 viewBox="0 0 138.000000 126.000000"
 preserveAspectRatio="xMidYMid meet">

<g transform="translate(0.000000,126.000000) scale(0.100000,-0.100000)"
fill="#000000" stroke="none">
<path d="M690 956 c0 -8 9 -17 20 -21 33 -11 62 -55 170 -264 58 -112 115
-214 127 -227 20 -22 29 -24 123 -24 55 0 100 3 100 8 0 4 -28 25 -61 47 -79
52 -157 137 -254 277 -43 62 -89 128 -103 146 -41 56 -122 94 -122 58z"/>
<path d="M434 843 c0 -101 -82 -276 -192 -408 -29 -36 -47 -65 -40 -65 42 0
159 104 225 200 33 49 123 224 123 240 0 20 -73 90 -94 90 -20 0 -22 -5 -22
-57z"/>
</g>
</svg>
