<?xml version="1.0" standalone="no"?>
<!DOCTYPE svg PUBLIC "-//W3C//DTD SVG 20010904//EN"
 "http://www.w3.org/TR/2001/REC-SVG-20010904/DTD/svg10.dtd">
<svg version="1.0" xmlns="http://www.w3.org/2000/svg"
 viewBox="0 0 238.000000 228.000000"
 preserveAspectRatio="xMidYMid meet">

<g transform="translate(0.000000,228.000000) scale(0.100000,-0.100000)"
fill="#000000" stroke="none">
<path d="M1436 1970 l-47 -50 -195 0 -194 0 -80 40 c-44 22 -82 40 -85 40 -3
0 -5 -223 -5 -495 l0 -495 -110 0 -111 0 16 -30 16 -30 130 0 c129 0 131 0
126 -21 -3 -12 -25 -105 -48 -208 -23 -102 -46 -191 -51 -197 -4 -6 -47 -14
-94 -17 -48 -3 -88 -8 -91 -10 -6 -7 80 -160 93 -164 6 -2 15 11 20 29 l10 33
329 67 c182 37 337 67 346 68 10 0 22 -22 38 -70 24 -75 44 -95 86 -84 97 24
56 188 -84 337 -66 70 -187 167 -208 167 -26 0 -18 -19 43 -99 59 -79 130
-199 122 -205 -1 -2 -109 -13 -238 -25 -129 -12 -245 -24 -257 -27 -14 -2 -23
0 -23 7 0 7 35 104 77 216 l77 203 298 0 c282 0 298 1 298 18 0 16 -98 112
-138 136 -8 5 -28 -10 -58 -43 l-46 -51 -214 0 -214 0 0 120 0 120 280 0 280
0 0 24 c0 16 -19 40 -67 80 l-68 57 -46 -50 -46 -51 -166 0 -167 0 0 130 0
130 280 0 c325 0 323 -1 216 87 l-64 53 -40 -45 -40 -45 -176 0 -176 0 0 125
0 125 325 0 c277 0 325 2 325 14 0 14 -95 112 -125 128 -8 5 -30 -11 -59 -42z"/>
</g>
</svg>
